<svg xmlns="http://www.w3.org/2000/svg" width="350" height="69" viewBox="0 0 350 69">
    <g fill="none" fill-rule="evenodd" transform="translate(1 1)">
        <rect width="348" height="67" fill="#FFF" fill-opacity=".509" stroke="#FFF" opacity=".153" rx="10"/>
        <path fill="#FFF" fill-rule="nonzero" d="M86.6 41.85v1.2c0 1.1-.208 2.142-.625 3.125A8.645 8.645 0 0 1 84.25 48.8a8.316 8.316 0 0 1-2.575 1.825 7.538 7.538 0 0 1-3.175.675c-.967 0-1.95-.133-2.95-.4a6.98 6.98 0 0 1-2.7-1.4c-.8-.667-1.458-1.525-1.975-2.575-.517-1.05-.775-2.392-.775-4.025V23.3c0-1.167.2-2.25.6-3.25.4-1 .967-1.867 1.7-2.6a7.903 7.903 0 0 1 2.625-1.725c1.017-.417 2.142-.625 3.375-.625 2.4 0 4.35.783 5.85 2.35a8.349 8.349 0 0 1 1.725 2.725c.417 1.05.625 2.192.625 3.425v1a1 1 0 0 1-1 1h-3.1a1 1 0 0 1-1-1v-.7c0-1-.283-1.867-.85-2.6-.567-.733-1.333-1.1-2.3-1.1-1.267 0-2.108.392-2.525 1.175-.417.783-.625 1.775-.625 2.975v18.2c0 1.033.225 1.9.675 2.6.45.7 1.258 1.05 2.425 1.05.333 0 .692-.058 1.075-.175a3.207 3.207 0 0 0 1.075-.575c.3-.267.55-.633.75-1.1.2-.467.3-1.05.3-1.75v-.75a1 1 0 0 1 1-1h3.1a1 1 0 0 1 1 1zm8.85-18.05c0-1.433.25-2.7.75-3.8.5-1.1 1.167-2.017 2-2.75.8-.7 1.708-1.233 2.725-1.6A9.006 9.006 0 0 1 104 15.1c1.033 0 2.058.183 3.075.55 1.017.367 1.942.9 2.775 1.6.8.733 1.45 1.65 1.95 2.75s.75 2.367.75 3.8v18.8c0 1.5-.25 2.783-.75 3.85-.5 1.067-1.15 1.95-1.95 2.65a8.574 8.574 0 0 1-2.775 1.65 9.006 9.006 0 0 1-3.075.55 9.006 9.006 0 0 1-3.075-.55 8.006 8.006 0 0 1-2.454-1.412L98.2 49.1c-.833-.7-1.5-1.583-2-2.65s-.75-2.35-.75-3.85V23.8zm5.1 18.8c0 1.233.342 2.142 1.025 2.725.683.583 1.492.875 2.425.875.933 0 1.742-.292 2.425-.875.683-.583 1.025-1.492 1.025-2.725V23.8c0-1.233-.342-2.142-1.025-2.725-.683-.583-1.492-.875-2.425-.875-.933 0-1.742.292-2.425.875-.683.583-1.025 1.492-1.025 2.725v18.8zm21.5 7.4V16.4a1 1 0 0 1 1-1h6.55c2.933 0 5.158.8 6.675 2.4 1.517 1.6 2.275 3.867 2.275 6.8v16.65c0 3.333-.808 5.792-2.425 7.375-1.617 1.583-3.942 2.375-6.975 2.375h-6.1a1 1 0 0 1-1-1zm5.1-29.8v26h2.35c1.433 0 2.45-.358 3.05-1.075.6-.717.9-1.842.9-3.375V24.6c0-1.4-.283-2.483-.85-3.25-.567-.767-1.6-1.15-3.1-1.15h-2.35zm21.2 29.8V16.4a1 1 0 0 1 1-1h13.2a1 1 0 0 1 1 1v2.8a1 1 0 0 1-1 1h-8.1a1 1 0 0 0-1 1v8.45a1 1 0 0 0 1 1h6.8a1 1 0 0 1 1 1v2.8a1 1 0 0 1-1 1h-6.8a1 1 0 0 0-1 1v8.45a1 1 0 0 0 1 1h8.1a1 1 0 0 1 1 1V50a1 1 0 0 1-1 1h-13.2a1 1 0 0 1-1-1zM179.5 49.9V16.3a1 1 0 0 1 1-1h3.1a1 1 0 0 1 1 1v13.25a1 1 0 0 0 1 1h4.3a1 1 0 0 0 1-1V16.3a1 1 0 0 1 1-1h3.1a1 1 0 0 1 1 1v33.6a1 1 0 0 1-1 1h-3.1a1 1 0 0 1-1-1V36.05a1 1 0 0 0-1-1h-4.3a1 1 0 0 0-1 1V49.9a1 1 0 0 1-1 1h-3.1a1 1 0 0 1-1-1zm36.596-12.622l-1.392-7.972a1 1 0 0 0-1.97.007l-1.338 7.972a1 1 0 0 0 .986 1.165h2.728a1 1 0 0 0 .986-1.172zm-12.124 12.404l7.503-33.6a1 1 0 0 1 .976-.782h2.648a1 1 0 0 1 .976.782l7.503 33.6a1 1 0 0 1-.976 1.218h-3.029a1 1 0 0 1-.981-.808l-1.184-6.034a1 1 0 0 0-.981-.808h-5.304a1 1 0 0 0-.981.808l-1.184 6.034a1 1 0 0 1-.981.808h-3.03a1 1 0 0 1-.975-1.218zM236.5 21.1v9.1a1 1 0 0 0 1 1h1.9c.9 0 1.617-.125 2.15-.375.533-.25.95-.608 1.25-1.075.267-.467.45-1.042.55-1.725.1-.683.15-1.475.15-2.375 0-.9-.05-1.692-.15-2.375-.1-.683-.3-1.275-.6-1.775-.633-.933-1.833-1.4-3.6-1.4h-1.65a1 1 0 0 0-1 1zm-5 28.8V16.3a1 1 0 0 1 1-1h7.2c6 0 9 3.483 9 10.45 0 2.1-.325 3.883-.975 5.35-.65 1.467-1.792 2.65-3.425 3.55l5.053 14.93a1 1 0 0 1-.947 1.32h-3.27a1 1 0 0 1-.955-.702l-4.312-13.796a1 1 0 0 0-.954-.702H237.6a1 1 0 0 0-1 1v13.2a1 1 0 0 1-1 1h-3.1a1 1 0 0 1-1-1zm26 0V16.3a1 1 0 0 1 1-1h6.45c1.633 0 3.025.25 4.175.75s2.092 1.167 2.825 2a7.468 7.468 0 0 1 1.575 2.875c.317 1.083.475 2.208.475 3.375v1.3c0 .967-.075 1.783-.225 2.45a5.894 5.894 0 0 1-.675 1.75c-.567.933-1.433 1.733-2.6 2.4 1.2.567 2.083 1.4 2.65 2.5.567 1.1.85 2.6.85 4.5v2c0 3.133-.758 5.533-2.275 7.2-1.517 1.667-3.942 2.5-7.275 2.5h-5.95a1 1 0 0 1-1-1zm5-14.5v9.4a1 1 0 0 0 1 1h1.2c1.033 0 1.842-.15 2.425-.45a3.105 3.105 0 0 0 1.325-1.25c.3-.533.483-1.167.55-1.9.067-.733.1-1.533.1-2.4 0-.9-.05-1.683-.15-2.35-.1-.667-.3-1.233-.6-1.7a2.878 2.878 0 0 0-1.35-1.025c-.567-.217-1.317-.325-2.25-.325h-1.25a1 1 0 0 0-1 1zm0-14.3v7.8a1 1 0 0 0 1 1h1.3c1.7 0 2.842-.425 3.425-1.275.583-.85.875-2.092.875-3.725 0-1.6-.325-2.8-.975-3.6-.65-.8-1.825-1.2-3.525-1.2h-1.1a1 1 0 0 0-1 1zm20 2.6c0-1.433.25-2.7.75-3.8.5-1.1 1.167-2.017 2-2.75.8-.7 1.708-1.233 2.725-1.6a9.006 9.006 0 0 1 3.075-.55c1.033 0 2.058.183 3.075.55 1.017.367 1.942.9 2.775 1.6.8.733 1.45 1.65 1.95 2.75s.75 2.367.75 3.8v18.8c0 1.5-.25 2.783-.75 3.85-.5 1.067-1.15 1.95-1.95 2.65a8.574 8.574 0 0 1-2.775 1.65 9.006 9.006 0 0 1-3.075.55 9.006 9.006 0 0 1-3.075-.55 8.006 8.006 0 0 1-2.454-1.412L285.25 49c-.833-.7-1.5-1.583-2-2.65s-.75-2.35-.75-3.85V23.7zm5 18.8c0 1.233.342 2.142 1.025 2.725.683.583 1.492.875 2.425.875.933 0 1.742-.292 2.425-.875.683-.583 1.025-1.492 1.025-2.725V23.7c0-1.233-.342-2.142-1.025-2.725-.683-.583-1.492-.875-2.425-.875-.933 0-1.742.292-2.425.875-.683.583-1.025 1.492-1.025 2.725v18.8zm26.65-21.4v9.1a1 1 0 0 0 1 1h1.9c.9 0 1.617-.125 2.15-.375.533-.25.95-.608 1.25-1.075.267-.467.45-1.042.55-1.725.1-.683.15-1.475.15-2.375 0-.9-.05-1.692-.15-2.375-.1-.683-.3-1.275-.6-1.775-.633-.933-1.833-1.4-3.6-1.4h-1.65a1 1 0 0 0-1 1zm-5.1 28.8V16.3a1 1 0 0 1 1-1h7.2c6 0 9 3.483 9 10.45 0 2.1-.325 3.883-.975 5.35-.65 1.467-1.792 2.65-3.425 3.55l5.053 14.93a1 1 0 0 1-.947 1.32h-3.27a1 1 0 0 1-.955-.702l-4.312-13.796a1 1 0 0 0-.954-.702h-1.315a1 1 0 0 0-1 1v13.2a1 1 0 0 1-1 1h-3.1a1 1 0 0 1-1-1z"/>
        <g transform="translate(16 16)">
            <rect width="15" height="5" x="5" y="30" fill="#F7AB05" rx="2"/>
            <rect width="26" height="5" x="12" fill="#0FB49C" rx="2"/>
            <rect width="26" height="5" y="20" fill="#A21B6B" rx="2"/>
            <rect width="8" height="5" x="30" y="20" fill="#DF402A" rx="2"/>
            <rect width="15" height="5" y="10" fill="#048CB0" rx="2"/>
            <rect width="15" height="5" x="19" y="10" fill="#563FD8" rx="2"/>
        </g>
    </g>
</svg>
