<svg xmlns="http://www.w3.org/2000/svg" xmlns:xlink="http://www.w3.org/1999/xlink" width="142" height="142" viewBox="0 0 142 142">
    <defs>
        <circle id="b" cx="40" cy="40" r="40"/>
        <filter id="a" width="235%" height="235%" x="-67.5%" y="-52.5%" filterUnits="objectBoundingBox">
            <feOffset dy="12" in="SourceAlpha" result="shadowOffsetOuter1"/>
            <feGaussianBlur in="shadowOffsetOuter1" result="shadowBlurOuter1" stdDeviation="16"/>
            <feColorMatrix in="shadowBlurOuter1" values="0 0 0 0 0 0 0 0 0 0 0 0 0 0 0 0 0 0 0.1 0"/>
        </filter>
    </defs>
    <g fill="none" fill-rule="evenodd">
        <g transform="rotate(-90 65 46)">
            <use fill="#000" filter="url(#a)" xlink:href="#b"/>
            <use fill="#FFF" xlink:href="#b"/>
        </g>
        <path fill="#DF402A" d="M58.982 86a1.5 1.5 0 0 0 1.5-1.5l-.001-23.44 4.955 4.929a1.5 1.5 0 0 0 2.002.102l.114-.102.007-.007.006-.006a1.495 1.495 0 0 0-.006-2.114l-7.463-7.425c-.302-.3-.7-.446-1.095-.437a1.496 1.496 0 0 0-1.097.437l-7.463 7.425a1.495 1.495 0 0 0 0 2.12l.007.007a1.5 1.5 0 0 0 2.116 0l4.904-4.879V84.5a1.5 1.5 0 0 0 1.5 1.5h.014z"/>
    </g>
</svg>
