<svg xmlns="http://www.w3.org/2000/svg" width="159" height="90" viewBox="0 0 159 90">
    <g fill="none" fill-rule="evenodd">
        <g transform="translate(49)">
            <rect width="63" height="63" fill="#00B578" opacity=".099" rx="31.5"/>
            <g fill="#0FB47A" transform="translate(15 11)">
                <circle cx="16.125" cy="9.594" r="9.594"/>
                <path d="M22.739 20.197a16.17 16.17 0 0 1 9.512 14.748c0 8.927-32.251 8.927-32.251 0a16.17 16.17 0 0 1 9.512-14.748 10.768 10.768 0 0 0 6.613 2.256c2.41 0 4.635-.787 6.433-2.119z"/>
            </g>
        </g>
        <g fill-rule="nonzero">
            <path fill="#F7AB05" d="M71.497 72.796c-4.249 2.345-10.092 4.513-15.92 5.427-5.184.813-14.938-1.147-14.938-3.463 0-.878 8.555 2.162 13.73.781 3.967-1.058 3.404-4.77 1.246-5.26-2.146-.487-14.717-5.092-20.087-5.251-2.53-.075-8.775.88-11.796 1.372-1.036.168-1.685.15-1.75 1.14-.3 4.605-.893 14.02-1.216 18.938-.007.104.138 1.501 1.29.518 1.263-1.076 3.033-2.27 4.67-1.898 2.57.583 24.794 4.654 27.86 3.942 4.385-1.02 16.8-8.377 19.18-10.663 3.69-3.545.821-7.288-2.27-5.583z"/>
            <path fill="#563FD8" d="M15.85 66.222L4.207 65.65c-.9-.045-1.817.633-2.04 1.504L.048 86.373c-.223.873.33 1.615 1.23 1.65l12.903-.002c.9.035 1.691-.67 1.76-1.568l1.417-18.519a1.588 1.588 0 0 0-1.51-1.712zM8.995 85.475a3.219 3.219 0 1 1 0-6.438 3.219 3.219 0 0 1 0 6.438z"/>
            <g>
                <path fill="#F7AB05" d="M86.703 72.796c4.249 2.345 10.092 4.513 15.92 5.427 5.184.813 14.938-1.147 14.938-3.463 0-.878-8.555 2.162-13.73.781-3.967-1.058-3.404-4.77-1.246-5.26 2.146-.487 14.717-5.092 20.087-5.251 2.53-.075 8.775.88 11.796 1.372 1.036.168 1.685.15 1.75 1.14.3 4.605.893 14.02 1.216 18.938.007.104-.138 1.501-1.29.518-1.263-1.076-3.033-2.27-4.67-1.898-2.57.583-24.794 4.654-27.86 3.942-4.385-1.02-16.8-8.377-19.18-10.663-3.69-3.545-.821-7.288 2.27-5.583z"/>
                <path fill="#563FD8" d="M142.35 66.222l11.643-.573c.9-.045 1.817.633 2.04 1.504l2.118 19.22c.223.873-.33 1.615-1.23 1.65l-12.903-.002a1.718 1.718 0 0 1-1.76-1.568l-1.417-18.519a1.588 1.588 0 0 1 1.51-1.712zm6.855 19.253a3.219 3.219 0 1 0 0-6.438 3.219 3.219 0 0 0 0 6.438z"/>
            </g>
        </g>
    </g>
</svg>
