<svg xmlns="http://www.w3.org/2000/svg" width="87" height="72" viewBox="0 0 87 72">
    <g fill="none" fill-rule="evenodd">
        <circle cx="27.65" cy="16.45" r="16.45" fill="#F7AB05"/>
        <path fill="#A21B6B" d="M38.99 34.63A27.791 27.791 0 0 1 52.28 47.31a16.367 16.367 0 0 0-1.88 7.641c0 3.536 1.115 6.81 3.013 9.492C43.728 75.04 0 73.532 0 59.92 0 48.66 6.694 38.97 16.31 34.63A18.469 18.469 0 0 0 27.65 38.5c4.166 0 8.01-1.373 11.107-3.691z"/>
        <circle cx="69.65" cy="54.95" r="16.45" fill="#0FB47A"/>
        <path fill="#FFF" d="M68.883 47.905l-5.225 5.193a1.045 1.045 0 0 0 0 1.482l.006.005a1.05 1.05 0 0 0 1.48 0l3.433-3.411.001 10.076c0 .58.47 1.05 1.05 1.05h.009c.58 0 1.05-.47 1.05-1.05V51.138l3.469 3.447c.378.376.97.405 1.381.087l.1-.087a1.045 1.045 0 0 0 .005-1.488l-5.225-5.192a1.046 1.046 0 0 0-.679-.304h-.176c-.247.015-.49.116-.679.304z"/>
    </g>
</svg>
