<svg xmlns="http://www.w3.org/2000/svg" width="105" height="76" viewBox="0 0 105 76">
    <g fill="none" fill-rule="evenodd">
        <path fill="#0FB47A" d="M.103 62.913l12.044-29.637a1.4 1.4 0 0 1 2.383-.356l9.922 12.209a1.4 1.4 0 0 0 2.418-.45L38.317 9.466a1.4 1.4 0 0 1 2.418-.45L50.83 21.438a1.4 1.4 0 0 0 2.317-.216L63.775 1.606a1.4 1.4 0 0 1 2.528.14L77.11 28.337a1.4 1.4 0 0 0 2.528.14L89.709 9.89a1.4 1.4 0 0 1 2.562.234l11.96 36.791a1.4 1.4 0 0 1 .069.433V74.6a1.4 1.4 0 0 1-1.4 1.4H1.4A1.4 1.4 0 0 1 0 74.6V63.44c0-.18.035-.36.103-.527z"/>
        <path fill="#F7AB05" d="M104.103 66.919L92.105 46.788a1.4 1.4 0 0 0-2.103-.356L79.61 55.15a1.4 1.4 0 0 1-2.163-.47L65.966 30.6a1.4 1.4 0 0 0-2.164-.47l-10.55 8.852a1.4 1.4 0 0 1-1.996-.201L40.373 25.087a1.4 1.4 0 0 0-2.298.154L27.113 43.634a1.4 1.4 0 0 1-2.299.154L14.432 30.724a1.4 1.4 0 0 0-2.36.268L.137 56.027a1.4 1.4 0 0 0-.136.602V74.6A1.4 1.4 0 0 0 1.4 76h101.5a1.4 1.4 0 0 0 1.4-1.4v-6.964a1.4 1.4 0 0 0-.197-.717z"/>
        <path fill="#DF402A" d="M.568 71.73l11.862-8.756a1.4 1.4 0 0 1 1.316-.187l11.525 4.254a1.4 1.4 0 0 0 1.434-.285l11.777-10.868a1.4 1.4 0 0 1 1.435-.285l11.631 4.294a1.4 1.4 0 0 0 1.163-.089l11.69-6.473a1.4 1.4 0 0 1 1.51.099L77.5 61.99a1.4 1.4 0 0 0 1.51.099l11.367-6.294a1.4 1.4 0 0 1 1.628.196l11.843 10.93a1.4 1.4 0 0 1 .451 1.029V74.6a1.4 1.4 0 0 1-1.4 1.4H1.4A1.4 1.4 0 0 1 0 74.6v-1.743a1.4 1.4 0 0 1 .568-1.127z"/>
    </g>
</svg>
