<svg xmlns="http://www.w3.org/2000/svg" width="20" height="20" viewBox="0 0 20 20">
    <path fill="#F7AB05" fill-rule="nonzero" d="M14.174.067c.848.045 1.585.171 2.21.38a5.204 5.204 0 0 1 1.942 1.227c.55.55.96 1.198 1.228 1.942.208.625.342 1.37.401 2.232.03.834.045 2.218.045 4.152 0 1.934-.022 3.326-.067 4.174-.045.848-.171 1.585-.38 2.21a5.203 5.203 0 0 1-1.227 1.942c-.55.55-1.198.96-1.942 1.228-.625.208-1.362.334-2.21.379-.848.045-2.24.067-4.174.067-1.935 0-3.326-.022-4.174-.067-.848-.045-1.585-.186-2.21-.424a4.759 4.759 0 0 1-1.942-1.183 5.203 5.203 0 0 1-1.228-1.942c-.208-.625-.334-1.362-.379-2.21C.025 13.382.003 12.118 0 10.38V10c0-1.934.022-3.326.067-4.174.045-.848.171-1.585.38-2.21a5.203 5.203 0 0 1 1.227-1.942c.55-.55 1.198-.96 1.942-1.228.625-.208 1.362-.334 2.21-.379C6.618.025 7.882.003 9.62 0H10c1.935 0 3.326.022 4.174.067zM10 4.867c-.923 0-1.778.23-2.567.691a5.149 5.149 0 0 0-1.875 1.875A4.996 4.996 0 0 0 4.866 10c0 .923.23 1.778.692 2.567a5.149 5.149 0 0 0 1.875 1.875 4.996 4.996 0 0 0 2.567.692c.923 0 1.778-.23 2.567-.692a5.149 5.149 0 0 0 1.875-1.875A4.996 4.996 0 0 0 15.134 10c0-.923-.23-1.778-.692-2.567a5.149 5.149 0 0 0-1.875-1.875A4.996 4.996 0 0 0 10 4.866zm0 1.785c.923 0 1.711.327 2.366.982s.982 1.443.982 2.366-.327 1.711-.982 2.366a3.225 3.225 0 0 1-2.366.982 3.225 3.225 0 0 1-2.366-.982A3.225 3.225 0 0 1 6.652 10c0-.923.327-1.711.982-2.366A3.225 3.225 0 0 1 10 6.652zm5.357-3.215c-.327 0-.61.12-.848.358s-.357.52-.357.848c0 .327.119.61.357.848s.52.357.848.357c.328 0 .603-.119.826-.357.223-.238.35-.52.38-.848 0-.327-.12-.61-.358-.848a1.159 1.159 0 0 0-.848-.357z"/>
</svg>
