<svg xmlns="http://www.w3.org/2000/svg" xmlns:xlink="http://www.w3.org/1999/xlink" width="172" height="172" viewBox="0 0 72 72">
    <defs>
         <circle id="b" cx="20" cy="20" r="20"/> 
        <filter id="a" width="235%" height="235%" x="-67.5%" y="-52.5%" filterUnits="objectBoundingBox">
            <feOffset dy="6" in="SourceAlpha" result="shadowOffsetOuter1"/>
            <feGaussianBlur in="shadowOffsetOuter1" result="shadowBlurOuter1" stdDeviation="8"/>
            <feColorMatrix in="shadowBlurOuter1" values="0 0 0 0 0 0 0 0 0 0 0 0 0 0 0 0 0 0 0.1 0"/>
        </filter>
    </defs>
    <g fill="none" fill-rule="evenodd">
        <g transform="translate(16 10)">
            <use fill="#000" filter="url(#a)" xlink:href="#b"/>
            <use fill="#FFF" xlink:href="#b"/>
        </g>
        <path fill="#048CB0" d="M26.288 29.27l4.951-4.976a.997.997 0 0 1 1.41-.003l.003.003.005.005a1 1 0 0 1 0 1.41l-3.254 3.27H45a1 1 0 0 1 1 1v.009a1 1 0 0 1-1 1l-15.63-.001 3.287 3.303a1 1 0 0 1 .083 1.317l-.083.094-.005.005a.998.998 0 0 1-1.413 0l-4.951-4.975a.996.996 0 0 1-.29-.647v-.168a.996.996 0 0 1 .29-.647z"/>
    </g>
</svg>
