<svg xmlns="http://www.w3.org/2000/svg" width="289" height="57" viewBox="0 0 289 57">
    <g fill="none" fill-rule="evenodd" transform="translate(1 1)">
        <rect width="287" height="54.809" fill="#FFF" fill-opacity=".509" stroke="#FFF" stroke-width=".99" opacity=".153" rx="9.9"/>
        <path fill="#FFF" fill-rule="nonzero" d="M71.347 34.214v.827a6.58 6.58 0 0 1-.513 2.58 7.143 7.143 0 0 1-1.417 2.169 6.83 6.83 0 0 1-2.114 1.507 6.16 6.16 0 0 1-2.607.557c-.794 0-1.601-.11-2.422-.33a5.72 5.72 0 0 1-2.217-1.156c-.657-.55-1.198-1.26-1.622-2.127-.424-.867-.636-1.975-.636-3.324V18.73c0-.963.164-1.858.492-2.684a6.32 6.32 0 0 1 1.396-2.147 6.486 6.486 0 0 1 2.156-1.425c.834-.344 1.758-.516 2.77-.516 1.971 0 3.573.647 4.804 1.941a6.9 6.9 0 0 1 1.417 2.25c.342.868.513 1.81.513 2.83v.66a.99.99 0 0 1-.99.99h-2.208a.99.99 0 0 1-.99-.99v-.413c0-.826-.232-1.542-.698-2.147-.465-.606-1.094-.909-1.888-.909-1.04 0-1.731.324-2.074.97-.342.647-.513 1.466-.513 2.457v15.031c0 .853.185 1.57.555 2.147.369.578 1.033.867 1.99.867.274 0 .569-.048.883-.144.315-.097.61-.255.883-.475.246-.22.452-.523.616-.909.164-.385.246-.867.246-1.445v-.455a.99.99 0 0 1 .99-.99h2.208a.99.99 0 0 1 .99.99zm7.267-15.07c0-1.184.205-2.23.616-3.139.41-.908.958-1.665 1.642-2.271a6.934 6.934 0 0 1 2.237-1.321 7.357 7.357 0 0 1 2.525-.455c.849 0 1.69.152 2.525.455a7.432 7.432 0 0 1 2.279 1.32c.657.607 1.19 1.364 1.6 2.272.411.908.617 1.955.617 3.138V34.67c0 1.239-.206 2.299-.616 3.18-.41.88-.944 1.61-1.601 2.188a7.032 7.032 0 0 1-2.279 1.363 7.357 7.357 0 0 1-2.525.454c-.848 0-1.69-.151-2.525-.454a6.565 6.565 0 0 1-2.015-1.166l-.222-.197c-.684-.578-1.232-1.307-1.642-2.188-.411-.881-.616-1.941-.616-3.18V19.143zM82.8 34.668c0 1.019.28 1.769.842 2.25.561.482 1.225.723 1.991.723.767 0 1.43-.24 1.991-.722.561-.482.842-1.232.842-2.25V19.142c0-1.018-.28-1.768-.842-2.25-.56-.482-1.224-.723-1.99-.723-.767 0-1.43.241-1.992.723-.561.482-.842 1.232-.842 2.25V34.67zm17.654 5.947v-27.42a.99.99 0 0 1 .99-.99h5.21c2.408 0 4.235.66 5.48 1.982 1.246 1.321 1.869 3.193 1.869 5.616v13.75c0 2.753-.664 4.783-1.992 6.091-1.327 1.308-3.236 1.961-5.727 1.961h-4.84a.99.99 0 0 1-.99-.99zm4.188-24.446v21.472h1.93c1.176 0 2.011-.296 2.504-.887.493-.592.739-1.521.739-2.788V19.804c0-1.156-.233-2.05-.698-2.684-.465-.633-1.314-.95-2.546-.95h-1.93zm17.407 24.446v-27.42a.99.99 0 0 1 .99-.99h10.501a.99.99 0 0 1 .99.99v1.984a.99.99 0 0 1-.99.99h-6.313a.99.99 0 0 0-.99.99v6.65c0 .547.443.99.99.99h5.246a.99.99 0 0 1 .99.99v1.984a.99.99 0 0 1-.99.99h-5.246a.99.99 0 0 0-.99.99v6.65c0 .547.443.99.99.99h6.313a.99.99 0 0 1 .99.99v2.232a.99.99 0 0 1-.99.99h-10.5a.99.99 0 0 1-.99-.99zM147.486 40.616v-27.42a.99.99 0 0 1 .99-.99h2.225a.99.99 0 0 1 .99.99V23.81c0 .547.443.99.99.99h3.214a.99.99 0 0 0 .99-.99V13.196a.99.99 0 0 1 .99-.99h2.225a.99.99 0 0 1 .99.99v27.42a.99.99 0 0 1-.99.99h-2.225a.99.99 0 0 1-.99-.99v-11.11a.99.99 0 0 0-.99-.99h-3.214a.99.99 0 0 0-.99.99v11.11a.99.99 0 0 1-.99.99h-2.225a.99.99 0 0 1-.99-.99zm30.14-10.451l-.948-5.437a.99.99 0 0 0-1.952.006l-.91 5.437a.99.99 0 0 0 .976 1.154h1.858a.99.99 0 0 0 .975-1.16zM167.707 40.4l6.113-27.42a.99.99 0 0 1 .966-.775h1.917a.99.99 0 0 1 .966.775l6.114 27.42a.99.99 0 0 1-.967 1.205h-2.155a.99.99 0 0 1-.971-.8l-.924-4.718a.99.99 0 0 0-.971-.8h-4.1a.99.99 0 0 0-.972.8l-.924 4.719a.99.99 0 0 1-.971.8h-2.155a.99.99 0 0 1-.966-1.206zm26.774-23.24v7.186c0 .547.443.99.99.99h1.401c.742 0 1.333-.103 1.773-.31a2.41 2.41 0 0 0 1.03-.887c.22-.386.371-.86.454-1.425a13.72 13.72 0 0 0 .124-1.961c0-.744-.042-1.397-.124-1.962-.083-.564-.247-1.053-.495-1.466-.522-.77-1.511-1.156-2.968-1.156h-1.195a.99.99 0 0 0-.99.99zm-4.122 23.455v-27.42a.99.99 0 0 1 .99-.99h5.77c4.948 0 7.421 2.877 7.421 8.63 0 1.735-.268 3.207-.804 4.419-.536 1.21-1.477 2.188-2.824 2.931l4.093 12.113a.99.99 0 0 1-.938 1.307h-2.344a.99.99 0 0 1-.945-.695l-3.483-11.162a.99.99 0 0 0-.945-.696h-.796a.99.99 0 0 0-.99.99v10.573a.99.99 0 0 1-.99.99h-2.225a.99.99 0 0 1-.99-.99zm21.437 0v-27.42a.99.99 0 0 1 .99-.99h5.152c1.347 0 2.494.207 3.442.62.948.412 1.725.963 2.33 1.651a6.17 6.17 0 0 1 1.298 2.375c.261.894.392 1.823.392 2.787v1.073c0 .799-.062 1.473-.186 2.024a4.872 4.872 0 0 1-.556 1.445c-.468.77-1.182 1.431-2.144 1.982.99.468 1.718 1.156 2.185 2.065.467.908.7 2.147.7 3.716v1.652c0 2.587-.625 4.57-1.875 5.946-1.25 1.376-3.25 2.064-5.998 2.064h-4.74a.99.99 0 0 1-.99-.99zm4.122-11.646v7.435c0 .546.443.99.99.99h.824c.852 0 1.518-.124 2-.372a2.561 2.561 0 0 0 1.092-1.032c.247-.44.398-.964.453-1.57.055-.605.083-1.266.083-1.982 0-.743-.042-1.39-.124-1.94-.083-.55-.247-1.019-.495-1.404a2.373 2.373 0 0 0-1.113-.847c-.467-.179-1.085-.268-1.855-.268h-.865a.99.99 0 0 0-.99.99zm0-11.81v6.114c0 .546.443.99.99.99h.906c1.402 0 2.343-.351 2.824-1.053.481-.702.722-1.728.722-3.077 0-1.321-.268-2.312-.804-2.973-.536-.66-1.505-.99-2.907-.99h-.741a.99.99 0 0 0-.99.99zm16.49 1.983c0-1.183.206-2.23.618-3.138.412-.908.962-1.665 1.65-2.271a6.969 6.969 0 0 1 2.246-1.321 7.415 7.415 0 0 1 2.535-.455c.852 0 1.697.152 2.536.455a7.47 7.47 0 0 1 2.287 1.32c.66.607 1.196 1.364 1.608 2.272.413.908.619 1.955.619 3.138V34.67c0 1.239-.206 2.299-.619 3.18-.412.88-.948 1.61-1.608 2.188a7.067 7.067 0 0 1-2.287 1.363 7.415 7.415 0 0 1-2.536.454 7.415 7.415 0 0 1-2.535-.454 6.598 6.598 0 0 1-2.024-1.166l-.223-.197c-.687-.578-1.237-1.307-1.649-2.188-.412-.881-.618-1.941-.618-3.18V19.143zm4.122 15.526c0 1.019.282 1.769.845 2.25.564.482 1.23.723 2 .723s1.436-.24 2-.722c.563-.482.844-1.232.844-2.25V19.142c0-1.018-.281-1.768-.845-2.25-.563-.482-1.23-.723-2-.723-.769 0-1.435.241-1.999.723-.563.482-.845 1.232-.845 2.25V34.67zm21.973-17.509v7.187c0 .547.443.99.99.99h1.401c.742 0 1.333-.103 1.773-.31a2.41 2.41 0 0 0 1.03-.887c.22-.386.371-.86.454-1.425a13.72 13.72 0 0 0 .123-1.961c0-.744-.04-1.397-.123-1.962-.083-.564-.248-1.053-.495-1.466-.522-.77-1.512-1.156-2.968-1.156h-1.195a.99.99 0 0 0-.99.99zm-4.205 23.456v-27.42a.99.99 0 0 1 .99-.99h5.77c4.948 0 7.421 2.877 7.421 8.63 0 1.735-.268 3.207-.804 4.419-.535 1.21-1.477 2.188-2.823 2.931l4.093 12.113a.99.99 0 0 1-.938 1.307h-2.345a.99.99 0 0 1-.945-.695l-3.482-11.162a.99.99 0 0 0-.946-.696h-.796a.99.99 0 0 0-.99.99v10.573a.99.99 0 0 1-.99.99h-2.225a.99.99 0 0 1-.99-.99z"/>
        <g transform="translate(12.955 12.955)">
            <rect width="12.462" height="4.087" x="4.154" y="24.523" fill="#F7AB05" rx="1.98"/>
            <rect width="21.601" height="4.087" x="9.969" fill="#0FB49C" rx="1.98"/>
            <rect width="21.601" height="4.087" y="16.349" fill="#A21B6B" rx="1.98"/>
            <rect width="6.646" height="4.087" x="24.924" y="16.349" fill="#DF402A" rx="1.98"/>
            <rect width="12.462" height="4.087" y="8.174" fill="#048CB0" rx="1.98"/>
            <rect width="12.462" height="4.087" x="15.785" y="8.174" fill="#563FD8" rx="1.98"/>
        </g>
    </g>
</svg>
