<svg xmlns="http://www.w3.org/2000/svg" width="20" height="16" viewBox="0 0 20 16">
    <path fill="#F7AB05" fill-rule="nonzero" d="M17.94 3.977v.509c0 1.387-.258 2.751-.774 4.092a12.485 12.485 0 0 1-2.201 3.676c-.953 1.11-2.186 2.012-3.7 2.706C9.75 15.653 8.087 16 6.276 16c-2.28 0-4.371-.601-6.276-1.803.312.03.64.046.984.046 1.904 0 3.606-.57 5.105-1.711a4.175 4.175 0 0 1-2.412-.833c-.703-.524-1.179-1.186-1.429-1.988a3.164 3.164 0 0 0 1.827-.092A4 4 0 0 1 1.733 8.23a3.822 3.822 0 0 1-.93-2.307l-.007-.282a4.474 4.474 0 0 0 1.874.508C1.452 5.318.843 4.193.843 2.775c0-.74.187-1.419.562-2.035A11.752 11.752 0 0 0 5.13 3.7a11.655 11.655 0 0 0 4.707 1.248 4.648 4.648 0 0 1-.094-.925c0-1.11.399-2.058 1.195-2.844S12.693 0 13.817 0c1.187 0 2.186.416 2.998 1.249a8.648 8.648 0 0 0 2.623-.971c-.312.955-.921 1.695-1.827 2.22A8.759 8.759 0 0 0 20 1.895a8.745 8.745 0 0 1-2.06 2.08z"/>
</svg>
