<svg xmlns="http://www.w3.org/2000/svg" xmlns:xlink="http://www.w3.org/1999/xlink" width="1920" height="960" viewBox="0 0 1920 960">
    <defs>
        <radialGradient id="b" cx="68.583%" r="78.567%" fx="68.583%" fy="50%" gradientTransform="matrix(.5 0 0 .89662 .343 .052)">
            <stop offset="0%" stop-opacity=".704"/>
            <stop offset="100%" stop-color="#2A2C2F" stop-opacity="0"/>
        </radialGradient>
        <path id="a" d="M0 0h1920v960H0z"/>
        <path id="e" d="M1905 960c14.912 0 27 12.088 27 27s-12.088 27-27 27-27-12.088-27-27 12.088-27 27-27zm-1755 0c0 29.525-23.696 53.516-53.107 53.993L96 1014v-54h54zm-54-54l-108 108V906H96zm216 0v108H204v-26.986l-.004.432C203.758 1002.152 191.763 1014 177 1014c-14.912 0-27-12.088-27-27s12.088-27 27-27c14.763 0 26.758 11.848 26.996 26.554l.004.413v-53.935l-.004.414C203.758 948.152 191.763 960 177 960c-14.912 0-27-12.088-27-27s12.088-27 27-27c14.763 0 26.758 11.848 26.996 26.554l.004.431V906h108zm918 0c29.525 0 53.516 23.696 53.993 53.107l.007.893c0 29.823-24.177 54-54 54-29.525 0-53.516-23.696-53.993-53.107l-.007-.849-.007.84c-.467 29.119-23.983 52.637-53.1 53.109l-.893.007v-54h54c0-29.823 24.177-54 54-54zM798 798v108h-54l-54 108-54-108h54V798h108zm1026 108l-54 108-54-108h108zm54 54c0 29.525-23.696 53.516-53.107 53.993l-.893.007v-54h54zm-964-54c55.228 0 100 44.772 100 100V906h108l-108 108H906v-53.956l-.007.849C905.516 990.304 881.525 1014 852 1014c-29.823 0-54-24.177-54-54s24.177-54 54-54c29.525 0 53.516 23.696 53.993 53.107l.007.86V906h8zm-143 54c14.912 0 27 12.088 27 27s-12.088 27-27 27-27-12.088-27-27 12.088-27 27-27zm837-54v100c0-54.676 43.88-99.104 98.346-99.987L1708 906h8v108h-108l-108-108h108zm-270 0v26.985l.004-.431C1338.242 917.848 1350.237 906 1365 906c14.763 0 26.758 11.848 26.996 26.554l.004.431V906h108v108h-108v-26.986l-.004.432c-.238 14.706-12.233 26.554-26.996 26.554-14.763 0-26.758-11.848-26.996-26.554l-.004-.432V1014l-54-54h54v26.942l.004-.388C1338.242 971.848 1350.237 960 1365 960c14.763 0 26.758 11.848 26.996 26.554l.004.413v-53.935l-.004.414C1391.758 948.152 1379.763 960 1365 960c-14.763 0-26.758-11.848-26.996-26.554l-.004-.389V960l-54-54h54zm-972 54v26.942l.004-.388C366.242 971.848 378.237 960 393 960c14.912 0 27 12.088 27 27s-12.088 27-27 27c-14.763 0-26.758-11.848-26.996-26.554l-.004-.432V1014l-54-54h54zM528-174v100c0-54.676 43.88-99.104 98.346-99.987L628-174h8v108H536c55.228 0 100 44.772 100 100v-46h54l-54 54v108H536c55.228 0 100 44.772 100 100v-46h54l-54 54v108H536c55.228 0 100 44.772 100 100v-46h54l-54 54v108H536c55.228 0 100 44.772 100 100v-46h54l-54 54v108H536c55.228 0 100 44.772 100 100v-46h54l-54 54v108H528L420 906h108v-53.956l-.007.849C527.516 882.304 503.525 906 474 906c-29.525 0-53.516-23.696-53.993-53.107l-.007-.849-.007.84c-.467 29.119-23.983 52.637-53.1 53.109L366 906v-54h54c0-29.823 24.177-54 54-54 29.525 0 53.516 23.696 53.993 53.107l.007.86V798L420 690h108v-53.956l-.007.849C527.516 666.304 503.525 690 474 690c-29.525 0-53.516-23.696-53.993-53.107l-.007-.849-.007.84c-.467 29.119-23.983 52.637-53.1 53.109L366 690v-54h54c0-29.823 24.177-54 54-54 29.525 0 53.516 23.696 53.993 53.107l.007.86V582L420 474h108v-53.956l-.007.849C527.516 450.304 503.525 474 474 474c-29.525 0-53.516-23.696-53.993-53.107l-.007-.849-.007.84c-.467 29.119-23.983 52.637-53.1 53.109L366 474v-54h54c0-29.823 24.177-54 54-54 29.525 0 53.516 23.696 53.993 53.107l.007.86V366L420 258h108v-53.956l-.007.849C527.516 234.304 503.525 258 474 258c-29.525 0-53.516-23.696-53.993-53.107l-.007-.849-.007.84c-.467 29.119-23.983 52.637-53.1 53.109L366 258v-54h54c0-29.823 24.177-54 54-54 29.525 0 53.516 23.696 53.993 53.107l.007.86V150L420 42h108v-53.956l-.007.849C527.516 18.304 503.525 42 474 42c-29.525 0-53.516-23.696-53.993-53.107l-.007-.849-.007.84c-.467 29.119-23.983 52.637-53.1 53.109L366 42v-54h54c0-29.823 24.177-54 54-54 29.525 0 53.516 23.696 53.993 53.107l.007.86V-66L420-174h108zM628 906H528v100c0-54.676 43.88-99.104 98.346-99.987L628 906zm224 27c-14.912 0-27 12.088-27 27s12.088 27 27 27 27-12.088 27-27-12.088-27-27-27zm324-27c0 29.525-23.696 53.516-53.107 53.993L1122 960v-54h54zm-810 0v26.985l.004-.431C366.242 917.848 378.237 906 393 906c14.912 0 27 12.088 27 27s-12.088 27-27 27c-14.763 0-26.758-11.848-26.996-26.554l-.004-.389V960l-54-54h54zm1539 0c14.912 0 27 12.088 27 27s-12.088 27-27 27-27-12.088-27-27 12.088-27 27-27zm-73-108c55.228 0 100 44.772 100 100v8h-54c0 29.525-23.696 53.516-53.107 53.993L1824 960V798h8zM150 906c0 29.525-23.696 53.516-53.107 53.993L96 960v-54h54zm621 0c14.912 0 27 12.088 27 27s-12.088 27-27 27-27-12.088-27-27 12.088-27 27-27zM15 852c14.912 0 27 12.088 27 27s-12.088 27-27 27-27-12.088-27-27 12.088-27 27-27zm1647-54c29.823 0 54 24.177 54 54s-24.177 54-54 54c-29.525 0-53.516-23.696-53.993-53.107l-.007-.849-.007.84c-.467 29.119-23.983 52.637-53.1 53.109L1554 906v-54h54c0-29.823 24.177-54 54-54zm-756 0v108L798 798h108zm918 54l-54 54v-26.986l-.004.432C1769.758 894.152 1757.763 906 1743 906c-14.912 0-27-12.088-27-27s12.088-27 27-27c14.763 0 26.758 11.848 26.996 26.554l.004.413V852h54zm-540 0v26.942l.004-.388C1284.242 863.848 1296.237 852 1311 852c14.912 0 27 12.088 27 27s-12.088 27-27 27c-14.763 0-26.758-11.848-26.996-26.554l-.004-.432V906h-54v-54h54zM150 798L96 906 42 798h108zm1080 0v54h-54c0 29.823-24.177 54-54 54s-54-24.177-54-54 24.177-54 54-54c29.525 0 53.516 23.696 53.993 53.107l.007.86V798h54zm108-108v26.985l.004-.431C1338.242 701.848 1350.237 690 1365 690c14.763 0 26.758 11.848 26.996 26.554l.004.431V690h108v108h54l-108 108v-53.956l-.007.849C1445.516 882.304 1421.525 906 1392 906c-29.823 0-54-24.177-54-54s24.177-54 54-54c29.525 0 53.516 23.696 53.993 53.107l.007.86V798h-54v-26.986l-.004.432C1391.758 786.152 1379.763 798 1365 798c-14.763 0-26.758-11.848-26.996-26.554l-.004-.432V798l-54-54h54v26.942l.004-.388C1338.242 755.848 1350.237 744 1365 744c14.763 0 26.758 11.848 26.996 26.554l.004.413v-53.935l-.004.414C1391.758 732.152 1379.763 744 1365 744c-14.763 0-26.758-11.848-26.996-26.554l-.004-.389V744l-54-54h54zm-1026 0v108h54L258 906v-53.956l-.007.849C257.516 882.304 233.525 906 204 906c-29.823 0-54-24.177-54-54s24.177-54 54-54c29.525 0 53.516 23.696 53.993 53.107l.007.86V798h-54v-26.986l-.004.432C203.758 786.152 191.763 798 177 798c-14.912 0-27-12.088-27-27s12.088-27 27-27c14.763 0 26.758 11.848 26.996 26.554l.004.413v-53.935l-.004.414C203.758 732.152 191.763 744 177 744c-14.912 0-27-12.088-27-27s12.088-27 27-27c14.763 0 26.758 11.848 26.996 26.554l.004.431V690h108zm648 162v26.942l.004-.388C960.242 863.848 972.237 852 987 852c14.763 0 26.758 11.848 26.996 26.554l.004.413V852h54l-54 54v-26.986l-.004.432C1013.758 894.152 1001.763 906 987 906c-14.763 0-26.758-11.848-26.996-26.554l-.004-.432V906l-54-54h54zm162-27c-14.912 0-27 12.088-27 27s12.088 27 27 27 27-12.088 27-27-12.088-27-27-27zm-648 0c-14.912 0-27 12.088-27 27s12.088 27 27 27 27-12.088 27-27-12.088-27-27-27zm1188 0c-14.912 0-27 12.088-27 27s12.088 27 27 27 27-12.088 27-27-12.088-27-27-27zm-351-27c14.912 0 27 12.088 27 27s-12.088 27-27 27-27-12.088-27-27 12.088-27 27-27zM15 798c14.912 0 27 12.088 27 27s-12.088 27-27 27-27-12.088-27-27 12.088-27 27-27zm899-108c55.228 0 100 44.772 100 100V690h108l-108 108h-54v26.985l.004-.431C960.242 809.848 972.237 798 987 798c14.763 0 26.758 11.848 26.996 26.554l.004.431V798h54l-54 54v-26.968l-.004.414C1013.758 840.152 1001.763 852 987 852c-14.763 0-26.758-11.848-26.996-26.554l-.004-.389V852l-54-54v-53.956l-.007.849C905.516 774.304 881.525 798 852 798c-29.823 0-54-24.177-54-54s24.177-54 54-54c29.525 0 53.516 23.696 53.993 53.107l.007.86V690h8zM420 798c0 29.525-23.696 53.516-53.107 53.993L366 852v-54h54zm1188 0c0 29.525-23.696 53.516-53.107 53.993L1554 852v-54h54zm-918 0l-54 54v-54h54zm1134 0l-54 54v-26.968l-.004.414C1769.758 840.152 1757.763 852 1743 852c-14.912 0-27-12.088-27-27s12.088-27 27-27c14.763 0 26.758 11.848 26.996 26.554l.004.431V798h54zM798 582v108h-54l-54 108-54-108h54V582h108zM150 744c0 29.525-23.696 53.516-53.107 53.993L96 798v-54h54zm1674-54l-54 108-54-108h108zm54 54c0 29.525-23.696 53.516-53.107 53.993L1824 798v-54h54zm-270-54v100c0-54.676 43.88-99.104 98.346-99.987L1708 690h8v108h-108l-108-108h108zM96 690L-12 798V690H96zm675 54c14.912 0 27 12.088 27 27s-12.088 27-27 27-27-12.088-27-27 12.088-27 27-27zm-405 0v26.942l.004-.388C366.242 755.848 378.237 744 393 744c14.912 0 27 12.088 27 27s-12.088 27-27 27c-14.763 0-26.758-11.848-26.996-26.554l-.004-.432V798l-54-54h54zm864-54c29.525 0 53.516 23.696 53.993 53.107l.007.893c0 29.823-24.177 54-54 54-29.525 0-53.516-23.696-53.993-53.107l-.007-.849-.007.84c-.467 29.119-23.983 52.637-53.1 53.109L1122 798v-54h54c0-29.823 24.177-54 54-54zm675 54c14.912 0 27 12.088 27 27s-12.088 27-27 27-27-12.088-27-27 12.088-27 27-27zM628 690H528v100c0-54.676 43.88-99.104 98.346-99.987L628 690zm224 27c-14.912 0-27 12.088-27 27s12.088 27 27 27 27-12.088 27-27-12.088-27-27-27zm980-135c55.228 0 100 44.772 100 100v8h-54c0 29.525-23.696 53.516-53.107 53.993L1824 744V582h8zm73 108c14.912 0 27 12.088 27 27s-12.088 27-27 27-27-12.088-27-27 12.088-27 27-27zm-1134 0c14.912 0 27 12.088 27 27s-12.088 27-27 27-27-12.088-27-27 12.088-27 27-27zm-621 0c0 29.525-23.696 53.516-53.107 53.993L96 744v-54h54zm216 0v26.985l.004-.431C366.242 701.848 378.237 690 393 690c14.912 0 27 12.088 27 27s-12.088 27-27 27c-14.763 0-26.758-11.848-26.996-26.554l-.004-.389V744l-54-54h54zm810 0c0 29.525-23.696 53.516-53.107 53.993L1122 744v-54h54zm-216-54v26.942l.004-.388C960.242 647.848 972.237 636 987 636c14.763 0 26.758 11.848 26.996 26.554l.004.413V636h54l-54 54v-26.986l-.004.432C1013.758 678.152 1001.763 690 987 690c-14.763 0-26.758-11.848-26.996-26.554l-.004-.432V690l-54-54h54zm864 0l-54 54v-26.986l-.004.432C1769.758 678.152 1757.763 690 1743 690c-14.912 0-27-12.088-27-27s12.088-27 27-27c14.763 0 26.758 11.848 26.996 26.554l.004.413V636h54zM150 582L96 690 42 582h108zm1512 0c29.823 0 54 24.177 54 54s-24.177 54-54 54c-29.525 0-53.516-23.696-53.993-53.107l-.007-.849-.007.84c-.467 29.119-23.983 52.637-53.1 53.109L1554 690v-54h54c0-29.823 24.177-54 54-54zM312 474v108h54L258 690v-53.956l-.007.849C257.516 666.304 233.525 690 204 690c-29.823 0-54-24.177-54-54s24.177-54 54-54c29.525 0 53.516 23.696 53.993 53.107l.007.86V582h-54v-26.986l-.004.432C203.758 570.152 191.763 582 177 582c-14.912 0-27-12.088-27-27s12.088-27 27-27c14.763 0 26.758 11.848 26.996 26.554l.004.413v-53.935l-.004.414C203.758 516.152 191.763 528 177 528c-14.912 0-27-12.088-27-27s12.088-27 27-27c14.763 0 26.758 11.848 26.996 26.554l.004.431V474h108zm1026 0v26.985l.004-.431C1338.242 485.848 1350.237 474 1365 474c14.763 0 26.758 11.848 26.996 26.554l.004.431V474h108v108h54l-108 108v-53.956l-.007.849C1445.516 666.304 1421.525 690 1392 690c-29.823 0-54-24.177-54-54s24.177-54 54-54c29.525 0 53.516 23.696 53.993 53.107l.007.86V582h-54v-26.986l-.004.432C1391.758 570.152 1379.763 582 1365 582c-14.763 0-26.758-11.848-26.996-26.554l-.004-.432V582l-54-54h54v26.942l.004-.388C1338.242 539.848 1350.237 528 1365 528c14.763 0 26.758 11.848 26.996 26.554l.004.413v-53.935l-.004.414C1391.758 516.152 1379.763 528 1365 528c-14.763 0-26.758-11.848-26.996-26.554l-.004-.389V528l-54-54h54zm-108 108v54h-54c0 29.823-24.177 54-54 54s-54-24.177-54-54 24.177-54 54-54c29.525 0 53.516 23.696 53.993 53.107l.007.86V582h54zm54 54v26.942l.004-.388C1284.242 647.848 1296.237 636 1311 636c14.912 0 27 12.088 27 27s-12.088 27-27 27c-14.763 0-26.758-11.848-26.996-26.554l-.004-.432V690h-54v-54h54zm-378-54v108L798 582h108zM15 636c14.912 0 27 12.088 27 27s-12.088 27-27 27-27-12.088-27-27 12.088-27 27-27zm459-27c-14.912 0-27 12.088-27 27s12.088 27 27 27 27-12.088 27-27-12.088-27-27-27zm648 0c-14.912 0-27 12.088-27 27s12.088 27 27 27 27-12.088 27-27-12.088-27-27-27zm540 0c-14.912 0-27 12.088-27 27s12.088 27 27 27 27-12.088 27-27-12.088-27-27-27zM914 474c55.228 0 100 44.772 100 100V474h108l-108 108h-54v26.985l.004-.431C960.242 593.848 972.237 582 987 582c14.763 0 26.758 11.848 26.996 26.554l.004.431V582h54l-54 54v-26.968l-.004.414C1013.758 624.152 1001.763 636 987 636c-14.763 0-26.758-11.848-26.996-26.554l-.004-.389V636l-54-54v-53.956l-.007.849C905.516 558.304 881.525 582 852 582c-29.823 0-54-24.177-54-54s24.177-54 54-54c29.525 0 53.516 23.696 53.993 53.107l.007.86V474h8zM690 582l-54 54v-54h54zm-675 0c14.912 0 27 12.088 27 27s-12.088 27-27 27-27-12.088-27-27 12.088-27 27-27zm1296 0c14.912 0 27 12.088 27 27s-12.088 27-27 27-27-12.088-27-27 12.088-27 27-27zm-891 0c0 29.525-23.696 53.516-53.107 53.993L366 636v-54h54zm1188 0c0 29.525-23.696 53.516-53.107 53.993L1554 636v-54h54zm216 0l-54 54v-26.968l-.004.414C1769.758 624.152 1757.763 636 1743 636c-14.912 0-27-12.088-27-27s12.088-27 27-27c14.763 0 26.758 11.848 26.996 26.554l.004.431V582h54zm-216-108v100c0-54.676 43.88-99.104 98.346-99.987L1708 474h8v108h-108l-108-108h108zm-378 0c29.525 0 53.516 23.696 53.993 53.107l.007.893c0 29.823-24.177 54-54 54-29.525 0-53.516-23.696-53.993-53.107l-.007-.849-.007.84c-.467 29.119-23.983 52.637-53.1 53.109L1122 582v-54h54c0-29.823 24.177-54 54-54zm-459 54c14.912 0 27 12.088 27 27s-12.088 27-27 27-27-12.088-27-27 12.088-27 27-27zm-621 0c0 29.525-23.696 53.516-53.107 53.993L96 582v-54h54zm-54-54L-12 582V474H96zm1728 0l-54 108-54-108h108zm81 54c14.912 0 27 12.088 27 27s-12.088 27-27 27-27-12.088-27-27 12.088-27 27-27zm-1539 0v26.942l.004-.388C366.242 539.848 378.237 528 393 528c14.912 0 27 12.088 27 27s-12.088 27-27 27c-14.763 0-26.758-11.848-26.996-26.554l-.004-.432V582l-54-54h54zm432-162v108h-54l-54 108-54-108h54V366h108zm1080 162c0 29.525-23.696 53.516-53.107 53.993L1824 582v-54h54zM628 474H528v100c0-54.676 43.88-99.104 98.346-99.987L628 474zm224 27c-14.912 0-27 12.088-27 27s12.088 27 27 27 27-12.088 27-27-12.088-27-27-27zm1053-27c14.912 0 27 12.088 27 27s-12.088 27-27 27-27-12.088-27-27 12.088-27 27-27zm-1134 0c14.912 0 27 12.088 27 27s-12.088 27-27 27-27-12.088-27-27 12.088-27 27-27zm405 0c0 29.525-23.696 53.516-53.107 53.993L1122 528v-54h54zm-810 0v26.985l.004-.431C366.242 485.848 378.237 474 393 474c14.912 0 27 12.088 27 27s-12.088 27-27 27c-14.763 0-26.758-11.848-26.996-26.554l-.004-.389V528l-54-54h54zm-216 0c0 29.525-23.696 53.516-53.107 53.993L96 528v-54h54zm1682-108c55.228 0 100 44.772 100 100v8h-54c0 29.525-23.696 53.516-53.107 53.993L1824 528V366h8zM312 258v108h54L258 474v-53.956l-.007.849C257.516 450.304 233.525 474 204 474c-29.823 0-54-24.177-54-54s24.177-54 54-54c29.525 0 53.516 23.696 53.993 53.107l.007.86V366h-54v-26.986l-.004.432C203.758 354.152 191.763 366 177 366c-14.912 0-27-12.088-27-27s12.088-27 27-27c14.763 0 26.758 11.848 26.996 26.554l.004.413v-53.935l-.004.414C203.758 300.152 191.763 312 177 312c-14.912 0-27-12.088-27-27s12.088-27 27-27c14.763 0 26.758 11.848 26.996 26.554l.004.431V258h108zm1026 0v26.985l.004-.431C1338.242 269.848 1350.237 258 1365 258c14.763 0 26.758 11.848 26.996 26.554l.004.431V258h108v108h54l-108 108v-53.956l-.007.849C1445.516 450.304 1421.525 474 1392 474c-29.823 0-54-24.177-54-54s24.177-54 54-54c29.525 0 53.516 23.696 53.993 53.107l.007.86V366h-54v-26.986l-.004.432C1391.758 354.152 1379.763 366 1365 366c-14.763 0-26.758-11.848-26.996-26.554l-.004-.432V366l-54-54h54v26.942l.004-.388C1338.242 323.848 1350.237 312 1365 312c14.763 0 26.758 11.848 26.996 26.554l.004.413v-53.935l-.004.414C1391.758 300.152 1379.763 312 1365 312c-14.763 0-26.758-11.848-26.996-26.554l-.004-.389V312l-54-54h54zm-54 162v26.942l.004-.388C1284.242 431.848 1296.237 420 1311 420c14.912 0 27 12.088 27 27s-12.088 27-27 27c-14.763 0-26.758-11.848-26.996-26.554l-.004-.432V474h-54v-54h54zm-378-54v108L798 366h108zm54 54v26.942l.004-.388C960.242 431.848 972.237 420 987 420c14.763 0 26.758 11.848 26.996 26.554l.004.413V420h54l-54 54v-26.986l-.004.432C1013.758 462.152 1001.763 474 987 474c-14.763 0-26.758-11.848-26.996-26.554l-.004-.432V474l-54-54h54zm702-54c29.823 0 54 24.177 54 54s-24.177 54-54 54c-29.525 0-53.516-23.696-53.993-53.107l-.007-.849-.007.84c-.467 29.119-23.983 52.637-53.1 53.109L1554 474v-54h54c0-29.823 24.177-54 54-54zM15 420c14.912 0 27 12.088 27 27s-12.088 27-27 27-27-12.088-27-27 12.088-27 27-27zm1809 0l-54 54v-26.986l-.004.432C1769.758 462.152 1757.763 474 1743 474c-14.912 0-27-12.088-27-27s12.088-27 27-27c14.763 0 26.758 11.848 26.996 26.554l.004.413V420h54zm-594-54v54h-54c0 29.823-24.177 54-54 54s-54-24.177-54-54 24.177-54 54-54c29.525 0 53.516 23.696 53.993 53.107l.007.86V366h54zm-1080 0L96 474 42 366h108zm1512 27c-14.912 0-27 12.088-27 27s12.088 27 27 27 27-12.088 27-27-12.088-27-27-27zm-1188 0c-14.912 0-27 12.088-27 27s12.088 27 27 27 27-12.088 27-27-12.088-27-27-27zm648 0c-14.912 0-27 12.088-27 27s12.088 27 27 27 27-12.088 27-27-12.088-27-27-27zM914 258c55.228 0 100 44.772 100 100V258h108l-108 108h-54v26.985l.004-.431C960.242 377.848 972.237 366 987 366c14.763 0 26.758 11.848 26.996 26.554l.004.431V366h54l-54 54v-26.968l-.004.414C1013.758 408.152 1001.763 420 987 420c-14.763 0-26.758-11.848-26.996-26.554l-.004-.389V420l-54-54v-53.956l-.007.849C905.516 342.304 881.525 366 852 366c-29.823 0-54-24.177-54-54s24.177-54 54-54c29.525 0 53.516 23.696 53.993 53.107l.007.86V258h8zM420 366c0 29.525-23.696 53.516-53.107 53.993L366 420v-54h54zm1404 0l-54 54v-26.968l-.004.414C1769.758 408.152 1757.763 420 1743 420c-14.912 0-27-12.088-27-27s12.088-27 27-27c14.763 0 26.758 11.848 26.996 26.554l.004.431V366h54zM15 366c14.912 0 27 12.088 27 27s-12.088 27-27 27-27-12.088-27-27 12.088-27 27-27zm1593 0c0 29.525-23.696 53.516-53.107 53.993L1554 420v-54h54zm-297 0c14.912 0 27 12.088 27 27s-12.088 27-27 27-27-12.088-27-27 12.088-27 27-27zm-621 0l-54 54v-54h54zM96 258L-12 366V258H96zm1134 0c29.525 0 53.516 23.696 53.993 53.107l.007.893c0 29.823-24.177 54-54 54-29.525 0-53.516-23.696-53.993-53.107l-.007-.849-.007.84c-.467 29.119-23.983 52.637-53.1 53.109L1122 366v-54h54c0-29.823 24.177-54 54-54zM798 150v108h-54l-54 108-54-108h54V150h108zm810 108v100c0-54.676 43.88-99.104 98.346-99.987L1708 258h8v108h-108l-108-108h108zm270 54c0 29.525-23.696 53.516-53.107 53.993L1824 366v-54h54zm27 0c14.912 0 27 12.088 27 27s-12.088 27-27 27-27-12.088-27-27 12.088-27 27-27zm-1134 0c14.912 0 27 12.088 27 27s-12.088 27-27 27-27-12.088-27-27 12.088-27 27-27zm-621 0c0 29.525-23.696 53.516-53.107 53.993L96 366v-54h54zm1674-54l-54 108-54-108h108zM366 312v26.942l.004-.388C366.242 323.848 378.237 312 393 312c14.912 0 27 12.088 27 27s-12.088 27-27 27c-14.763 0-26.758-11.848-26.996-26.554l-.004-.432V366l-54-54h54zm262-54H528v100c0-54.676 43.88-99.104 98.346-99.987L628 258zm224 27c-14.912 0-27 12.088-27 27s12.088 27 27 27 27-12.088 27-27-12.088-27-27-27zm-486-27v26.985l.004-.431C366.242 269.848 378.237 258 393 258c14.912 0 27 12.088 27 27s-12.088 27-27 27c-14.763 0-26.758-11.848-26.996-26.554l-.004-.389V312l-54-54h54zm1466-108c55.228 0 100 44.772 100 100v8h-54c0 29.525-23.696 53.516-53.107 53.993L1824 312V150h8zm73 108c14.912 0 27 12.088 27 27s-12.088 27-27 27-27-12.088-27-27 12.088-27 27-27zm-1134 0c14.912 0 27 12.088 27 27s-12.088 27-27 27-27-12.088-27-27 12.088-27 27-27zm405 0c0 29.525-23.696 53.516-53.107 53.993L1122 312v-54h54zm-1026 0c0 29.525-23.696 53.516-53.107 53.993L96 312v-54h54zm1512-108c29.823 0 54 24.177 54 54s-24.177 54-54 54c-29.525 0-53.516-23.696-53.993-53.107l-.007-.849-.007.84c-.467 29.119-23.983 52.637-53.1 53.109L1554 258v-54h54c0-29.823 24.177-54 54-54zM1500 42v108h54l-108 108v-53.956l-.007.849C1445.516 234.304 1421.525 258 1392 258c-29.823 0-54-24.177-54-54s24.177-54 54-54c29.525 0 53.516 23.696 53.993 53.107l.007.86V150h-54v-26.986l-.004.432C1391.758 138.152 1379.763 150 1365 150c-14.763 0-26.758-11.848-26.996-26.554l-.004-.432V150l-54-54h54v26.942l.004-.388C1338.242 107.848 1350.237 96 1365 96c14.763 0 26.758 11.848 26.996 26.554l.004.413V42h108zM960 204v26.942l.004-.388C960.242 215.848 972.237 204 987 204c14.763 0 26.758 11.848 26.996 26.554l.004.413V204h54l-54 54v-26.986l-.004.432C1013.758 246.152 1001.763 258 987 258c-14.763 0-26.758-11.848-26.996-26.554l-.004-.432V258l-54-54h54zm270-54v54h-54c0 29.823-24.177 54-54 54s-54-24.177-54-54 24.177-54 54-54c29.525 0 53.516 23.696 53.993 53.107l.007.86V150h54zm-324 0v108L798 150h108zm918 54l-54 54v-26.986l-.004.432C1769.758 246.152 1757.763 258 1743 258c-14.912 0-27-12.088-27-27s12.088-27 27-27c14.763 0 26.758 11.848 26.996 26.554l.004.413V204h54zM15 204c14.912 0 27 12.088 27 27s-12.088 27-27 27-27-12.088-27-27 12.088-27 27-27zm135-54L96 258 42 150h108zm1134 54v26.942l.004-.388C1284.242 215.848 1296.237 204 1311 204c14.912 0 27 12.088 27 27s-12.088 27-27 27c-14.763 0-26.758-11.848-26.996-26.554l-.004-.432V258h-54v-54h54zM312 42v108h54L258 258v-53.956l-.007.849C257.516 234.304 233.525 258 204 258c-29.823 0-54-24.177-54-54s24.177-54 54-54c29.525 0 53.516 23.696 53.993 53.107l.007.86V150h-54v-26.986l-.004.432C203.758 138.152 191.763 150 177 150c-14.912 0-27-12.088-27-27s12.088-27 27-27c14.763 0 26.758 11.848 26.996 26.554l.004.413V42h108zm1350 135c-14.912 0-27 12.088-27 27s12.088 27 27 27 27-12.088 27-27-12.088-27-27-27zm-540 0c-14.912 0-27 12.088-27 27s12.088 27 27 27 27-12.088 27-27-12.088-27-27-27zm-648 0c-14.912 0-27 12.088-27 27s12.088 27 27 27 27-12.088 27-27-12.088-27-27-27zm837-27c14.912 0 27 12.088 27 27s-12.088 27-27 27-27-12.088-27-27 12.088-27 27-27zM914 42c55.228 0 100 44.772 100 100V42h108l-108 108h-54v26.985l.004-.431C960.242 161.848 972.237 150 987 150c14.763 0 26.758 11.848 26.996 26.554l.004.431V150h54l-54 54v-26.968l-.004.414C1013.758 192.152 1001.763 204 987 204c-14.763 0-26.758-11.848-26.996-26.554l-.004-.389V204l-54-54V96.044l-.007.849C905.516 126.304 881.525 150 852 150c-29.823 0-54-24.177-54-54s24.177-54 54-54c29.525 0 53.516 23.696 53.993 53.107L906 96V42h8zm910 108l-54 54v-26.968l-.004.414C1769.758 192.152 1757.763 204 1743 204c-14.912 0-27-12.088-27-27s12.088-27 27-27c14.763 0 26.758 11.848 26.996 26.554l.004.431V150h54zm-216 0c0 29.525-23.696 53.516-53.107 53.993L1554 204v-54h54zm-1188 0c0 29.525-23.696 53.516-53.107 53.993L366 204v-54h54zm270 0l-54 54v-54h54zm-675 0c14.912 0 27 12.088 27 27s-12.088 27-27 27-27-12.088-27-27 12.088-27 27-27zm351-54v26.942l.004-.388C366.242 107.848 378.237 96 393 96c14.912 0 27 12.088 27 27s-12.088 27-27 27c-14.763 0-26.758-11.848-26.996-26.554l-.004-.432V150l-54-54h54zM798-66V42h-54l-54 108-54-108h54V-66h108zM1824 42l-54 108-54-108h108zm-216 0v100c0-54.676 43.88-99.104 98.346-99.987L1708 42h8v108h-108L1500 42h108zM96 42L-12 150V42H96zm1134 0c29.525 0 53.516 23.696 53.993 53.107L1284 96c0 29.823-24.177 54-54 54-29.525 0-53.516-23.696-53.993-53.107l-.007-.849-.007.84c-.467 29.119-23.983 52.637-53.1 53.109L1122 150V96h54c0-29.823 24.177-54 54-54zM771 96c14.912 0 27 12.088 27 27s-12.088 27-27 27-27-12.088-27-27 12.088-27 27-27zm-621 0c0 29.525-23.696 53.516-53.107 53.993L96 150V96h54zm1728 0c0 29.525-23.696 53.516-53.107 53.993L1824 150V96h54zm27 0c14.912 0 27 12.088 27 27s-12.088 27-27 27-27-12.088-27-27 12.088-27 27-27zM628 42H528v100c0-54.676 43.88-99.104 98.346-99.987L628 42zm224 27c-14.912 0-27 12.088-27 27s12.088 27 27 27 27-12.088 27-27-12.088-27-27-27zm-81-27c14.912 0 27 12.088 27 27s-12.088 27-27 27-27-12.088-27-27 12.088-27 27-27zm-621 0c0 29.525-23.696 53.516-53.107 53.993L96 96V42h54zM1832-66c55.228 0 100 44.772 100 100v8h-54c0 29.525-23.696 53.516-53.107 53.993L1824 96V-66h8zM1365 42c14.912 0 27 12.088 27 27s-12.088 27-27 27-27-12.088-27-27 12.088-27 27-27zm-999 0v54l-54-54h54zm27 0c14.912 0 27 12.088 27 27s-12.088 27-27 27-27-12.088-27-27 12.088-27 27-27zm783 0c0 29.525-23.696 53.516-53.107 53.993L1122 96V42h54zm-999 0c14.912 0 27 12.088 27 27s-12.088 27-27 27-27-12.088-27-27 12.088-27 27-27zm1161 0v54l-54-54h54zm567 0c14.912 0 27 12.088 27 27s-12.088 27-27 27-27-12.088-27-27 12.088-27 27-27zM15-12C29.912-12 42 .088 42 15S29.912 42 15 42s-27-12.088-27-27S.088-12 15-12zm1269 0v26.942l.004-.388C1284.242-.152 1296.237-12 1311-12c14.912 0 27 12.088 27 27s-12.088 27-27 27c-14.763 0-26.758-11.848-26.996-26.554l-.004-.432V42h-54v-54h54zm540 0l-54 54V15.014l-.004.432C1769.758 30.152 1757.763 42 1743 42c-14.912 0-27-12.088-27-27s12.088-27 27-27c14.763 0 26.758 11.848 26.996 26.554l.004.413V-12h54zm-486-162v26.985l.004-.431C1338.242-162.152 1350.237-174 1365-174c14.763 0 26.758 11.848 26.996 26.554l.004.431V-174h108v108h54L1446 42v-53.956l-.007.849C1445.516 18.304 1421.525 42 1392 42c-29.823 0-54-24.177-54-54s24.177-54 54-54c29.525 0 53.516 23.696 53.993 53.107l.007.86V-66h-54v-26.986l-.004.432C1391.758-77.848 1379.763-66 1365-66c-14.763 0-26.758-11.848-26.996-26.554l-.004-.432V-66l-54-54h54v27c0-14.912 12.088-27 27-27 14.763 0 26.758 11.848 26.996 26.554L1392-93v-54l-.004.446C1391.758-131.848 1379.763-120 1365-120c-14.912 0-27-12.088-27-27v27l-54-54h54zm-1026 0v108h54L258 42v-53.956l-.007.849C257.516 18.304 233.525 42 204 42c-29.823 0-54-24.177-54-54s24.177-54 54-54c29.525 0 53.516 23.696 53.993 53.107l.007.86V-66h-54v-81l-.004.446C203.758-131.848 191.763-120 177-120c-14.912 0-27-12.088-27-27s12.088-27 27-27c14.763 0 26.758 11.848 26.996 26.554l.004.431V-174h108zM960-12v26.942l.004-.388C960.242-.152 972.237-12 987-12c14.763 0 26.758 11.848 26.996 26.554l.004.413V-12h54l-54 54V15.014l-.004.432C1013.758 30.152 1001.763 42 987 42c-14.763 0-26.758-11.848-26.996-26.554l-.004-.432V42l-54-54h54zm-54-54V42L798-66h108zm756 0c29.823 0 54 24.177 54 54s-24.177 54-54 54c-29.525 0-53.516-23.696-53.993-53.107l-.007-.849-.007.84c-.467 29.119-23.983 52.637-53.1 53.109L1554 42v-54h54c0-29.823 24.177-54 54-54zM150-66L96 42 42-66h108zm1080 0v54h-54c0 29.823-24.177 54-54 54s-54-24.177-54-54 24.177-54 54-54c29.525 0 53.516 23.696 53.993 53.107l.007.86V-66h54zm-108 27c-14.912 0-27 12.088-27 27s12.088 27 27 27 27-12.088 27-27-12.088-27-27-27zm-648 0c-14.912 0-27 12.088-27 27s12.088 27 27 27 27-12.088 27-27-12.088-27-27-27zm1188 0c-14.912 0-27 12.088-27 27s12.088 27 27 27 27-12.088 27-27-12.088-27-27-27zM420-66c0 29.525-23.696 53.516-53.107 53.993L366-12v-54h54zm1404 0l-54 54v-26.968l-.004.414C1769.758-23.848 1757.763-12 1743-12c-14.912 0-27-12.088-27-27s12.088-27 27-27c14.763 0 26.758 11.848 26.996 26.554l.004.431V-66h54zM914-174c55.228 0 100 44.772 100 100v-100h108L1014-66h-54v26.985l.004-.431C960.242-54.152 972.237-66 987-66c14.763 0 26.758 11.848 26.996 26.554l.004.431V-66h54l-54 54v-26.968l-.004.414C1013.758-23.848 1001.763-12 987-12c-14.763 0-26.758-11.848-26.996-26.554l-.004-.389V-12l-54-54v-53.956l-.007.849C905.516-89.696 881.525-66 852-66c-29.823 0-54-24.177-54-54s24.177-54 54-54c29.525 0 53.516 23.696 53.993 53.107l.007.86V-174h8zM690-66l-54 54v-54h54zm621 0c14.912 0 27 12.088 27 27s-12.088 27-27 27-27-12.088-27-27 12.088-27 27-27zm297 0c0 29.525-23.696 53.516-53.107 53.993L1554-12v-54h54zM15-66c14.912 0 27 12.088 27 27S29.912-12 15-12s-27-12.088-27-27S.088-66 15-66zm351-54v54l-54-54h54zm-189 0c14.912 0 27 12.088 27 27s-12.088 27-27 27-27-12.088-27-27 12.088-27 27-27zm-81-54L-12-66v-108H96zm1134 0c29.525 0 53.516 23.696 53.993 53.107l.007.893c0 29.823-24.177 54-54 54-29.525 0-53.516-23.696-53.993-53.107l-.007-.849-.007.84c-.467 29.119-23.983 52.637-53.1 53.109L1122-66v-54h54c0-29.823 24.177-54 54-54zm594 0l-54 108-54-108h108zM150-120c0 29.525-23.696 53.516-53.107 53.993L96-66v-54h54zm1755 0c14.912 0 27 12.088 27 27s-12.088 27-27 27-27-12.088-27-27 12.088-27 27-27zm-1512 0c14.912 0 27 12.088 27 27s-12.088 27-27 27-27-12.088-27-27 12.088-27 27-27zm351-54L690-66l-54-108h108zm1134 54c0 29.525-23.696 53.516-53.107 53.993L1824-66v-54h54zm-1107 0c14.912 0 27 12.088 27 27s-12.088 27-27 27-27-12.088-27-27 12.088-27 27-27zm837-54v100c0-54.676 43.88-99.104 98.346-99.987L1708-174h8v108h-108l-108-108h108zm-1458 0c0 29.525-23.696 53.516-53.107 53.993L96-120v-54h54zm1026 0c0 29.525-23.696 53.516-53.107 53.993L1122-120v-54h54zm702 0c0 29.525-23.696 53.516-53.107 53.993L1824-120v-54h54zm-1512 0v26.985l.004-.431C366.242-162.152 378.237-174 393-174c14.912 0 27 12.088 27 27s-12.088 27-27 27-27-12.088-27-27v27l-54-54h54zm405 0c14.912 0 27 12.088 27 27s-12.088 27-27 27-27-12.088-27-27 12.088-27 27-27zm1134 0c14.912 0 27 12.088 27 27s-12.088 27-27 27-27-12.088-27-27 12.088-27 27-27z"/>
        <filter id="d" width="102.8%" height="104.5%" x="-1.1%" y="-2.8%" filterUnits="objectBoundingBox">
            <feOffset dx="6" dy="-6" in="SourceAlpha" result="shadowOffsetOuter1"/>
            <feGaussianBlur in="shadowOffsetOuter1" result="shadowBlurOuter1" stdDeviation="8"/>
            <feComposite in="shadowBlurOuter1" in2="SourceAlpha" operator="out" result="shadowBlurOuter1"/>
            <feColorMatrix in="shadowBlurOuter1" values="0 0 0 0 0 0 0 0 0 0 0 0 0 0 0 0 0 0 0.1 0"/>
        </filter>
    </defs>
    <g fill="none" fill-rule="evenodd">
        <path fill="#151517" d="M0 0h1920v960H0z"/>
        <mask id="c" fill="#fff">
            <use xlink:href="#a"/>
        </mask>
        <use fill="url(#b)" xlink:href="#a"/>
        <g mask="url(#c)" opacity=".321" transform="matrix(1 0 0 -1 0 840)">
            <use fill="#000" filter="url(#d)" xlink:href="#e"/>
            <use fill="#0FB49C" fill-opacity=".703" xlink:href="#e"/>
        </g>
    </g>
</svg>
