<svg xmlns="http://www.w3.org/2000/svg" width="40" height="40" viewBox="0 0 40 40">
    <g fill="none" fill-rule="evenodd">
        <circle cx="20" cy="20" r="20" fill="#F5F6FA"/>
        <path stroke="#F7AB05" stroke-dasharray="2,3" d="M20 35c8.284 0 15-6.716 15-15 0-8.284-6.716-15-15-15-8.284 0-15 6.716-15 15 0 8.284 6.716 15 15 15z"/>
        <path fill="#DF402A" fill-rule="nonzero" d="M19.5 27c1.516 0 2.812-.513 3.887-1.538C24.462 24.436 25 23.205 25 21.769c0-1.743-.398-3.374-1.194-4.892A11.77 11.77 0 0 0 20.548 13l.13.492c.085.308.166.723.241 1.246.076.524.113 1 .113 1.431 0 .677-.215 1.252-.645 1.723-.43.472-.99.708-1.677.708-.71 0-1.307-.236-1.79-.708a2.316 2.316 0 0 1-.726-1.723l.032-.246C14.742 17.605 14 19.553 14 21.77c0 1.436.538 2.667 1.613 3.693C16.688 26.487 17.983 27 19.5 27z"/>
        <path fill="#FFCF65" fill-rule="nonzero" d="M18.988 25c-.546 0-1.013-.207-1.403-.622-.39-.415-.585-.92-.585-1.516 0-.532.151-.984.453-1.357.302-.372.736-.622 1.301-.75 1.326-.298 2.281-.883 2.866-1.755a9.79 9.79 0 0 1 .38 2.745c0 .893-.292 1.66-.877 2.298-.585.638-1.296.957-2.135.957z"/>
    </g>
</svg>
