<svg xmlns="http://www.w3.org/2000/svg" width="109" height="77" viewBox="0 0 109 77">
    <g fill="none" fill-rule="evenodd">
        <path fill="#A21B6B" d="M1.573 46.074l44.089-22.811a1.4 1.4 0 0 1 1.217-.033l61.247 27.556a1.4 1.4 0 0 1 .069 2.52L64.106 76.117a1.4 1.4 0 0 1-1.218.034L1.642 48.594a1.4 1.4 0 0 1-.069-2.52z"/>
        <path fill="#DF402A" d="M1.573 34.598l44.089-22.811a1.4 1.4 0 0 1 1.217-.033l61.247 27.556a1.4 1.4 0 0 1 .069 2.52L64.106 64.64a1.4 1.4 0 0 1-1.218.033L1.642 37.118a1.4 1.4 0 0 1-.069-2.52z"/>
        <path fill="#F7AB05" d="M1.573 23.122L45.662.311a1.4 1.4 0 0 1 1.217-.033l61.247 27.556a1.4 1.4 0 0 1 .069 2.52L64.106 53.165a1.4 1.4 0 0 1-1.218.033L1.642 25.642a1.4 1.4 0 0 1-.069-2.52z"/>
        <path fill="#F3A805" d="M18.233 23.794l29.999-15.64a1.4 1.4 0 0 1 1.225-.034l42.008 19.046a1.4 1.4 0 0 1 .07 2.516l-29.999 15.64a1.4 1.4 0 0 1-1.225.035L18.303 26.31a1.4 1.4 0 0 1-.07-2.516z"/>
    </g>
</svg>
