<svg xmlns="http://www.w3.org/2000/svg" width="113" height="92" viewBox="0 0 113 92">
    <g fill="none" fill-rule="evenodd">
        <g fill="#563FD8" transform="translate(0 34.4)">
            <circle cx="22.12" cy="13.16" r="13.16"/>
            <path d="M31.192 27.705c7.692 3.472 13.048 11.224 13.048 20.23 0 12.247-44.24 12.247-44.24 0 0-9.006 5.356-16.758 13.048-20.23A14.771 14.771 0 0 0 22.12 30.8c3.362 0 6.464-1.118 8.952-3.003z"/>
        </g>
        <g fill="#0FB47A" transform="translate(68 4)">
            <circle cx="22.12" cy="13.16" r="13.16"/>
            <path d="M31.192 27.705c7.692 3.472 13.048 11.224 13.048 20.23 0 12.247-44.24 12.247-44.24 0 0-9.006 5.356-16.758 13.048-20.23A14.771 14.771 0 0 0 22.12 30.8c3.362 0 6.464-1.118 8.952-3.003z"/>
        </g>
        <path fill="#563FD8" d="M20 1.6A1.6 1.6 0 0 1 21.6 0h41.6a1.6 1.6 0 0 1 1.6 1.6v19.2a1.6 1.6 0 0 1-1.6 1.6H28.8l-6.069 6.069A1.6 1.6 0 0 1 20 27.337V1.6z" opacity=".2"/>
    </g>
</svg>
