<svg width="126" height="126" viewBox="0 0 126 126" fill="none" xmlns="http://www.w3.org/2000/svg">
<g clip-path="url(#clip0)">
<path d="M41.7234 81.3133C41.7234 85.4619 38.3601 88.8253 34.2115 88.8253C30.0628 88.8253 26.6995 85.4619 26.6995 81.3133C26.6995 77.1646 30.0628 73.8013 34.2115 73.8013C38.3601 73.8013 41.7234 77.1646 41.7234 81.3133Z" fill="#26783D"/>
<path d="M37.7081 81.3133C37.7081 83.2394 36.1376 84.81 34.2114 84.81C32.2853 84.81 30.7147 83.2394 30.7147 81.3133C30.7147 79.3871 32.2853 77.8166 34.2114 77.8166C36.1376 77.8166 37.7081 79.3871 37.7081 81.3133Z" fill="#26783D"/>
<path d="M35.2042 75.7126C35.2042 76.2608 34.7597 76.7053 34.2115 76.7053C33.6632 76.7053 33.2188 76.2608 33.2188 75.7126C33.2188 75.1644 33.6632 74.7199 34.2115 74.7199C34.7597 74.7199 35.2042 75.1644 35.2042 75.7126Z" fill="#26783D"/>
<path d="M34.2115 87.9066C34.7597 87.9066 35.2042 87.4622 35.2042 86.9139C35.2042 86.3657 34.7597 85.9212 34.2115 85.9212C33.6632 85.9212 33.2188 86.3657 33.2188 86.9139C33.2188 87.4622 33.6632 87.9066 34.2115 87.9066Z" fill="#26783D"/>
<path d="M39.8121 82.306C39.2638 82.306 38.8193 81.8615 38.8193 81.3133C38.8193 80.7651 39.2638 80.3206 39.8121 80.3206C40.3603 80.3206 40.8048 80.7651 40.8048 81.3133C40.8048 81.8615 40.3603 82.306 39.8121 82.306Z" fill="#26783D"/>
<path d="M28.6108 82.306C28.0625 82.306 27.618 81.8615 27.618 81.3133C27.618 80.7651 28.0625 80.3206 28.6108 80.3206C29.159 80.3206 29.6035 80.7651 29.6035 81.3133C29.6035 81.8615 29.159 82.306 28.6108 82.306Z" fill="#26783D"/>
<path d="M37.4711 85.9805C37.0858 85.5953 37.0858 84.9581 37.4711 84.5729C37.8563 84.1877 38.4934 84.1877 38.8786 84.5729C39.2639 84.9581 39.2639 85.5953 38.8786 85.9805C38.4786 86.3657 37.8563 86.3657 37.4711 85.9805Z" fill="#26783D"/>
<path d="M30.2554 78.35C30.8037 78.35 31.2481 77.9055 31.2481 77.3572C31.2481 76.809 30.8037 76.3645 30.2554 76.3645C29.7071 76.3645 29.2627 76.809 29.2627 77.3572C29.2627 77.9055 29.7071 78.35 30.2554 78.35Z" fill="#26783D"/>
<path d="M38.8786 78.0536C38.4934 78.4388 37.8563 78.4388 37.4711 78.0536C37.0858 77.6684 37.0858 77.0313 37.4711 76.646C37.8563 76.2608 38.4934 76.2608 38.8786 76.646C39.2639 77.0313 39.2639 77.6684 38.8786 78.0536Z" fill="#26783D"/>
<path d="M30.2554 86.262C30.8037 86.262 31.2481 85.8175 31.2481 85.2693C31.2481 84.721 30.8037 84.2766 30.2554 84.2766C29.7071 84.2766 29.2627 84.721 29.2627 85.2693C29.2627 85.8175 29.7071 86.262 30.2554 86.262Z" fill="#26783D"/>
<path d="M41.7234 81.3133C41.7234 85.4619 38.3601 88.8253 34.2115 88.8253C30.0628 88.8253 26.6995 85.4619 26.6995 81.3133C26.6995 77.1646 30.0628 73.8013 34.2115 73.8013C38.3601 73.8013 41.7234 77.1646 41.7234 81.3133Z" stroke="black" stroke-miterlimit="10" stroke-linecap="round" stroke-linejoin="round"/>
<path d="M37.7081 81.3133C37.7081 83.2394 36.1376 84.81 34.2114 84.81C32.2853 84.81 30.7147 83.2394 30.7147 81.3133C30.7147 79.3871 32.2853 77.8166 34.2114 77.8166C36.1376 77.8166 37.7081 79.3871 37.7081 81.3133Z" stroke="black" stroke-miterlimit="10" stroke-linecap="round" stroke-linejoin="round"/>
<path d="M35.2042 75.7126C35.2042 76.2608 34.7597 76.7053 34.2115 76.7053C33.6632 76.7053 33.2188 76.2608 33.2188 75.7126C33.2188 75.1644 33.6632 74.7199 34.2115 74.7199C34.7597 74.7199 35.2042 75.1644 35.2042 75.7126Z" stroke="black" stroke-miterlimit="10" stroke-linecap="round" stroke-linejoin="round"/>
<path d="M34.2115 87.9066C34.7597 87.9066 35.2042 87.4622 35.2042 86.9139C35.2042 86.3657 34.7597 85.9212 34.2115 85.9212C33.6632 85.9212 33.2188 86.3657 33.2188 86.9139C33.2188 87.4622 33.6632 87.9066 34.2115 87.9066Z" stroke="black" stroke-miterlimit="10" stroke-linecap="round" stroke-linejoin="round"/>
<path d="M39.8121 82.306C39.2638 82.306 38.8193 81.8615 38.8193 81.3133C38.8193 80.7651 39.2638 80.3206 39.8121 80.3206C40.3603 80.3206 40.8048 80.7651 40.8048 81.3133C40.8048 81.8615 40.3603 82.306 39.8121 82.306Z" stroke="black" stroke-miterlimit="10" stroke-linecap="round" stroke-linejoin="round"/>
<path d="M28.6108 82.306C28.0625 82.306 27.618 81.8615 27.618 81.3133C27.618 80.7651 28.0625 80.3206 28.6108 80.3206C29.159 80.3206 29.6035 80.7651 29.6035 81.3133C29.6035 81.8615 29.159 82.306 28.6108 82.306Z" stroke="black" stroke-miterlimit="10" stroke-linecap="round" stroke-linejoin="round"/>
<path d="M37.4711 85.9805C37.0858 85.5953 37.0858 84.9581 37.4711 84.5729C37.8563 84.1877 38.4934 84.1877 38.8786 84.5729C39.2639 84.9581 39.2639 85.5953 38.8786 85.9805C38.4786 86.3657 37.8563 86.3657 37.4711 85.9805Z" stroke="black" stroke-miterlimit="10" stroke-linecap="round" stroke-linejoin="round"/>
<path d="M30.2554 78.35C30.8037 78.35 31.2481 77.9055 31.2481 77.3572C31.2481 76.809 30.8037 76.3645 30.2554 76.3645C29.7071 76.3645 29.2627 76.809 29.2627 77.3572C29.2627 77.9055 29.7071 78.35 30.2554 78.35Z" stroke="black" stroke-miterlimit="10" stroke-linecap="round" stroke-linejoin="round"/>
<path d="M38.8786 78.0536C38.4934 78.4388 37.8563 78.4388 37.4711 78.0536C37.0858 77.6684 37.0858 77.0313 37.4711 76.646C37.8563 76.2608 38.4934 76.2608 38.8786 76.646C39.2639 77.0313 39.2639 77.6684 38.8786 78.0536Z" stroke="black" stroke-miterlimit="10" stroke-linecap="round" stroke-linejoin="round"/>
<path d="M30.2554 86.262C30.8037 86.262 31.2481 85.8175 31.2481 85.2693C31.2481 84.721 30.8037 84.2766 30.2554 84.2766C29.7071 84.2766 29.2627 84.721 29.2627 85.2693C29.2627 85.8175 29.7071 86.262 30.2554 86.262Z" stroke="black" stroke-miterlimit="10" stroke-linecap="round" stroke-linejoin="round"/>
<path d="M50.2946 103.995C54.1064 102.357 55.8688 97.9395 54.2308 94.1276C52.5929 90.3157 48.175 88.5534 44.3631 90.1913C40.5512 91.8293 38.7889 96.2472 40.4268 100.059C42.0647 103.871 46.4827 105.633 50.2946 103.995Z" fill="#26783D"/>
<path d="M50.8209 97.0929C50.8209 99.0191 49.2504 100.59 47.3242 100.59C45.3981 100.59 43.8275 99.0191 43.8275 97.0929C43.8275 95.1667 45.3981 93.5962 47.3242 93.5962C49.2504 93.5962 50.8209 95.1519 50.8209 97.0929Z" fill="#26783D"/>
<path d="M48.317 91.4923C48.317 92.0405 47.8725 92.485 47.3242 92.485C46.776 92.485 46.3315 92.0405 46.3315 91.4923C46.3315 90.944 46.776 90.4995 47.3242 90.4995C47.8725 90.4847 48.317 90.9292 48.317 91.4923Z" fill="#26783D"/>
<path d="M48.317 102.694C48.317 103.242 47.8725 103.686 47.3242 103.686C46.776 103.686 46.3315 103.242 46.3315 102.694C46.3315 102.145 46.776 101.701 47.3242 101.701C47.8725 101.686 48.317 102.131 48.317 102.694Z" fill="#26783D"/>
<path d="M52.9248 98.0856C52.3766 98.0856 51.9321 97.6411 51.9321 97.0929C51.9321 96.5447 52.3766 96.1002 52.9248 96.1002C53.473 96.1002 53.9175 96.5447 53.9175 97.0929C53.9175 97.6411 53.473 98.0856 52.9248 98.0856Z" fill="#26783D"/>
<path d="M41.7235 98.0856C41.1753 98.0856 40.7308 97.6411 40.7308 97.0929C40.7308 96.5447 41.1753 96.1002 41.7235 96.1002C42.2718 96.1002 42.7163 96.5447 42.7163 97.0929C42.7163 97.6411 42.2718 98.0856 41.7235 98.0856Z" fill="#26783D"/>
<path d="M51.2802 102.042C51.8284 102.042 52.2729 101.597 52.2729 101.049C52.2729 100.501 51.8284 100.056 51.2802 100.056C50.7319 100.056 50.2875 100.501 50.2875 101.049C50.2875 101.597 50.7319 102.042 51.2802 102.042Z" fill="#26783D"/>
<path d="M43.3682 94.1148C43.9165 94.1148 44.3609 93.6703 44.3609 93.1221C44.3609 92.5738 43.9165 92.1294 43.3682 92.1294C42.8199 92.1294 42.3755 92.5738 42.3755 93.1221C42.3755 93.6703 42.8199 94.1148 43.3682 94.1148Z" fill="#26783D"/>
<path d="M51.2802 94.1148C51.8284 94.1148 52.2729 93.6703 52.2729 93.1221C52.2729 92.5738 51.8284 92.1294 51.2802 92.1294C50.7319 92.1294 50.2875 92.5738 50.2875 93.1221C50.2875 93.6703 50.7319 94.1148 51.2802 94.1148Z" fill="#26783D"/>
<path d="M43.3682 102.042C43.9165 102.042 44.3609 101.597 44.3609 101.049C44.3609 100.501 43.9165 100.056 43.3682 100.056C42.8199 100.056 42.3755 100.501 42.3755 101.049C42.3755 101.597 42.8199 102.042 43.3682 102.042Z" fill="#26783D"/>
<path d="M84.7655 81.3133C84.7655 85.4619 88.1289 88.8253 92.2775 88.8253C96.4261 88.8253 99.7895 85.4619 99.7895 81.3133C99.7895 77.1646 96.4261 73.8013 92.2775 73.8013C88.1289 73.8013 84.7655 77.1646 84.7655 81.3133Z" fill="#26783D"/>
<path d="M88.7808 81.3133C88.7808 83.2394 90.3513 84.81 92.2775 84.81C94.2036 84.81 95.7742 83.2394 95.7742 81.3133C95.7742 79.3871 94.2036 77.8166 92.2775 77.8166C90.3513 77.8166 88.7808 79.3871 88.7808 81.3133Z" fill="#26783D"/>
<path d="M91.2699 75.7126C91.2699 76.2608 91.7144 76.7053 92.2626 76.7053C92.8108 76.7053 93.2553 76.2608 93.2553 75.7126C93.2553 75.1644 92.8108 74.7199 92.2626 74.7199C91.7144 74.7199 91.2699 75.1644 91.2699 75.7126Z" fill="#26783D"/>
<path d="M91.2699 86.9139C91.2699 87.4621 91.7144 87.9066 92.2626 87.9066C92.8108 87.9066 93.2553 87.4621 93.2553 86.9139C93.2553 86.3657 92.8108 85.9212 92.2626 85.9212C91.7144 85.9212 91.2699 86.3657 91.2699 86.9139Z" fill="#26783D"/>
<path d="M86.6768 82.306C87.225 82.306 87.6695 81.8615 87.6695 81.3133C87.6695 80.7651 87.225 80.3206 86.6768 80.3206C86.1286 80.3206 85.6841 80.7651 85.6841 81.3133C85.6693 81.8615 86.1138 82.306 86.6768 82.306Z" fill="#26783D"/>
<path d="M97.8633 82.306C98.4115 82.306 98.856 81.8615 98.856 81.3133C98.856 80.7651 98.4115 80.3206 97.8633 80.3206C97.3151 80.3206 96.8706 80.7651 96.8706 81.3133C96.8706 81.8615 97.3151 82.306 97.8633 82.306Z" fill="#26783D"/>
<path d="M88.3066 86.262C88.8548 86.262 89.2993 85.8175 89.2993 85.2693C89.2993 84.721 88.8548 84.2766 88.3066 84.2766C87.7583 84.2766 87.3138 84.721 87.3138 85.2693C87.3138 85.8175 87.7583 86.262 88.3066 86.262Z" fill="#26783D"/>
<path d="M96.2334 78.35C96.7817 78.35 97.2262 77.9055 97.2262 77.3572C97.2262 76.809 96.7817 76.3645 96.2334 76.3645C95.6852 76.3645 95.2407 76.809 95.2407 77.3572C95.2407 77.9055 95.6852 78.35 96.2334 78.35Z" fill="#26783D"/>
<path d="M88.3066 78.35C88.8548 78.35 89.2993 77.9055 89.2993 77.3572C89.2993 76.809 88.8548 76.3645 88.3066 76.3645C87.7583 76.3645 87.3138 76.809 87.3138 77.3572C87.3138 77.9055 87.7583 78.35 88.3066 78.35Z" fill="#26783D"/>
<path d="M96.2334 86.262C96.7817 86.262 97.2262 85.8175 97.2262 85.2693C97.2262 84.721 96.7817 84.2766 96.2334 84.2766C95.6852 84.2766 95.2407 84.721 95.2407 85.2693C95.2407 85.8175 95.6852 86.262 96.2334 86.262Z" fill="#26783D"/>
<path d="M80.9873 101.938C85.1361 101.938 88.4993 98.5747 88.4993 94.4259C88.4993 90.2771 85.1361 86.9139 80.9873 86.9139C76.8386 86.9139 73.4753 90.2771 73.4753 94.4259C73.4753 98.5747 76.8386 101.938 80.9873 101.938Z" fill="#26783D"/>
<path d="M82.9424 97.3298C84.5454 96.2527 84.9719 94.0801 83.8949 92.477C82.8179 90.874 80.6452 90.4475 79.0421 91.5245C77.4391 92.6015 77.0126 94.7742 78.0896 96.3773C79.1667 97.9803 81.3393 98.4068 82.9424 97.3298Z" fill="#26783D"/>
<path d="M79.9946 88.8252C79.9946 89.3735 80.4391 89.818 80.9873 89.818C81.5355 89.818 81.98 89.3735 81.98 88.8252C81.98 88.277 81.5355 87.8325 80.9873 87.8325C80.4391 87.8325 79.9946 88.277 79.9946 88.8252Z" fill="#26783D"/>
<path d="M79.9946 100.027C79.9946 100.575 80.4391 101.019 80.9873 101.019C81.5355 101.019 81.98 100.575 81.98 100.027C81.98 99.4784 81.5355 99.0339 80.9873 99.0339C80.4391 99.0339 79.9946 99.4784 79.9946 100.027Z" fill="#26783D"/>
<path d="M75.3866 95.4186C75.9349 95.4186 76.3794 94.9741 76.3794 94.4259C76.3794 93.8777 75.9349 93.4332 75.3866 93.4332C74.8384 93.4332 74.3939 93.8777 74.3939 94.4259C74.3939 94.9741 74.8384 95.4186 75.3866 95.4186Z" fill="#26783D"/>
<path d="M86.5879 95.4186C87.1361 95.4186 87.5806 94.9741 87.5806 94.4259C87.5806 93.8777 87.1361 93.4332 86.5879 93.4332C86.0397 93.4332 85.5952 93.8777 85.5952 94.4259C85.5952 94.9741 86.0397 95.4186 86.5879 95.4186Z" fill="#26783D"/>
<path d="M77.0313 99.3746C77.5795 99.3746 78.024 98.9302 78.024 98.3819C78.024 97.8337 77.5795 97.3892 77.0313 97.3892C76.483 97.3892 76.0386 97.8337 76.0386 98.3819C76.0386 98.9302 76.483 99.3746 77.0313 99.3746Z" fill="#26783D"/>
<path d="M85.6545 91.1663C86.0397 90.781 86.0397 90.1439 85.6545 89.7587C85.2693 89.3734 84.6322 89.3734 84.2469 89.7587C83.8617 90.1439 83.8617 90.781 84.2469 91.1663C84.6322 91.5663 85.2693 91.5663 85.6545 91.1663Z" fill="#26783D"/>
<path d="M76.3201 91.1663C76.7053 91.5515 77.3424 91.5515 77.7276 91.1663C78.1129 90.781 78.1129 90.1439 77.7276 89.7587C77.3424 89.3734 76.7053 89.3734 76.3201 89.7587C75.9348 90.1439 75.9348 90.781 76.3201 91.1663Z" fill="#26783D"/>
<path d="M84.2469 99.0931C84.6322 99.4783 85.2693 99.4783 85.6545 99.0931C86.0397 98.7079 86.0397 98.0708 85.6545 97.6856C85.2693 97.3003 84.6322 97.3003 84.2469 97.6856C83.8469 98.0708 83.8469 98.7079 84.2469 99.0931Z" fill="#26783D"/>
<path d="M73.4753 105.598C73.4753 109.746 70.1119 113.11 65.9633 113.11C61.8147 113.11 58.4513 109.746 58.4513 105.598C58.4513 101.449 61.8147 98.0856 65.9633 98.0856C70.1119 98.0856 73.4753 101.449 73.4753 105.598Z" fill="#26783D"/>
<path d="M69.46 105.598C69.46 107.524 67.8894 109.094 65.9633 109.094C64.0371 109.094 62.4666 107.524 62.4666 105.598C62.4666 103.671 64.0371 102.101 65.9633 102.101C67.8894 102.101 69.46 103.671 69.46 105.598Z" fill="#26783D"/>
<path d="M66.956 99.997C66.956 100.545 66.5115 100.99 65.9633 100.99C65.4151 100.99 64.9706 100.545 64.9706 99.997C64.9706 99.4487 65.4151 99.0042 65.9633 99.0042C66.5115 99.0042 66.956 99.4487 66.956 99.997Z" fill="#26783D"/>
<path d="M66.956 111.198C66.956 111.746 66.5115 112.191 65.9633 112.191C65.4151 112.191 64.9706 111.746 64.9706 111.198C64.9706 110.65 65.4151 110.206 65.9633 110.206C66.5115 110.191 66.956 110.65 66.956 111.198Z" fill="#26783D"/>
<path d="M71.5639 106.59C71.0157 106.59 70.5712 106.146 70.5712 105.598C70.5712 105.049 71.0157 104.605 71.5639 104.605C72.1121 104.605 72.5566 105.049 72.5566 105.598C72.5566 106.146 72.1121 106.59 71.5639 106.59Z" fill="#26783D"/>
<path d="M60.3626 106.59C59.8144 106.59 59.3699 106.146 59.3699 105.598C59.3699 105.049 59.8144 104.605 60.3626 104.605C60.9108 104.605 61.3553 105.049 61.3553 105.598C61.3553 106.146 60.9108 106.59 60.3626 106.59Z" fill="#26783D"/>
<path d="M69.2229 110.265C68.8377 109.88 68.8377 109.242 69.2229 108.857C69.6081 108.472 70.2452 108.472 70.6305 108.857C71.0157 109.242 71.0157 109.88 70.6305 110.265C70.2452 110.65 69.6081 110.65 69.2229 110.265Z" fill="#26783D"/>
<path d="M62.0072 102.634C62.5555 102.634 63 102.19 63 101.642C63 101.093 62.5555 100.649 62.0072 100.649C61.459 100.649 61.0145 101.093 61.0145 101.642C61.0145 102.19 61.459 102.634 62.0072 102.634Z" fill="#26783D"/>
<path d="M69.9192 102.634C70.4675 102.634 70.9119 102.19 70.9119 101.642C70.9119 101.093 70.4675 100.649 69.9192 100.649C69.371 100.649 68.9265 101.093 68.9265 101.642C68.9265 102.19 69.371 102.634 69.9192 102.634Z" fill="#26783D"/>
<path d="M62.7036 110.265C62.3183 110.65 61.6812 110.65 61.296 110.265C60.9108 109.88 60.9108 109.242 61.296 108.857C61.6812 108.472 62.3183 108.472 62.7036 108.857C63.1036 109.242 63.1036 109.865 62.7036 110.265Z" fill="#26783D"/>
<path d="M50.2946 103.995C54.1064 102.357 55.8688 97.9395 54.2308 94.1276C52.5929 90.3157 48.175 88.5534 44.3631 90.1913C40.5512 91.8293 38.7889 96.2472 40.4268 100.059C42.0647 103.871 46.4827 105.633 50.2946 103.995Z" stroke="black" stroke-miterlimit="10" stroke-linecap="round" stroke-linejoin="round"/>
<path d="M50.8209 97.0929C50.8209 99.0191 49.2504 100.59 47.3242 100.59C45.3981 100.59 43.8275 99.0191 43.8275 97.0929C43.8275 95.1667 45.3981 93.5962 47.3242 93.5962C49.2504 93.5962 50.8209 95.1519 50.8209 97.0929Z" stroke="black" stroke-miterlimit="10" stroke-linecap="round" stroke-linejoin="round"/>
<path d="M48.317 91.4923C48.317 92.0405 47.8725 92.485 47.3242 92.485C46.776 92.485 46.3315 92.0405 46.3315 91.4923C46.3315 90.944 46.776 90.4995 47.3242 90.4995C47.8725 90.4847 48.317 90.9292 48.317 91.4923Z" stroke="black" stroke-miterlimit="10" stroke-linecap="round" stroke-linejoin="round"/>
<path d="M48.317 102.694C48.317 103.242 47.8725 103.686 47.3242 103.686C46.776 103.686 46.3315 103.242 46.3315 102.694C46.3315 102.145 46.776 101.701 47.3242 101.701C47.8725 101.686 48.317 102.131 48.317 102.694Z" stroke="black" stroke-miterlimit="10" stroke-linecap="round" stroke-linejoin="round"/>
<path d="M52.9248 98.0856C52.3766 98.0856 51.9321 97.6411 51.9321 97.0929C51.9321 96.5447 52.3766 96.1002 52.9248 96.1002C53.473 96.1002 53.9175 96.5447 53.9175 97.0929C53.9175 97.6411 53.473 98.0856 52.9248 98.0856Z" stroke="black" stroke-miterlimit="10" stroke-linecap="round" stroke-linejoin="round"/>
<path d="M41.7235 98.0856C41.1753 98.0856 40.7308 97.6411 40.7308 97.0929C40.7308 96.5447 41.1753 96.1002 41.7235 96.1002C42.2718 96.1002 42.7163 96.5447 42.7163 97.0929C42.7163 97.6411 42.2718 98.0856 41.7235 98.0856Z" stroke="black" stroke-miterlimit="10" stroke-linecap="round" stroke-linejoin="round"/>
<path d="M51.2802 102.042C51.8284 102.042 52.2729 101.597 52.2729 101.049C52.2729 100.501 51.8284 100.056 51.2802 100.056C50.7319 100.056 50.2875 100.501 50.2875 101.049C50.2875 101.597 50.7319 102.042 51.2802 102.042Z" stroke="black" stroke-miterlimit="10" stroke-linecap="round" stroke-linejoin="round"/>
<path d="M43.3682 94.1148C43.9165 94.1148 44.3609 93.6703 44.3609 93.1221C44.3609 92.5738 43.9165 92.1294 43.3682 92.1294C42.8199 92.1294 42.3755 92.5738 42.3755 93.1221C42.3755 93.6703 42.8199 94.1148 43.3682 94.1148Z" stroke="black" stroke-miterlimit="10" stroke-linecap="round" stroke-linejoin="round"/>
<path d="M51.2802 94.1148C51.8284 94.1148 52.2729 93.6703 52.2729 93.1221C52.2729 92.5738 51.8284 92.1294 51.2802 92.1294C50.7319 92.1294 50.2875 92.5738 50.2875 93.1221C50.2875 93.6703 50.7319 94.1148 51.2802 94.1148Z" stroke="black" stroke-miterlimit="10" stroke-linecap="round" stroke-linejoin="round"/>
<path d="M43.3682 102.042C43.9165 102.042 44.3609 101.597 44.3609 101.049C44.3609 100.501 43.9165 100.056 43.3682 100.056C42.8199 100.056 42.3755 100.501 42.3755 101.049C42.3755 101.597 42.8199 102.042 43.3682 102.042Z" stroke="black" stroke-miterlimit="10" stroke-linecap="round" stroke-linejoin="round"/>
<path d="M84.7655 81.3133C84.7655 85.4619 88.1289 88.8253 92.2775 88.8253C96.4261 88.8253 99.7895 85.4619 99.7895 81.3133C99.7895 77.1646 96.4261 73.8013 92.2775 73.8013C88.1289 73.8013 84.7655 77.1646 84.7655 81.3133Z" stroke="black" stroke-miterlimit="10" stroke-linecap="round" stroke-linejoin="round"/>
<path d="M88.7808 81.3133C88.7808 83.2394 90.3513 84.81 92.2775 84.81C94.2036 84.81 95.7742 83.2394 95.7742 81.3133C95.7742 79.3871 94.2036 77.8166 92.2775 77.8166C90.3513 77.8166 88.7808 79.3871 88.7808 81.3133Z" stroke="black" stroke-miterlimit="10" stroke-linecap="round" stroke-linejoin="round"/>
<path d="M91.2699 75.7126C91.2699 76.2608 91.7144 76.7053 92.2626 76.7053C92.8108 76.7053 93.2553 76.2608 93.2553 75.7126C93.2553 75.1644 92.8108 74.7199 92.2626 74.7199C91.7144 74.7199 91.2699 75.1644 91.2699 75.7126Z" stroke="black" stroke-miterlimit="10" stroke-linecap="round" stroke-linejoin="round"/>
<path d="M91.2699 86.9139C91.2699 87.4621 91.7144 87.9066 92.2626 87.9066C92.8108 87.9066 93.2553 87.4621 93.2553 86.9139C93.2553 86.3657 92.8108 85.9212 92.2626 85.9212C91.7144 85.9212 91.2699 86.3657 91.2699 86.9139Z" stroke="black" stroke-miterlimit="10" stroke-linecap="round" stroke-linejoin="round"/>
<path d="M86.6768 82.306C87.225 82.306 87.6695 81.8615 87.6695 81.3133C87.6695 80.7651 87.225 80.3206 86.6768 80.3206C86.1286 80.3206 85.6841 80.7651 85.6841 81.3133C85.6693 81.8615 86.1138 82.306 86.6768 82.306Z" stroke="black" stroke-miterlimit="10" stroke-linecap="round" stroke-linejoin="round"/>
<path d="M97.8633 82.306C98.4115 82.306 98.856 81.8615 98.856 81.3133C98.856 80.7651 98.4115 80.3206 97.8633 80.3206C97.3151 80.3206 96.8706 80.7651 96.8706 81.3133C96.8706 81.8615 97.3151 82.306 97.8633 82.306Z" stroke="black" stroke-miterlimit="10" stroke-linecap="round" stroke-linejoin="round"/>
<path d="M88.3066 86.262C88.8548 86.262 89.2993 85.8175 89.2993 85.2693C89.2993 84.721 88.8548 84.2766 88.3066 84.2766C87.7583 84.2766 87.3138 84.721 87.3138 85.2693C87.3138 85.8175 87.7583 86.262 88.3066 86.262Z" stroke="black" stroke-miterlimit="10" stroke-linecap="round" stroke-linejoin="round"/>
<path d="M96.2334 78.35C96.7817 78.35 97.2262 77.9055 97.2262 77.3572C97.2262 76.809 96.7817 76.3645 96.2334 76.3645C95.6852 76.3645 95.2407 76.809 95.2407 77.3572C95.2407 77.9055 95.6852 78.35 96.2334 78.35Z" stroke="black" stroke-miterlimit="10" stroke-linecap="round" stroke-linejoin="round"/>
<path d="M88.3066 78.35C88.8548 78.35 89.2993 77.9055 89.2993 77.3572C89.2993 76.809 88.8548 76.3645 88.3066 76.3645C87.7583 76.3645 87.3138 76.809 87.3138 77.3572C87.3138 77.9055 87.7583 78.35 88.3066 78.35Z" stroke="black" stroke-miterlimit="10" stroke-linecap="round" stroke-linejoin="round"/>
<path d="M96.2334 86.262C96.7817 86.262 97.2262 85.8175 97.2262 85.2693C97.2262 84.721 96.7817 84.2766 96.2334 84.2766C95.6852 84.2766 95.2407 84.721 95.2407 85.2693C95.2407 85.8175 95.6852 86.262 96.2334 86.262Z" stroke="black" stroke-miterlimit="10" stroke-linecap="round" stroke-linejoin="round"/>
<path d="M80.9873 101.938C85.1361 101.938 88.4993 98.5747 88.4993 94.4259C88.4993 90.2771 85.1361 86.9139 80.9873 86.9139C76.8386 86.9139 73.4753 90.2771 73.4753 94.4259C73.4753 98.5747 76.8386 101.938 80.9873 101.938Z" stroke="black" stroke-miterlimit="10" stroke-linecap="round" stroke-linejoin="round"/>
<path d="M82.9424 97.3298C84.5454 96.2527 84.9719 94.0801 83.8949 92.477C82.8179 90.874 80.6452 90.4475 79.0421 91.5245C77.4391 92.6015 77.0126 94.7742 78.0896 96.3773C79.1667 97.9803 81.3393 98.4068 82.9424 97.3298Z" stroke="black" stroke-miterlimit="10" stroke-linecap="round" stroke-linejoin="round"/>
<path d="M79.9946 88.8252C79.9946 89.3735 80.4391 89.818 80.9873 89.818C81.5355 89.818 81.98 89.3735 81.98 88.8252C81.98 88.277 81.5355 87.8325 80.9873 87.8325C80.4391 87.8325 79.9946 88.277 79.9946 88.8252Z" stroke="black" stroke-miterlimit="10" stroke-linecap="round" stroke-linejoin="round"/>
<path d="M79.9946 100.027C79.9946 100.575 80.4391 101.019 80.9873 101.019C81.5355 101.019 81.98 100.575 81.98 100.027C81.98 99.4784 81.5355 99.0339 80.9873 99.0339C80.4391 99.0339 79.9946 99.4784 79.9946 100.027Z" stroke="black" stroke-miterlimit="10" stroke-linecap="round" stroke-linejoin="round"/>
<path d="M75.3866 95.4186C75.9349 95.4186 76.3794 94.9741 76.3794 94.4259C76.3794 93.8777 75.9349 93.4332 75.3866 93.4332C74.8384 93.4332 74.3939 93.8777 74.3939 94.4259C74.3939 94.9741 74.8384 95.4186 75.3866 95.4186Z" stroke="black" stroke-miterlimit="10" stroke-linecap="round" stroke-linejoin="round"/>
<path d="M86.5879 95.4186C87.1361 95.4186 87.5806 94.9741 87.5806 94.4259C87.5806 93.8777 87.1361 93.4332 86.5879 93.4332C86.0397 93.4332 85.5952 93.8777 85.5952 94.4259C85.5952 94.9741 86.0397 95.4186 86.5879 95.4186Z" stroke="black" stroke-miterlimit="10" stroke-linecap="round" stroke-linejoin="round"/>
<path d="M77.0313 99.3746C77.5795 99.3746 78.024 98.9302 78.024 98.3819C78.024 97.8337 77.5795 97.3892 77.0313 97.3892C76.483 97.3892 76.0386 97.8337 76.0386 98.3819C76.0386 98.9302 76.483 99.3746 77.0313 99.3746Z" stroke="black" stroke-miterlimit="10" stroke-linecap="round" stroke-linejoin="round"/>
<path d="M85.6545 91.1663C86.0397 90.781 86.0397 90.1439 85.6545 89.7587C85.2693 89.3734 84.6322 89.3734 84.2469 89.7587C83.8617 90.1439 83.8617 90.781 84.2469 91.1663C84.6322 91.5663 85.2693 91.5663 85.6545 91.1663Z" stroke="black" stroke-miterlimit="10" stroke-linecap="round" stroke-linejoin="round"/>
<path d="M76.3201 91.1663C76.7053 91.5515 77.3424 91.5515 77.7276 91.1663C78.1129 90.781 78.1129 90.1439 77.7276 89.7587C77.3424 89.3734 76.7053 89.3734 76.3201 89.7587C75.9348 90.1439 75.9348 90.781 76.3201 91.1663Z" stroke="black" stroke-miterlimit="10" stroke-linecap="round" stroke-linejoin="round"/>
<path d="M84.2469 99.0931C84.6322 99.4783 85.2693 99.4783 85.6545 99.0931C86.0397 98.7079 86.0397 98.0708 85.6545 97.6856C85.2693 97.3003 84.6322 97.3003 84.2469 97.6856C83.8469 98.0708 83.8469 98.7079 84.2469 99.0931Z" stroke="black" stroke-miterlimit="10" stroke-linecap="round" stroke-linejoin="round"/>
<path d="M73.4753 105.598C73.4753 109.746 70.1119 113.11 65.9633 113.11C61.8147 113.11 58.4513 109.746 58.4513 105.598C58.4513 101.449 61.8147 98.0856 65.9633 98.0856C70.1119 98.0856 73.4753 101.449 73.4753 105.598Z" stroke="black" stroke-miterlimit="10" stroke-linecap="round" stroke-linejoin="round"/>
<path d="M69.46 105.598C69.46 107.524 67.8894 109.094 65.9633 109.094C64.0371 109.094 62.4666 107.524 62.4666 105.598C62.4666 103.671 64.0371 102.101 65.9633 102.101C67.8894 102.101 69.46 103.671 69.46 105.598Z" stroke="black" stroke-miterlimit="10" stroke-linecap="round" stroke-linejoin="round"/>
<path d="M66.956 99.997C66.956 100.545 66.5115 100.99 65.9633 100.99C65.4151 100.99 64.9706 100.545 64.9706 99.997C64.9706 99.4487 65.4151 99.0042 65.9633 99.0042C66.5115 99.0042 66.956 99.4487 66.956 99.997Z" stroke="black" stroke-miterlimit="10" stroke-linecap="round" stroke-linejoin="round"/>
<path d="M66.956 111.198C66.956 111.746 66.5115 112.191 65.9633 112.191C65.4151 112.191 64.9706 111.746 64.9706 111.198C64.9706 110.65 65.4151 110.206 65.9633 110.206C66.5115 110.191 66.956 110.65 66.956 111.198Z" stroke="black" stroke-miterlimit="10" stroke-linecap="round" stroke-linejoin="round"/>
<path d="M71.5639 106.59C71.0157 106.59 70.5712 106.146 70.5712 105.598C70.5712 105.049 71.0157 104.605 71.5639 104.605C72.1121 104.605 72.5566 105.049 72.5566 105.598C72.5566 106.146 72.1121 106.59 71.5639 106.59Z" stroke="black" stroke-miterlimit="10" stroke-linecap="round" stroke-linejoin="round"/>
<path d="M60.3626 106.59C59.8144 106.59 59.3699 106.146 59.3699 105.598C59.3699 105.049 59.8144 104.605 60.3626 104.605C60.9108 104.605 61.3553 105.049 61.3553 105.598C61.3553 106.146 60.9108 106.59 60.3626 106.59Z" stroke="black" stroke-miterlimit="10" stroke-linecap="round" stroke-linejoin="round"/>
<path d="M69.2229 110.265C68.8377 109.88 68.8377 109.242 69.2229 108.857C69.6081 108.472 70.2452 108.472 70.6305 108.857C71.0157 109.242 71.0157 109.88 70.6305 110.265C70.2452 110.65 69.6081 110.65 69.2229 110.265Z" stroke="black" stroke-miterlimit="10" stroke-linecap="round" stroke-linejoin="round"/>
<path d="M62.0072 102.634C62.5555 102.634 63 102.19 63 101.642C63 101.093 62.5555 100.649 62.0072 100.649C61.459 100.649 61.0145 101.093 61.0145 101.642C61.0145 102.19 61.459 102.634 62.0072 102.634Z" stroke="black" stroke-miterlimit="10" stroke-linecap="round" stroke-linejoin="round"/>
<path d="M69.9192 102.634C70.4675 102.634 70.9119 102.19 70.9119 101.642C70.9119 101.093 70.4675 100.649 69.9192 100.649C69.371 100.649 68.9265 101.093 68.9265 101.642C68.9265 102.19 69.371 102.634 69.9192 102.634Z" stroke="black" stroke-miterlimit="10" stroke-linecap="round" stroke-linejoin="round"/>
<path d="M62.7036 110.265C62.3183 110.65 61.6812 110.65 61.296 110.265C60.9108 109.88 60.9108 109.242 61.296 108.857C61.6812 108.472 62.3183 108.472 62.7036 108.857C63.1036 109.242 63.1036 109.865 62.7036 110.265Z" stroke="black" stroke-miterlimit="10" stroke-linecap="round" stroke-linejoin="round"/>
<path d="M75.1495 25.1585L74.5124 24.9511C74.5124 24.9511 74.1568 28.4478 73.8605 32.4038C73.8605 32.4038 79.2833 26.4475 77.3572 26.0327" fill="#9A602D"/>
<g opacity="0.42">
<path opacity="0.42" d="M51.5616 38.1082C51.5616 38.1082 51.3689 38.0045 51.043 37.8118C50.9689 37.7674 50.88 37.7081 50.7763 37.634C50.7318 37.6044 50.6726 37.5748 50.6281 37.5303C50.5837 37.5007 50.5244 37.4562 50.4651 37.4118C50.3614 37.3229 50.2281 37.2192 50.1243 37.0562L50.1095 37.0266L50.0947 37.0118C50.0947 37.0266 50.0799 36.9821 50.0799 36.9969C50.0651 36.9821 50.0651 36.9673 50.0503 36.9377C50.0354 36.908 50.0354 36.8932 50.0354 36.8636L50.0206 36.8191V36.8043V36.7747V36.7451C50.0206 36.7302 50.0206 36.6858 50.0354 36.671C50.0354 36.6413 50.0503 36.6265 50.0503 36.6117C50.0503 36.5969 50.0651 36.5673 50.0651 36.5673L50.0799 36.5376V36.5228C50.0651 36.5376 50.0947 36.4932 50.0947 36.4932L50.1095 36.4635L50.1392 36.4191C50.1392 36.4043 50.154 36.4043 50.154 36.3895L50.1836 36.345C50.2281 36.2857 50.2873 36.2265 50.3466 36.1968C50.4059 36.1524 50.4503 36.1228 50.5096 36.1079C50.6281 36.0635 50.7318 36.0339 50.8207 36.019C50.8652 36.019 50.9096 36.0042 50.9541 36.0042H50.9837H50.9985C50.9541 36.019 50.9837 36.0042 50.9837 36.0042H50.9985L51.0578 35.9894C51.1022 35.9746 51.1467 35.9746 51.1911 35.9598C51.2356 35.945 51.28 35.945 51.3097 35.9301C51.3838 35.9005 51.443 35.8857 51.5319 35.8709C51.606 35.8412 51.6949 35.8116 51.769 35.782C51.8431 35.7375 51.932 35.7079 52.006 35.6634L52.0357 35.6486L52.0505 35.6338C52.0653 35.619 52.0357 35.6486 52.0357 35.6486H52.0505L52.0801 35.6338L52.0653 35.6486V35.6634C52.0653 35.6486 52.0505 35.6931 52.0653 35.6783V35.6634V35.6486C52.0653 35.6486 52.0653 35.6486 52.0653 35.6634V35.6783C52.0653 35.6783 52.0653 35.6783 52.0653 35.6634C52.0653 35.619 52.0209 35.5449 51.9616 35.456C51.9023 35.3671 51.8431 35.2782 51.7986 35.2041C51.7394 35.1152 51.6801 35.0411 51.606 34.9671C51.5467 34.893 51.4727 34.8189 51.3986 34.7448C51.3245 34.6707 51.2504 34.5967 51.1763 34.5374L50.9244 34.3448C50.8355 34.2855 50.7466 34.2262 50.6577 34.1522C50.6133 34.1225 50.5688 34.0781 50.5244 34.0336L50.4651 33.9595L50.4355 33.9299L50.4207 33.9151L50.4059 33.9003L50.391 33.8855L50.3466 33.8262L50.317 33.7966C50.3021 33.7817 50.3021 33.7669 50.2873 33.7521C50.2577 33.6928 50.2132 33.6188 50.2132 33.5447C50.1688 33.4113 50.1688 33.2632 50.1836 33.115C50.1836 33.0705 50.2132 32.9816 50.2429 32.9076L50.2873 32.8187L50.3021 32.7742L50.317 32.7594V32.7446C50.317 32.7446 50.317 32.7446 50.3318 32.7298C50.3762 32.6409 50.4355 32.5371 50.4799 32.4482C50.5244 32.3593 50.5837 32.2705 50.6429 32.1667C50.7022 32.0778 50.7615 31.9889 50.8207 31.8852C50.88 31.7963 50.9393 31.6926 50.9985 31.6185C51.0578 31.5296 51.1022 31.4704 51.1467 31.3963C51.2356 31.2481 51.28 31.1296 51.28 31.011V30.9666V30.9518C51.28 30.9518 51.28 30.9962 51.28 30.9666V30.937V30.8629C51.28 30.8481 51.28 30.8481 51.2652 30.8332C51.2652 30.8184 51.2504 30.7888 51.2504 30.7592C51.2504 30.7295 51.2208 30.6999 51.2208 30.6703C51.1615 30.5517 51.0726 30.4184 50.9837 30.2702C50.8948 30.122 50.7911 29.9887 50.7022 29.8554C50.6577 29.7813 50.6133 29.722 50.5688 29.6627C50.554 29.6331 50.5244 29.6035 50.5096 29.559L50.4948 29.5294L50.4799 29.4998V29.4849C50.4651 29.4701 50.4651 29.4701 50.4355 29.396C50.4207 29.3664 50.4207 29.3368 50.4059 29.322V29.3071C50.391 29.2182 50.4059 29.2775 50.4059 29.2627V29.2479V29.2182C50.4059 29.2034 50.4059 29.1738 50.4207 29.1442C50.4207 29.1145 50.4355 29.0849 50.4355 29.0701L50.4503 29.0256C50.4651 28.996 50.4799 28.9812 50.4948 28.9515L50.5096 28.9367L50.5244 28.9219L50.5392 28.9071L50.5688 28.8626C50.5985 28.833 50.6133 28.8182 50.6281 28.7886C50.6726 28.7441 50.717 28.6848 50.7615 28.6404C50.8059 28.5959 50.8652 28.5515 50.9096 28.507C50.9985 28.4181 51.0874 28.3441 51.1615 28.2996C51.2504 28.2403 51.3097 28.1959 51.3838 28.1514C51.4578 28.1218 51.5171 28.0922 51.5616 28.0625C51.6504 28.0181 51.7097 28.0033 51.7097 28.0033L51.7542 28.0625C51.7542 28.0625 51.7245 28.107 51.6505 28.1811C51.6208 28.2107 51.5764 28.2552 51.5319 28.3144C51.4875 28.3737 51.443 28.433 51.3838 28.507C51.3245 28.5811 51.28 28.6552 51.2208 28.7441C51.1911 28.7886 51.1615 28.833 51.1319 28.8775C51.1022 28.9367 51.0726 28.9812 51.043 29.0404C51.0282 29.0701 51.0133 29.0997 50.9985 29.1293L50.9689 29.1738V29.1886C50.9837 29.1738 50.9689 29.1886 50.9689 29.1738C50.9689 29.1886 50.9689 29.1886 50.9689 29.2034C50.9689 29.2034 50.9837 29.1886 50.9837 29.1738V29.1442V29.1738V29.1886C50.9837 29.1738 50.9837 29.2331 50.9837 29.1442C50.9837 29.1293 50.9837 29.1293 50.9837 29.1145C50.9689 29.0849 50.9837 29.1145 50.9985 29.1293L51.0133 29.1442C51.0133 29.1442 50.9985 29.1145 50.9985 29.1293L51.0133 29.1442C51.043 29.1738 51.0578 29.2034 51.0874 29.2331C51.1319 29.2923 51.1911 29.3516 51.2504 29.4109C51.3541 29.5294 51.4727 29.6627 51.5764 29.7961C51.6949 29.9294 51.8134 30.0776 51.932 30.285C51.9616 30.3443 51.9912 30.3887 52.006 30.448C52.0209 30.5073 52.0505 30.5665 52.0653 30.6406C52.0801 30.6703 52.0801 30.7147 52.0801 30.7443V30.8184V30.8481V30.8777V30.8925V30.9221V31.0259C52.0505 31.2926 51.932 31.5444 51.7986 31.7371C51.7394 31.826 51.6505 31.9297 51.5912 32.0038C51.5319 32.0778 51.4727 32.1519 51.3986 32.226C51.3393 32.3001 51.28 32.3742 51.206 32.4482C51.1467 32.5223 51.0874 32.626 51.0282 32.7001C50.9689 32.789 50.9096 32.8779 50.8355 32.952C50.8504 32.9372 50.8355 32.952 50.8355 32.952L50.8207 32.9668L50.8059 32.9965L50.7763 33.0557C50.7615 33.0854 50.7466 33.0854 50.7318 33.1594C50.717 33.2187 50.6874 33.2928 50.7022 33.3669C50.7022 33.4113 50.717 33.441 50.717 33.4706C50.717 33.4854 50.717 33.4854 50.717 33.5002L50.7318 33.5447L50.7615 33.6188L50.7763 33.6336C50.7763 33.6336 50.7911 33.6484 50.7763 33.6188L50.7911 33.6484L50.8207 33.7077C50.8504 33.7373 50.88 33.7817 50.9096 33.8262C50.9689 33.9003 51.0578 33.9744 51.1319 34.0484L51.3689 34.2707C51.443 34.3448 51.5171 34.4189 51.5912 34.5078L51.7097 34.6263L51.8134 34.7448C51.8875 34.8189 51.9616 34.893 52.0357 34.9671C52.1098 35.0411 52.1838 35.1152 52.2431 35.1893C52.3024 35.2634 52.4061 35.3375 52.4654 35.4856C52.4802 35.5005 52.4802 35.5301 52.4802 35.5449C52.4802 35.5597 52.4802 35.5597 52.4802 35.5745C52.4802 35.5894 52.4802 35.6042 52.4802 35.619C52.4802 35.6338 52.4802 35.6634 52.4802 35.6634V35.6783V35.6931C52.4802 35.6931 52.4654 35.7375 52.4654 35.7227C52.4654 35.7375 52.4505 35.7523 52.4505 35.7672C52.4357 35.7968 52.4209 35.8264 52.3913 35.8412L52.3616 35.8709C52.3616 35.8709 52.332 35.9005 52.3468 35.8857L52.332 35.9005L52.3024 36.0042C52.2283 36.0783 52.1394 36.1524 52.0653 36.2117C51.9764 36.2709 51.8875 36.3302 51.7986 36.3895C51.6949 36.4339 51.5912 36.4784 51.4875 36.5228C51.4282 36.5524 51.3838 36.5524 51.3393 36.5673C51.2949 36.5821 51.2504 36.5821 51.206 36.5969L51.1467 36.6117H51.1022H51.0874H51.0578C51.0133 36.6117 50.9689 36.6265 50.9393 36.6265C50.8652 36.6413 50.8059 36.6413 50.7615 36.671C50.7318 36.671 50.717 36.6858 50.7022 36.7006C50.6726 36.7154 50.6874 36.7154 50.6726 36.7154C50.6726 36.7154 50.6577 36.7302 50.6577 36.7451L50.6281 36.7895L50.6133 36.8191C50.6133 36.8191 50.6429 36.7747 50.6281 36.7895C50.6281 36.7895 50.6281 36.7895 50.6281 36.7747C50.6281 36.7747 50.6281 36.7451 50.6281 36.7599V36.7895C50.6281 36.7747 50.6281 36.8191 50.6281 36.7599C50.6281 36.7599 50.6281 36.7599 50.6281 36.7451C50.6281 36.7451 50.6281 36.7302 50.6133 36.7302C50.6133 36.7302 50.6281 36.7599 50.6281 36.7747C50.6281 36.7747 50.6133 36.7451 50.6281 36.7599V36.7747L50.6429 36.7895C50.6874 36.8932 50.7615 36.9821 50.8355 37.071C51.0133 37.2636 51.1615 37.4414 51.28 37.5748C51.5171 37.8711 51.6505 38.0489 51.6505 38.0489L51.5616 38.1082Z" fill="#A2A1A1"/>
</g>
<g opacity="0.42">
<path opacity="0.42" d="M51.695 38.1082C51.695 38.1082 51.5024 38.0045 51.1764 37.8118C51.1023 37.7674 51.0134 37.7081 50.9097 37.634C50.8653 37.6044 50.806 37.5748 50.7615 37.5303C50.7171 37.5007 50.6578 37.4562 50.5986 37.4118C50.4948 37.3229 50.3615 37.2192 50.2578 37.0562L50.243 37.0266L50.2281 37.0118C50.2281 37.0266 50.2133 36.9821 50.2133 36.9969C50.1985 36.9821 50.1985 36.9673 50.1837 36.9377C50.1689 36.908 50.1689 36.8932 50.1689 36.8636L50.1541 36.8191V36.8043V36.7747V36.7451C50.1541 36.7302 50.1541 36.6858 50.1689 36.671C50.1689 36.6413 50.1837 36.6265 50.1837 36.5969C50.1837 36.5821 50.1985 36.5524 50.1985 36.5524L50.2133 36.5228V36.508C50.1985 36.5228 50.2281 36.4784 50.2281 36.4784L50.243 36.4487L50.2726 36.4043C50.2726 36.3895 50.2874 36.3895 50.2874 36.3746L50.317 36.3302C50.3615 36.2709 50.4208 36.2117 50.48 36.182C50.5393 36.1376 50.5837 36.1079 50.643 36.0931C50.7615 36.0487 50.8652 36.019 50.9541 36.0042C50.9986 36.0042 51.043 35.9894 51.0875 35.9894H51.1171H51.1319C51.0875 36.0042 51.1171 35.9894 51.1171 35.9894H51.1319L51.1912 35.9746C51.2357 35.9598 51.2801 35.9598 51.3246 35.945C51.369 35.9301 51.4135 35.9301 51.4431 35.9153C51.5172 35.8857 51.5764 35.8709 51.6653 35.8561C51.7394 35.8264 51.8283 35.7968 51.9024 35.7672C51.9765 35.7227 52.0654 35.6931 52.1395 35.6486L52.1691 35.6338L52.1839 35.619C52.1987 35.6042 52.1691 35.6338 52.1691 35.6338H52.1839L52.2136 35.619L52.1987 35.6338V35.6486C52.1987 35.6338 52.1839 35.6783 52.1987 35.6634V35.6486V35.6338C52.1987 35.6338 52.1987 35.6338 52.1987 35.6486V35.6634C52.1987 35.6634 52.1987 35.6634 52.1987 35.6486C52.1987 35.6042 52.1543 35.5301 52.095 35.4412C52.0358 35.3523 51.9765 35.2634 51.932 35.1893C51.8728 35.1004 51.8135 35.0263 51.7394 34.9522C51.6802 34.8782 51.6061 34.8041 51.532 34.73C51.4579 34.6559 51.3838 34.5818 51.3097 34.5226L51.0579 34.33C50.969 34.2707 50.8801 34.2114 50.7912 34.1373C50.7467 34.1077 50.7023 34.0633 50.6578 34.0188L50.5986 33.9447L50.5689 33.9151L50.5541 33.9003L50.5393 33.8855L50.5245 33.8706L50.48 33.8114L50.4504 33.7817C50.4356 33.7669 50.4356 33.7521 50.4207 33.7373C50.3911 33.678 50.3467 33.6039 50.3467 33.5299C50.3022 33.3965 50.3022 33.2483 50.317 33.1002C50.317 33.0557 50.3467 32.9668 50.3763 32.8927L50.4207 32.8038L50.4356 32.7594L50.4504 32.7446V32.7298C50.4504 32.7298 50.4504 32.7298 50.4652 32.7149C50.5097 32.626 50.5689 32.5223 50.6134 32.4334C50.6578 32.3445 50.7171 32.2556 50.7764 32.1519C50.8356 32.063 50.8949 31.9741 50.9541 31.8704C51.0134 31.7815 51.0727 31.6778 51.1319 31.6037C51.1912 31.5148 51.2357 31.4555 51.2801 31.3815C51.369 31.2333 51.4135 31.1148 51.4135 30.9962V30.9518V30.937C51.4135 30.937 51.4135 30.9814 51.4135 30.9518V30.9221V30.8481C51.4135 30.8332 51.4135 30.8332 51.3986 30.8184C51.3986 30.8036 51.3838 30.774 51.3838 30.7443C51.3838 30.7147 51.3542 30.6851 51.3542 30.6554C51.2949 30.5369 51.206 30.4036 51.1171 30.2554C51.0282 30.1072 50.9245 29.9739 50.8356 29.8405C50.7912 29.7665 50.7467 29.7072 50.7023 29.6479C50.6875 29.6183 50.6578 29.5887 50.643 29.5442L50.6282 29.5146L50.6134 29.4849V29.4701C50.5986 29.4553 50.5985 29.4553 50.5689 29.3812C50.5541 29.3516 50.5541 29.322 50.5393 29.3071V29.2923C50.5245 29.2034 50.5393 29.2627 50.5393 29.2479V29.2331V29.2034C50.5393 29.1886 50.5393 29.159 50.5541 29.1293C50.5541 29.0997 50.5689 29.0701 50.5689 29.0553L50.5837 29.0108C50.5986 28.9812 50.6134 28.9664 50.6282 28.9367L50.643 28.9219L50.6578 28.9071L50.6726 28.8923L50.7023 28.8478C50.7319 28.8182 50.7467 28.8034 50.7615 28.7737C50.806 28.7293 50.8504 28.67 50.8949 28.6256C50.9393 28.5811 50.9986 28.5367 51.043 28.4922C51.1319 28.4033 51.2209 28.3292 51.2949 28.2848C51.3838 28.2255 51.4431 28.1811 51.5172 28.1366C51.5913 28.107 51.6505 28.0774 51.695 28.0477C51.7839 28.0033 51.8431 27.9885 51.8431 27.9885L51.8876 28.0477C51.8876 28.0477 51.858 28.0922 51.7839 28.1663C51.7542 28.1959 51.7098 28.2403 51.6653 28.2996C51.6209 28.3589 51.5764 28.4181 51.5172 28.4922C51.4579 28.5663 51.4135 28.6404 51.3542 28.7293C51.3246 28.7737 51.2949 28.8182 51.2653 28.8626C51.2357 28.9219 51.206 28.9664 51.1764 29.0256C51.1616 29.0553 51.1468 29.0849 51.1319 29.1145L51.1023 29.159L51.0875 29.1886C51.1023 29.1738 51.0875 29.1886 51.0875 29.1738C51.0875 29.1886 51.0875 29.1886 51.0875 29.1886C51.0875 29.1886 51.1023 29.1738 51.1023 29.159V29.1293V29.159V29.1738C51.1023 29.159 51.1023 29.2182 51.1023 29.1293C51.1023 29.1145 51.1023 29.1145 51.1023 29.0997C51.0875 29.0701 51.1023 29.0997 51.1171 29.1145L51.1319 29.1293C51.1319 29.1293 51.1171 29.0997 51.1171 29.1145L51.1319 29.1293C51.1616 29.159 51.1764 29.1886 51.206 29.2182C51.2505 29.2775 51.3097 29.3368 51.369 29.396C51.4727 29.5146 51.5913 29.6479 51.695 29.7813C51.8135 29.9146 51.932 30.0628 52.0506 30.2702C52.0802 30.3295 52.1098 30.3739 52.1247 30.4332C52.1395 30.4925 52.1691 30.5517 52.1839 30.6258C52.1987 30.6554 52.1987 30.6999 52.1987 30.7295V30.8036V30.8332V30.8629V30.8777V30.9073V31.011C52.1691 31.2777 52.0506 31.5296 51.9172 31.7222C51.858 31.8111 51.7691 31.9149 51.7098 31.9889C51.6505 32.063 51.5913 32.1371 51.5172 32.2112C51.4579 32.2853 51.3986 32.3593 51.3246 32.4334C51.2653 32.5075 51.206 32.6112 51.1468 32.6853C51.0875 32.7742 51.0282 32.8631 50.9541 32.9372C50.969 32.9224 50.9541 32.9372 50.9541 32.9372L50.9393 32.952L50.9245 32.9816L50.8949 33.0409C50.8801 33.0705 50.8653 33.0705 50.8504 33.1446C50.8356 33.2039 50.806 33.278 50.8208 33.3521C50.8208 33.3965 50.8356 33.4261 50.8356 33.4558C50.8356 33.4706 50.8356 33.4706 50.8356 33.4854L50.8504 33.5299L50.8801 33.6039L50.8949 33.6188C50.8949 33.6188 50.9097 33.6336 50.8949 33.6039L50.9097 33.6336L50.9393 33.6928C50.969 33.7225 50.9986 33.7669 51.0282 33.8114C51.0875 33.8855 51.1764 33.9595 51.2505 34.0336L51.4875 34.2559C51.5616 34.33 51.6357 34.404 51.7098 34.4929L51.8283 34.6115L51.932 34.73C52.0061 34.8041 52.0802 34.8782 52.1543 34.9522C52.2284 35.0263 52.3025 35.1004 52.3617 35.1745C52.421 35.2486 52.5247 35.3227 52.584 35.4708C52.5988 35.4856 52.5988 35.5153 52.5988 35.5301C52.5988 35.5449 52.5988 35.5449 52.5988 35.5597C52.5988 35.5745 52.5988 35.5894 52.5988 35.6042C52.5988 35.619 52.5988 35.6486 52.5988 35.6486V35.6634V35.6783C52.5988 35.6783 52.584 35.7227 52.584 35.7079C52.584 35.7227 52.5692 35.7375 52.5692 35.7523C52.5543 35.782 52.5395 35.8116 52.5099 35.8264L52.4803 35.8561C52.4803 35.8561 52.4506 35.8857 52.4654 35.8709L52.4506 35.8857L52.421 35.9153C52.3469 35.9894 52.258 36.0635 52.1839 36.1228C52.095 36.182 52.0061 36.2413 51.9172 36.3006C51.8135 36.345 51.7098 36.3895 51.6061 36.4339C51.5468 36.4635 51.5024 36.4635 51.4579 36.4784C51.4135 36.4932 51.369 36.4932 51.3246 36.508L51.2653 36.5228H51.2209H51.206H51.1764C51.1319 36.5228 51.0875 36.5376 51.0579 36.5376C50.9838 36.5524 50.9245 36.5524 50.8801 36.5821C50.8504 36.5821 50.8356 36.5969 50.8208 36.6117C50.7912 36.6265 50.806 36.6265 50.7912 36.6265C50.7912 36.6265 50.7764 36.6413 50.7764 36.6562L50.7467 36.7006L50.7319 36.7302C50.7319 36.7302 50.7615 36.6858 50.7467 36.7006C50.7467 36.7006 50.7467 36.7006 50.7467 36.6858V36.6562V36.6858C50.7467 36.671 50.7467 36.7154 50.7467 36.6562C50.7467 36.6562 50.7467 36.6562 50.7467 36.6413C50.7467 36.6413 50.7467 36.6265 50.7319 36.6265C50.7319 36.6265 50.7467 36.6562 50.7467 36.671C50.7467 36.671 50.7319 36.6413 50.7467 36.6562V36.671L50.7615 36.6858C50.806 36.7895 50.8801 36.8784 50.9541 36.9673C51.1319 37.1599 51.2801 37.3377 51.3986 37.4711C51.6357 37.7674 51.7691 37.9452 51.7691 37.9452L51.695 38.1082Z" fill="#939598"/>
</g>
<path opacity="0.42" d="M52.421 37.6933C52.421 37.6933 52.0061 36.9377 50.6578 37.0117C50.6578 37.0117 50.4652 36.6265 50.969 36.5376C51.4727 36.4635 52.658 36.5821 52.5988 35.5894C52.5395 34.5966 50.969 33.4261 50.969 33.4261C50.969 33.4261 50.6134 32.9816 51.1319 32.5371C51.6505 32.1075 52.1839 31.3666 51.9913 30.6851C51.7987 30.0035 51.0727 29.3516 51.0727 29.3516C51.0727 29.3516 51.7246 27.9885 51.8876 27.8551C51.8876 27.8551 50.8208 28.5811 50.8801 29.322C50.8801 29.322 51.8431 30.2998 51.8876 30.8777C51.9468 31.4555 50.7319 32.8483 50.7319 32.8483C50.7319 32.8483 50.0652 33.4113 51.3542 34.3596C51.3542 34.3596 52.5543 35.5153 52.2876 35.8412C52.2876 35.8412 51.5912 36.3006 50.7467 36.4043C50.7467 36.4043 49.9614 36.5672 50.8504 37.397C51.7394 38.2415 51.8135 38.0934 51.8135 38.0934C51.8135 38.0934 51.1912 37.5007 52.421 37.6933Z" fill="#A5A4A4"/>
<path d="M94.7518 70.1712C92.8997 77.8314 89.7586 84.81 84.884 91.4033C79.6389 98.3671 73.2382 103.434 65.9781 107.539C63.1185 106.398 60.3478 105.153 57.4734 103.82C55.6657 102.871 53.947 102.101 52.1246 101.153C50.317 100.101 48.4056 99.1524 46.8795 97.8041C48.6871 93.8925 50.5985 90.3514 53.1766 86.6324C54.0359 85.3878 54.7027 84.2469 55.6657 83.1061C59.1921 78.6166 63.0147 74.5125 68.3635 72.5122C68.9414 72.3196 69.6081 72.2307 70.1711 72.127C78.3795 71.2676 86.4101 70.2157 94.4851 70.3935" fill="#C92227"/>
<path d="M29.6183 49.4873C29.6183 49.4873 27.3069 83.3876 46.8796 97.893C46.8796 97.893 56.5252 75.5496 69.4156 72.3048C69.4156 72.3048 58.0809 70.7935 29.6183 49.4873Z" fill="#134F9E"/>
<path d="M29.6183 49.3984C29.6183 49.3984 27.3069 83.2987 46.8796 97.8041C46.8796 97.8041 56.5252 75.4607 69.4156 72.2159C69.4156 72.2159 58.0809 70.6898 29.6183 49.3984Z" stroke="black" stroke-miterlimit="10" stroke-linecap="round" stroke-linejoin="round"/>
<path d="M94.4851 70.3934C88.0399 70.0378 69.4155 72.2159 69.4155 72.2159C56.7029 75.6978 46.8795 97.8041 46.8795 97.8041C50.6874 101.138 65.9336 107.553 65.9336 107.553C100.456 88.3659 96.2483 52.6284 96.2483 52.6284C96.2483 52.6284 95.0482 37.9007 94.2332 32.9372" stroke="black" stroke-miterlimit="10" stroke-linecap="round" stroke-linejoin="round"/>
<path d="M80.039 26.1957C80.039 26.1957 77.1202 32.7742 76.9276 38.1378C76.7349 43.5014 83.4024 43.9607 83.4024 43.9607C93.8925 46.5092 94.7074 29.2034 94.7074 29.2034C94.7074 29.2034 87.9362 23.2027 80.039 26.1957Z" fill="white"/>
<path d="M94.663 29.4405C94.6482 30.3295 94.5741 31.2185 94.4704 32.1075C94.3667 32.9965 94.2185 33.8707 94.0407 34.7596C93.9518 35.2041 93.8481 35.6338 93.7296 36.0635C93.611 36.4932 93.4925 36.9229 93.3443 37.3525C93.0628 38.2119 92.722 39.0416 92.322 39.8565C91.9071 40.6715 91.4182 41.4419 90.8255 42.1531C90.2328 42.8495 89.5217 43.4718 88.7067 43.9459C88.3067 44.183 87.8622 44.3756 87.4177 44.5089C86.9732 44.6423 86.4991 44.7312 86.0398 44.7756C85.5804 44.8201 85.1063 44.8053 84.647 44.7756C84.1877 44.746 83.7284 44.6571 83.2839 44.5534L83.3431 44.5682C83.0913 44.5534 82.8542 44.5089 82.6171 44.4793C82.3801 44.4349 82.143 44.3904 81.9208 44.3311C81.4614 44.2126 81.0021 44.0793 80.5576 43.9015C79.6686 43.5607 78.8093 43.0717 78.1129 42.3902C77.7573 42.0494 77.461 41.6493 77.2239 41.2197C76.9868 40.79 76.809 40.3159 76.7053 39.8417C76.6164 39.3676 76.572 38.8787 76.5868 38.3897V38.3601V38.3304V38.286V38.1971L76.6016 38.0193L76.6312 37.6785L76.6609 37.3377L76.7053 36.9821L76.7942 36.2858L76.9127 35.6042L76.972 35.2634L77.0461 34.9226L77.1943 34.2411L77.3721 33.5743C77.4313 33.3521 77.4906 33.1298 77.5499 32.9076L77.7425 32.2408L77.9499 31.5741C78.0833 31.1296 78.2462 30.6999 78.3944 30.2554C78.5574 29.8257 78.7056 29.3812 78.8834 28.9664C79.2241 28.107 79.5797 27.2625 79.9798 26.4327C79.8168 26.8624 79.6538 27.2921 79.5056 27.7366C79.3575 28.1663 79.2093 28.6108 79.0612 29.0405C78.913 29.485 78.7796 29.9146 78.6463 30.3591C78.5129 30.8036 78.3796 31.2333 78.2759 31.6778L78.0981 32.3445L77.9351 33.0113C77.8758 33.2335 77.8314 33.4558 77.7869 33.678L77.6388 34.3448C77.5647 34.7893 77.461 35.2338 77.4017 35.6931L77.298 36.3747L77.2239 37.0414L77.1943 37.3822L77.1795 37.723L77.1498 38.4045C77.1498 38.849 77.1795 39.2787 77.2684 39.6936C77.3721 40.1084 77.5202 40.5085 77.7425 40.8789C77.9499 41.2493 78.2314 41.5901 78.5426 41.8864C79.1649 42.4791 79.9501 42.9236 80.7651 43.2347C81.1799 43.3977 81.6096 43.5162 82.0393 43.6199C82.469 43.7237 82.9283 43.7977 83.3431 43.8422H83.3728H83.4024C83.8173 43.9311 84.247 44.02 84.6618 44.0644C85.0915 44.0941 85.5064 44.1089 85.936 44.0793C86.7806 44.0052 87.5955 43.7681 88.3363 43.3533C89.0772 42.9532 89.7439 42.3902 90.3069 41.7531C90.87 41.1011 91.3589 40.3751 91.7738 39.6195C92.1886 38.849 92.5442 38.0489 92.8554 37.2192C93.1665 36.3895 93.4184 35.5449 93.6555 34.6856C93.8925 33.8262 94.0703 32.9668 94.2333 32.0927C94.3074 31.663 94.3815 31.2185 94.4556 30.774C94.5593 30.3295 94.6186 29.885 94.663 29.4405Z" fill="black"/>
<path d="M85.373 30.4925C85.1804 31.8111 83.9062 32.7298 82.5134 32.5372C81.1206 32.3445 80.1428 31.1148 80.3354 29.7813C80.528 28.4626 81.8022 27.544 83.195 27.7366C84.5729 27.9292 85.5508 29.159 85.373 30.4925Z" fill="#346CA3"/>
<path d="M92.3072 32.2408C92.1146 33.5595 90.8403 34.4781 89.4476 34.2855C88.0548 34.0929 87.077 32.8631 87.2696 31.5296C87.4622 30.211 88.7364 29.2924 90.1291 29.485C91.5219 29.6776 92.4998 30.9074 92.3072 32.2408Z" fill="#346CA3"/>
<path d="M85.373 30.4925C85.1804 31.8111 83.9062 32.7298 82.5134 32.5372C81.1206 32.3445 80.1428 31.1148 80.3354 29.7813C80.528 28.4626 81.8022 27.544 83.195 27.7366C84.5729 27.9292 85.5508 29.159 85.373 30.4925Z" stroke="black" stroke-miterlimit="10"/>
<path d="M92.3072 32.2408C92.1146 33.5595 90.8403 34.4781 89.4476 34.2855C88.0548 34.0929 87.077 32.8631 87.2696 31.5296C87.4622 30.211 88.7364 29.2924 90.1291 29.485C91.5219 29.6776 92.4998 30.9074 92.3072 32.2408Z" stroke="black" stroke-miterlimit="10"/>
<path d="M85.373 30.4925L87.3733 30.774" stroke="black" stroke-miterlimit="10"/>
<path d="M85.0322 31.2037L87.2695 31.5296" stroke="black" stroke-miterlimit="10"/>
<path d="M90.4996 37.2785C92.2628 38.0638 91.7738 38.8342 91.7738 38.8342C91.1071 39.3824 90.6181 39.8417 89.0031 36.9377C87.6993 34.5819 86.0695 34.9671 85.5064 35.1893L85.1508 35.1449C84.9434 34.8041 83.8173 33.2039 81.1504 34.6411C78.187 36.2413 78.0092 35.5894 77.7574 34.7745C77.7574 34.7745 77.787 33.8707 79.6983 34.1374C79.6983 34.1374 77.8166 32.552 76.9276 35.3968C76.9276 35.3968 76.5424 37.2488 79.565 38.3305C82.5876 39.4121 84.1137 37.723 84.1137 37.723C84.3656 37.6785 84.6026 37.6933 84.8397 37.7526L84.7952 37.9748C84.7952 37.9748 85.136 40.1825 88.2771 40.8789C91.4182 41.5605 92.1294 39.8121 92.1294 39.8121C92.9592 36.9377 90.4996 37.2785 90.4996 37.2785Z" fill="black"/>
<path d="M77.2091 40.4344C77.2091 40.4344 75.4015 44.0793 74.2606 44.6275" stroke="black" stroke-miterlimit="10"/>
<path d="M88.9734 43.3977C88.9734 43.3977 88.0696 45.2794 90.4699 46.924" stroke="black" stroke-miterlimit="10"/>
<path d="M53.6507 26.2549C54.2286 37.2044 58.4809 40.5085 58.4809 40.5085C60.2589 42.079 63.9334 41.9457 63.9334 41.9457C74.7051 42.3309 74.0828 27.2921 74.0828 27.2921V23.8843H53.0284L53.6507 26.2549Z" fill="white"/>
<path d="M54.8509 41.8271C54.8509 41.8271 54.4064 45.0423 54.6286 45.9165" stroke="black" stroke-miterlimit="10" stroke-linecap="round"/>
<path d="M74.0827 27.5588C74.142 28.4033 74.142 29.2479 74.0976 30.0924C74.0827 30.5073 74.0531 30.937 73.9938 31.3518C73.979 31.5593 73.9494 31.7667 73.9198 31.9889C73.8901 32.1964 73.8605 32.4038 73.8309 32.6112C73.8012 32.8187 73.7716 33.0261 73.7271 33.2335C73.6827 33.441 73.6531 33.6484 73.5938 33.8558C73.5493 34.0633 73.5049 34.2707 73.4456 34.4781L73.2826 35.1004L73.09 35.7079C73.0308 35.9153 72.9419 36.1079 72.8678 36.3154C72.7937 36.5228 72.7048 36.7154 72.6159 36.908L72.4826 37.2044C72.4381 37.3081 72.3788 37.397 72.3344 37.4859C72.1418 37.8711 71.9195 38.2415 71.6973 38.6119L71.3269 39.1453C71.1935 39.3231 71.0602 39.4861 70.912 39.6491L70.8083 39.7824L70.6898 39.901L70.4675 40.138C70.3934 40.2121 70.3193 40.301 70.2304 40.3751L69.9786 40.5974C69.8156 40.7455 69.6526 40.8937 69.46 41.0122L69.1933 41.2048C69.1044 41.2641 69.0155 41.3382 68.9118 41.3826L68.3339 41.7086C68.1413 41.7975 67.9339 41.8864 67.7264 41.9753C67.5338 42.079 67.3116 42.1235 67.1041 42.1975C66.8967 42.2568 66.6893 42.3309 66.467 42.3753L65.8151 42.5087L65.1632 42.5828C65.0595 42.5976 64.9409 42.6124 64.8372 42.6124H64.5113H63.8593H63.889C63.4148 42.6272 62.9703 42.5976 62.5258 42.568C62.0813 42.5235 61.622 42.4642 61.1775 42.3753C60.733 42.2864 60.2885 42.1679 59.844 42.0197C59.4144 41.8568 58.9847 41.6493 58.5846 41.3826C58.4809 41.3085 58.392 41.2345 58.3031 41.1604L58.229 41.0419C58.1846 41.0122 58.1401 40.953 58.0957 40.9233C58.0068 40.8344 57.9327 40.7603 57.8438 40.6714C57.7697 40.5825 57.6956 40.4936 57.6216 40.4047C57.4734 40.2269 57.34 40.0491 57.1919 39.8713C57.0585 39.6787 56.9252 39.5009 56.8067 39.3083L56.4511 38.7305C56.3325 38.5379 56.2288 38.3304 56.1251 38.1378C56.0066 37.9452 55.9177 37.7378 55.8288 37.5303C55.7399 37.3229 55.6361 37.1303 55.5472 36.9228L55.2954 36.3006L55.1768 35.9894C55.1324 35.8857 55.1028 35.782 55.0731 35.6783L54.8657 35.0411C54.836 34.9374 54.7916 34.8337 54.762 34.73L54.6731 34.404L54.5101 33.7521L54.4212 33.4261L54.3471 33.1002C54.2582 32.6705 54.1545 32.226 54.0804 31.7963L53.8878 30.4776C53.8582 30.2554 53.8433 30.0331 53.8137 29.8109L53.7544 29.1442L53.6952 28.4774L53.6655 27.8107L53.6211 26.492L53.7841 27.8107L53.8582 28.4626L53.9619 29.1145C54.036 29.5442 54.0952 29.9887 54.1841 30.4184L54.4508 31.7074C54.5397 32.1371 54.6583 32.552 54.7768 32.9816L54.8657 33.2928L54.9694 33.6039L55.162 34.2262L55.2657 34.5374C55.2954 34.6411 55.3398 34.7448 55.3694 34.8485L55.5917 35.456C55.6361 35.5597 55.6658 35.6634 55.7102 35.7672L55.8436 36.0635L56.0955 36.6561C56.1844 36.8488 56.2881 37.0414 56.377 37.234C56.4659 37.4266 56.5696 37.6192 56.6733 37.8118C56.777 38.0045 56.8807 38.1823 56.9993 38.3749L57.3549 38.9083C57.4734 39.0861 57.6067 39.249 57.7253 39.4268C57.8586 39.5898 57.992 39.7676 58.1253 39.9158L58.3328 40.1529C58.4068 40.2269 58.4809 40.301 58.555 40.3603C58.5995 40.3899 58.6143 40.4196 58.6587 40.4492L58.6735 40.464L58.6884 40.4788H58.7032L58.7328 40.5085L58.7921 40.5529C58.8661 40.6122 58.955 40.6714 59.0291 40.7307C59.3699 40.953 59.7403 41.1308 60.1256 41.2641C60.5256 41.3974 60.9257 41.516 61.3405 41.5901C61.7554 41.6641 62.1851 41.7234 62.6147 41.7679C63.0444 41.7975 63.4741 41.8123 63.889 41.8123H63.9186H64.5261H64.8372C64.9409 41.8123 65.0447 41.7975 65.1335 41.7827L65.741 41.7234L66.3337 41.6049C66.5263 41.5752 66.7189 41.516 66.9115 41.4567C67.1041 41.3974 67.2968 41.353 67.4746 41.2641C67.6524 41.19 67.845 41.1159 68.0228 41.027L68.5562 40.7455C68.6451 40.7011 68.734 40.6418 68.8081 40.5825L69.0599 40.4196C69.2377 40.3158 69.3859 40.1825 69.5341 40.0491L69.7711 39.8565C69.8452 39.7973 69.9193 39.7232 69.9934 39.6491L70.2156 39.4417L70.3193 39.3379L70.4231 39.2194C70.5564 39.0713 70.6898 38.9083 70.8083 38.7601L71.1639 38.2712C71.3861 37.9304 71.6084 37.5896 71.801 37.2192C71.8454 37.1303 71.9047 37.0414 71.9492 36.9525L72.0825 36.671C72.1714 36.4784 72.2603 36.3006 72.3344 36.1079C72.4085 35.9153 72.4974 35.7227 72.5715 35.5301L72.7937 34.9522L72.9863 34.3596C73.0456 34.167 73.1048 33.9595 73.1641 33.7669C73.2678 33.3669 73.3715 32.9668 73.4604 32.552C73.5049 32.3445 73.5493 32.1371 73.5938 31.9445C73.6382 31.7371 73.6679 31.5296 73.6975 31.3222C73.7271 31.1148 73.7716 30.9073 73.7864 30.6999C73.816 30.4925 73.8457 30.285 73.8753 30.0776C73.9346 29.6627 73.9642 29.2479 73.9938 28.833C74.0531 28.4033 74.0679 27.9885 74.0827 27.5588Z" fill="black"/>
<path d="M63.7112 36.1968C64.1705 36.3746 64.615 36.7451 64.778 37.3377C64.9706 38.0341 64.7187 38.6119 64.4668 39.2046" stroke="black" stroke-miterlimit="10" stroke-linecap="round"/>
<path d="M62.3776 36.508C62.3776 36.508 56.5695 37.2044 51.5171 38.9527C51.5171 38.9527 54.0359 40.1084 53.4284 42.2272C53.4284 42.2272 62.6147 39.7084 63.6222 39.2046C63.6222 39.2046 64.6446 37.071 62.3776 36.508Z" fill="#752D15"/>
<path d="M62.3776 36.508C62.3776 36.508 56.5695 37.2044 51.5171 38.9527C51.5171 38.9527 54.0359 40.1084 53.4284 42.2272C53.4284 42.2272 62.6147 39.7084 63.6222 39.2046C63.6222 39.2046 64.6446 37.071 62.3776 36.508Z" stroke="#602414" stroke-miterlimit="10"/>
<path d="M51.5171 38.9527C50.717 39.4268 49.4873 40.4344 50.1837 41.4271C51.0726 42.6865 53.4137 42.2272 53.4137 42.2123C53.6211 42.1679 53.5174 41.2196 53.4877 41.1159C53.2951 40.1084 52.3913 39.4268 51.5171 38.9527Z" fill="#C92127"/>
<path d="M51.5171 38.9527C50.717 39.4268 49.4873 40.4344 50.1837 41.4271C51.0726 42.6865 53.4137 42.2272 53.4137 42.2123C53.6211 42.1679 53.5174 41.2196 53.4877 41.1159C53.2951 40.1084 52.3913 39.4268 51.5171 38.9527Z" stroke="#6D6E71" stroke-miterlimit="10" stroke-linecap="round" stroke-linejoin="round"/>
<path d="M72.0529 37.7081C72.0529 37.7081 74.4531 39.0416 74.0827 44.3163" stroke="black" stroke-miterlimit="10" stroke-linecap="round"/>
<path d="M28.8478 32.9076C28.8478 32.9076 31.4703 41.7975 35.6634 42.9532C35.6634 42.9532 32.8779 37.3525 36.0634 36.5228C39.2342 35.6783 39.6787 36.4783 39.6787 36.4783C39.6787 36.4783 40.9973 34.7893 41.8271 34.8189C42.6568 34.8485 45.146 34.004 46.1387 41.6049C46.1387 41.6049 47.7092 41.6641 48.8649 37.3081C48.8649 37.3081 50.6874 31.3074 47.0425 20.6395C47.0425 20.6395 39.486 25.6326 38.8193 29.2627C38.8193 29.2479 26.9364 24.4918 28.8478 32.9076Z" fill="white"/>
<path d="M47.087 20.6395C47.087 20.6395 40.8344 24.8325 38.8193 29.2627C38.8193 29.2627 33.7225 30.3887 28.0477 29.5738C22.373 28.7589 20.3431 29.1293 20.3431 29.1293C20.3431 29.1293 19.1874 28.107 20.3431 27.2624C21.4988 26.4179 25.8252 23.2472 25.8252 23.2472C25.8252 23.2472 39.6787 23.8991 47.087 20.6395Z" fill="#D23B59"/>
<path d="M47.0869 20.3579C47.0869 20.3579 47.8574 9.36405 35.6337 9.73447C23.4101 10.1049 24.4769 21.5729 25.8252 22.9657C25.8252 22.9657 38.0488 23.7954 47.0869 20.3579Z" fill="#C2616C"/>
<path d="M47.0869 20.6394C47.0869 20.6394 47.8574 9.64556 35.6337 10.016C23.4101 10.3864 24.4769 21.8544 25.8252 23.2472C25.8252 23.2472 38.0488 24.0769 47.0869 20.6394Z" stroke="black" stroke-miterlimit="10" stroke-linecap="round" stroke-linejoin="round"/>
<path d="M33.4558 10.2086C33.4558 10.2086 26.1067 12.2681 28.996 23.3657" stroke="black" stroke-miterlimit="10" stroke-linecap="round" stroke-linejoin="round"/>
<path d="M35.0559 10.0012C35.0559 10.0012 34.2114 17.0538 36.4339 22.9656" stroke="black" stroke-miterlimit="10" stroke-linecap="round" stroke-linejoin="round"/>
<path d="M43.7237 21.6914C43.7237 21.6914 44.0496 11.8088 37.071 10.0012" stroke="black" stroke-miterlimit="10" stroke-linecap="round" stroke-linejoin="round"/>
<path d="M46.2128 41.8567L46.3758 41.7382L46.5239 41.6197C46.5684 41.5752 46.6276 41.5308 46.6721 41.4863C46.7165 41.4419 46.761 41.3974 46.8202 41.353C47.0129 41.1604 47.1758 40.9677 47.3388 40.7603C47.6796 40.3455 47.9759 39.9158 48.2723 39.4713L48.2575 39.4861L48.4204 38.9231C48.4649 38.7304 48.5093 38.5378 48.5538 38.3452C48.6279 37.96 48.7019 37.5748 48.7464 37.1747C48.776 36.9821 48.7908 36.7895 48.8057 36.582C48.8205 36.3894 48.8501 36.182 48.8501 35.9894C48.8649 35.7968 48.8797 35.5893 48.8797 35.3967L48.8946 34.8041C48.8946 34.404 48.8946 34.0188 48.8797 33.6187C48.8649 33.2187 48.8501 32.8335 48.8205 32.4334C48.7908 32.0334 48.7612 31.6481 48.7168 31.2481C48.6871 30.848 48.6279 30.4628 48.5834 30.0628C48.5241 29.6627 48.4797 29.2775 48.4204 28.8774C48.3612 28.4774 48.3019 28.0922 48.2426 27.7069C48.1834 27.3217 48.1241 26.9217 48.0648 26.5364L47.8722 25.3659L47.6796 24.1954L47.4722 23.0249L47.2647 21.8544L47.0573 20.6839L47.1018 20.6691C47.2351 21.0395 47.3536 21.4247 47.4722 21.8099C47.5907 22.1952 47.6944 22.5804 47.7981 22.9656C47.9019 23.3509 48.0056 23.7361 48.0945 24.1213C48.1834 24.5066 48.2723 24.9066 48.3612 25.2918C48.4501 25.6771 48.5241 26.0771 48.5982 26.4623C48.6723 26.8624 48.7316 27.2476 48.7908 27.6477C48.8501 28.0477 48.8946 28.4478 48.939 28.833C48.9835 29.233 49.0131 29.6331 49.0575 30.0331C49.0872 30.4332 49.1316 30.8332 49.1464 31.2333C49.1761 31.6333 49.1909 32.0334 49.2057 32.4334C49.2205 32.8335 49.2353 33.2335 49.2353 33.6336C49.2353 34.0336 49.2205 34.4336 49.2205 34.8337L49.1909 35.4412C49.1761 35.6486 49.1613 35.8412 49.1464 36.0487C49.1316 36.2561 49.102 36.4487 49.0872 36.6413C49.0724 36.8339 49.0427 37.0414 48.9983 37.234C48.939 37.634 48.8501 38.0193 48.7612 38.4193C48.7019 38.6119 48.6575 38.8045 48.5982 38.9971L48.4056 39.575V39.5898V39.6046C48.0945 40.0491 47.7685 40.464 47.4129 40.8788C47.2351 41.0863 47.0573 41.2789 46.8647 41.4567C46.8202 41.5011 46.761 41.5456 46.7165 41.59C46.6721 41.6345 46.6128 41.6789 46.5684 41.7234L46.4054 41.8419L46.2424 41.9456L46.2128 41.8567Z" fill="#020202"/>
<path d="M28.0625 29.559C28.0625 29.559 28.2551 30.5369 28.6848 31.9593C28.7885 32.3149 28.907 32.7001 29.0552 33.1002C29.1885 33.5002 29.3367 33.9299 29.5145 34.3596C29.6775 34.7892 29.8701 35.2337 30.0627 35.6782C30.2702 36.1227 30.4776 36.5672 30.6998 36.9969L30.8776 37.3229L31.0554 37.6488C31.174 37.8711 31.3073 38.0637 31.4258 38.2711C31.5444 38.4786 31.6925 38.6712 31.8111 38.8786C31.9444 39.0712 32.0778 39.2638 32.2111 39.4565C32.3445 39.6343 32.4778 39.8269 32.6112 40.0047C32.7445 40.1825 32.8779 40.3455 33.0112 40.5084C33.1446 40.6714 33.2779 40.8196 33.4113 40.9678C33.5446 41.1159 33.678 41.2493 33.7965 41.3826C33.9298 41.5011 34.0484 41.6345 34.1669 41.753C34.2854 41.8716 34.4188 41.9605 34.5225 42.0642C34.5818 42.1086 34.6262 42.1679 34.6855 42.2123C34.7448 42.2568 34.7892 42.3012 34.8485 42.3309C34.9522 42.405 35.0411 42.479 35.13 42.5531C35.3078 42.6865 35.4411 42.7754 35.5448 42.8346C35.6337 42.9087 35.693 42.9384 35.693 42.9384L35.6634 42.9828C35.6634 42.9828 35.6041 42.9532 35.5004 42.9087C35.3967 42.8643 35.2337 42.805 35.0263 42.7013C34.9226 42.642 34.8188 42.5976 34.7003 42.5235C34.641 42.4939 34.5818 42.4642 34.5225 42.4198C34.4632 42.3753 34.404 42.3457 34.3299 42.3012C34.1965 42.2123 34.0632 42.1234 33.9298 42.0197C33.7965 41.916 33.6483 41.7975 33.5002 41.6789C33.352 41.5456 33.2038 41.4122 33.0557 41.2789C32.9075 41.1307 32.7593 40.9826 32.6112 40.8196C32.463 40.6566 32.3148 40.4936 32.1667 40.3158C32.0185 40.138 31.8852 39.9454 31.737 39.7528C31.6036 39.5602 31.4703 39.3527 31.3369 39.1453C31.2184 38.9379 31.0851 38.7305 30.9665 38.5082C30.848 38.286 30.7295 38.0785 30.6109 37.8415L30.448 37.5007L30.285 37.1599C30.0627 36.7006 29.8701 36.2413 29.6923 35.782C29.5145 35.3226 29.3515 34.8633 29.1885 34.4188C29.0404 33.9743 28.907 33.5447 28.7885 33.1298C28.67 32.7149 28.5662 32.3297 28.4774 31.9593C28.1218 30.5073 27.9884 29.5146 27.9884 29.5146L28.0625 29.559Z" fill="#020202"/>
<path d="M39.6787 36.4783C39.6787 36.4783 41.0714 34.893 41.5604 34.8485C42.0345 34.8041 43.7681 34.4337 45.0275 36.8488C46.2721 39.2787 47.3833 46.8203 43.3976 47.6204C39.412 48.4057 35.13 43.8422 34.5966 39.738C34.0484 35.6338 38.2859 36.0042 39.6787 36.4783Z" fill="#E07353"/>
<path d="M39.6787 36.4783C39.6787 36.4783 41.0714 34.893 41.5604 34.8485C42.0345 34.8041 43.7681 34.4337 45.0275 36.8488C46.2721 39.2787 47.3833 46.8203 43.3976 47.6204C39.412 48.4057 35.13 43.8422 34.5966 39.738C34.0484 35.6338 38.2859 36.0042 39.6787 36.4783Z" stroke="#020202" stroke-miterlimit="10"/>
<path d="M39.812 38.3452C39.812 38.3452 40.864 36.9969 41.8271 37.3674C42.7902 37.7378 44.4793 40.953 42.2568 41.0419C40.0491 41.1308 40.0491 41.1308 40.0491 41.1308C40.0491 41.1308 39.1305 42.4791 38.5526 42.3902C37.9748 42.3013 36.6265 41.2789 36.6265 40.1084C36.6265 38.9379 36.7746 38.3304 37.2932 38.3304C37.8414 38.3452 38.6563 38.2415 39.812 38.3452Z" fill="white"/>
<path d="M39.9602 38.3452C39.9602 38.3452 41.0122 36.9969 41.9753 37.3674C42.9383 37.7378 44.6274 40.953 42.4049 41.0419C40.1973 41.1308 40.1973 41.1308 40.1973 41.1308C40.1973 41.1308 39.2787 42.4791 38.7008 42.3902C38.123 42.3013 36.7747 41.2789 36.7747 40.1084C36.7747 38.9379 36.9228 38.3304 37.4414 38.3304C37.9896 38.3452 38.8193 38.2415 39.9602 38.3452Z" stroke="#020202" stroke-miterlimit="10"/>
<path d="M40.4047 26.7142C40.4047 26.7142 44.9386 25.0548 47.65 25.7067C47.65 25.7067 49.4872 31.4555 44.4941 32.7001C39.4861 33.9447 39.0564 28.7737 39.0564 28.7737L40.4047 26.7142Z" fill="#373737"/>
<path d="M40.4047 26.7142C40.4047 26.7142 44.9386 25.0548 47.65 25.7067C47.65 25.7067 49.4872 31.4555 44.4941 32.7001C39.4861 33.9447 39.0564 28.7737 39.0564 28.7737L40.4047 26.7142Z" stroke="black" stroke-miterlimit="10"/>
<path d="M37.3378 29.5146C37.3378 29.5146 38.2564 34.4781 33.4558 34.8041C28.6553 35.13 28.0774 30.848 28.033 29.5886C28.033 29.5738 34.9375 30.0924 37.3378 29.5146Z" fill="#373737"/>
<path d="M37.3378 29.5146C37.3378 29.5146 38.2564 34.4781 33.4558 34.8041C28.6553 35.13 28.0774 30.848 28.033 29.5886C28.033 29.5738 34.9375 30.0924 37.3378 29.5146Z" stroke="black" stroke-miterlimit="10"/>
<path d="M47.087 20.6395C47.087 20.6395 40.8344 24.8325 38.8193 29.2627C38.8193 29.2627 33.7225 30.3887 28.0477 29.5738C22.373 28.7589 20.3431 29.1293 20.3431 29.1293C20.3431 29.1293 19.1874 28.107 20.3431 27.2624C21.4988 26.4179 25.8252 23.2472 25.8252 23.2472C25.8252 23.2472 39.6787 23.8991 47.087 20.6395Z" stroke="black" stroke-miterlimit="10" stroke-linecap="round" stroke-linejoin="round"/>
<path d="M78.098 26.3586C78.098 26.3586 74.8828 30.9666 73.8605 32.8779" stroke="black" stroke-miterlimit="10" stroke-linecap="round" stroke-linejoin="round"/>
<path d="M48.7909 37.6637C48.7909 37.6637 49.6651 44.8497 50.4207 46.8055" stroke="#020202" stroke-miterlimit="10" stroke-linecap="round" stroke-linejoin="round"/>
<path d="M106.353 53.0136C106.576 51.3838 108.739 50.1985 108.739 50.1985C108.739 50.1985 113.776 46.1091 115.199 44.746C115.199 44.746 116.147 44.9386 116.221 44.02L115.554 43.0717L115.199 42.568L114.532 41.6197C113.643 41.3826 113.51 42.3457 113.51 42.3457C111.747 43.2347 106.235 46.6573 106.235 46.6573C106.235 46.6573 104.412 48.3168 102.797 47.976C101.182 47.65 100.367 48.2279 100.367 48.2279L99.4636 48.4205L96.204 49.8429L96.441 56.6585L96.3521 61.7258L104.561 55.9029C104.531 55.888 106.131 54.6435 106.353 53.0136Z" fill="#26783D"/>
<path d="M106.353 53.0136C106.575 51.3838 108.739 50.1985 108.739 50.1985C108.739 50.1985 113.776 46.1091 115.199 44.746C115.199 44.746 116.147 44.9386 116.221 44.02L115.554 43.0717L115.199 42.568L114.532 41.6197C113.643 41.3826 113.51 42.3457 113.51 42.3457C111.746 43.2347 106.235 46.6573 106.235 46.6573C106.235 46.6573 104.412 48.3168 102.797 47.976C101.182 47.65 100.456 48.0797 100.456 48.0797L99.4487 48.4205L96.1891 49.8429L96.4261 56.6585L96.1594 61.8591L104.546 55.9029C104.531 55.888 106.131 54.6435 106.353 53.0136Z" stroke="black" stroke-miterlimit="10" stroke-linecap="round" stroke-linejoin="round"/>
<path d="M110.013 49.1465L109.835 44.4349L112.073 43.1162L112.013 47.4871L110.013 49.1465Z" fill="#C42127"/>
<path d="M110.013 49.1465L109.835 44.4349L112.073 43.1162L112.013 47.4871L110.013 49.1465Z" stroke="black" stroke-miterlimit="10" stroke-linecap="round" stroke-linejoin="round"/>
<path d="M106.353 39.2639C106.576 37.6341 108.739 36.4487 108.739 36.4487C108.739 36.4487 113.776 32.3594 115.199 30.9962C115.199 30.9962 116.147 31.1889 116.221 30.2702L115.554 29.322L115.199 28.8182L114.532 27.8699C113.643 27.6329 113.51 28.596 113.51 28.596C111.747 29.4849 106.235 32.9076 106.235 32.9076C106.235 32.9076 104.412 34.567 102.797 34.2262C101.182 33.9003 100.367 34.4781 100.367 34.4781L99.4636 34.6707L94.7964 36.9377L95.4187 42.8347L96.3521 47.9908L104.561 42.1679C104.531 42.1383 106.131 40.8937 106.353 39.2639Z" fill="#26783D"/>
<path d="M106.353 39.2639C106.575 37.6341 108.739 36.4487 108.739 36.4487C108.739 36.4487 113.776 32.3594 115.199 30.9962C115.199 30.9962 116.147 31.1889 116.221 30.2702L115.554 29.322L115.199 28.8182L114.532 27.8699C113.643 27.6329 113.51 28.596 113.51 28.596C111.746 29.4849 106.235 32.9076 106.235 32.9076C106.235 32.9076 104.412 34.567 102.797 34.2262C101.182 33.9003 100.456 34.33 100.456 34.33L99.4487 34.6707L94.7815 36.9377L95.4038 42.8347L96.1594 48.1094L104.546 42.1531C104.531 42.1383 106.131 40.8937 106.353 39.2639Z" stroke="black" stroke-miterlimit="10" stroke-linecap="round" stroke-linejoin="round"/>
<path d="M110.013 35.4116L109.835 30.6851L112.073 29.3812L112.013 33.7373L110.013 35.4116Z" fill="#C42127"/>
<path d="M110.013 35.4116L109.835 30.6851L112.073 29.3812L112.013 33.7373L110.013 35.4116Z" stroke="black" stroke-miterlimit="10" stroke-linecap="round" stroke-linejoin="round"/>
<path d="M106.353 64.941C106.575 63.3111 108.739 62.1258 108.739 62.1258C108.739 62.1258 113.776 58.0364 115.199 56.6733C115.199 56.6733 116.147 56.8659 116.221 55.9473L115.554 54.999L115.199 54.4953L114.532 53.547C113.643 53.31 113.51 54.273 113.51 54.273C111.746 55.162 106.235 58.5847 106.235 58.5847C106.235 58.5847 104.412 60.2441 102.797 59.9033C101.182 59.5774 100.367 60.1552 100.367 60.1552L99.4635 60.3478L96.352 62.674L95.2408 69.0896L93.0924 76.9275L104.56 67.8302C104.531 67.8302 106.131 66.5708 106.353 64.941Z" fill="#26783D"/>
<path d="M106.353 64.941C106.576 63.3111 108.739 62.1258 108.739 62.1258C108.739 62.1258 113.776 58.0364 115.199 56.6733C115.199 56.6733 116.147 56.8659 116.221 55.9473L115.554 54.999L115.199 54.4953L114.532 53.547C113.643 53.31 113.51 54.273 113.51 54.273C111.746 55.162 106.235 58.5847 106.235 58.5847C106.235 58.5847 104.412 60.2441 102.797 59.9033C101.182 59.5774 100.456 60.007 100.456 60.007L99.4488 60.3478L96.3373 62.674L95.226 69.0896L93.0776 76.9275L104.546 67.8302C104.531 67.8302 106.131 66.5708 106.353 64.941Z" stroke="black" stroke-miterlimit="10" stroke-linecap="round" stroke-linejoin="round"/>
<path d="M110.013 61.0886L109.835 56.377L112.073 55.0583L112.013 59.4292L110.013 61.0886Z" fill="#C42127"/>
<path d="M110.013 61.0886L109.835 56.377L112.073 55.0583L112.013 59.4292L110.013 61.0886Z" stroke="black" stroke-miterlimit="10" stroke-linecap="round" stroke-linejoin="round"/>
<path d="M29.9294 41.5604L28.3885 40.79C28.3885 40.79 25.9437 39.8121 25.5585 40.3899L22.6248 38.9083L20.595 42.9236L23.4249 44.3459C23.4249 44.3459 23.7064 45.5164 25.603 46.5388L29.6034 49.3836L29.9294 41.5604Z" fill="#F9F077"/>
<path d="M30.0331 41.2493L28.3885 40.4788C28.3885 40.4788 25.9437 39.7084 25.5585 40.2862L22.6248 38.8046L20.595 42.8198L23.4249 44.2422C23.4249 44.2422 23.7064 45.6202 25.603 46.6425L29.6775 49.0132L30.0331 41.2493Z" stroke="black" stroke-miterlimit="10" stroke-linecap="round" stroke-linejoin="round"/>
<path d="M29.5294 52.8655L27.9885 52.095C27.9885 52.095 25.5437 51.1171 25.1585 51.695L22.2248 50.2133L20.1949 54.2286L23.0249 55.651C23.0249 55.651 23.3064 56.8215 25.2029 57.8438L29.5146 59.9181V52.8655H29.5294Z" fill="#F9F077"/>
<path d="M29.2034 52.3469L27.9884 51.769C27.9884 51.769 25.5437 50.9986 25.1585 51.5764L22.2248 50.0948L20.2097 54.1101L23.0397 55.5324C23.0397 55.5324 23.3212 56.9104 25.2177 57.9327L29.5293 59.9033L29.2034 52.3469Z" stroke="black" stroke-miterlimit="10" stroke-linecap="round" stroke-linejoin="round"/>
<path d="M30.3295 64.4076L29.4998 64.3187C29.4998 64.3187 27.055 63.3408 26.6698 63.9186L23.7361 62.437L21.7211 66.4522L24.551 67.8746C24.551 67.8746 24.8325 69.0451 26.7291 70.0675L31.4259 72.3937L30.3295 64.4076Z" fill="#F9F077"/>
<path d="M30.3295 64.4076L29.4998 64.0223C29.4998 64.0223 27.055 63.2519 26.6698 63.8297L23.7361 62.3481L21.7211 66.3633L24.551 67.7857C24.551 67.7857 24.8325 69.1637 26.7291 70.186L31.663 72.4085L30.3295 64.4076Z" stroke="black" stroke-miterlimit="10" stroke-linecap="round" stroke-linejoin="round"/>
<path d="M12.4014 37.723C15.8092 40.227 20.7579 42.6124 20.7579 42.6124L22.447 39.2639C18.3873 37.1896 15.4832 36.0783 13.483 35.4708C13.2607 36.3006 12.8903 37.071 12.4014 37.723Z" fill="#FBAB42"/>
<path d="M13.4682 35.4857C10.5197 34.6115 9.46777 34.8486 9.46777 34.8486C9.92709 35.7375 11.0383 36.7451 12.3866 37.7378C12.8904 37.071 13.2608 36.3006 13.4682 35.4857Z" fill="#D3652D"/>
<path d="M12.4014 37.6341C15.8092 40.1381 20.7579 42.5235 20.7579 42.5235L22.447 39.175C18.3873 37.1007 15.4832 35.9894 13.483 35.382C13.2607 36.1969 12.8903 36.9673 12.4014 37.6341Z" stroke="black" stroke-miterlimit="10" stroke-linecap="round" stroke-linejoin="round"/>
<path d="M13.4682 35.3819C10.5197 34.5078 9.46777 34.7448 9.46777 34.7448C9.92709 35.6338 11.0383 36.6414 12.3866 37.6341C12.8904 36.9673 13.2608 36.1969 13.4682 35.3819Z" stroke="black" stroke-miterlimit="10" stroke-linecap="round" stroke-linejoin="round"/>
<path d="M11.9866 49.028C15.3944 51.532 20.3431 53.9175 20.3431 53.9175L22.0322 50.5689C17.9725 48.4946 15.0684 47.3834 13.0682 46.7759C12.8459 47.5908 12.4903 48.3761 11.9866 49.028Z" fill="#FBAB42"/>
<path d="M13.0533 46.7759C10.1048 45.9017 9.05286 46.1388 9.05286 46.1388C9.51217 47.0278 10.6234 48.0353 11.9717 49.028C12.4903 48.3761 12.8459 47.5908 13.0533 46.7759Z" fill="#D3652D"/>
<path d="M11.9866 48.9243C15.3944 51.4283 20.3431 53.8137 20.3431 53.8137L22.0322 50.4652C17.9725 48.3909 15.0684 47.2796 13.0682 46.6722C12.8459 47.5019 12.4903 48.2724 11.9866 48.9243Z" stroke="black" stroke-miterlimit="10" stroke-linecap="round" stroke-linejoin="round"/>
<path d="M13.0533 46.6722C10.1048 45.798 9.05286 46.0351 9.05286 46.0351C9.51217 46.924 10.6234 47.9316 11.9717 48.9243C12.4903 48.2724 12.8459 47.5019 13.0533 46.6722Z" stroke="black" stroke-miterlimit="10" stroke-linecap="round" stroke-linejoin="round"/>
<path d="M13.5275 61.2665C16.9353 63.7705 21.884 66.1559 21.884 66.1559L23.5731 62.8074C19.5134 60.7331 16.6093 59.6218 14.6091 59.0144C14.372 59.8293 14.0164 60.6145 13.5275 61.2665Z" fill="#FBAB42"/>
<path d="M14.5942 59.0144C11.6457 58.1402 10.5938 58.3772 10.5938 58.3772C11.0531 59.2662 12.1643 60.2738 13.5126 61.2665C14.0164 60.6146 14.372 59.8293 14.5942 59.0144Z" fill="#D3652D"/>
<path d="M13.5275 61.1627C16.9353 63.6668 21.884 66.0522 21.884 66.0522L23.5731 62.7037C19.5134 60.6294 16.6093 59.5181 14.6091 58.9106C14.372 59.7404 14.0164 60.5108 13.5275 61.1627Z" stroke="black" stroke-miterlimit="10" stroke-linecap="round" stroke-linejoin="round"/>
<path d="M14.5942 58.9106C11.6457 58.0365 10.5938 58.2735 10.5938 58.2735C11.0531 59.1625 12.1643 60.17 13.5126 61.1627C14.0164 60.5108 14.372 59.7404 14.5942 58.9106Z" stroke="black" stroke-miterlimit="10" stroke-linecap="round" stroke-linejoin="round"/>
<path d="M31.337 73.3138C30.4332 74.4991 29.485 72.6915 29.485 72.6915C29.3961 75.6251 27.4106 74.1583 27.4106 74.1583C27.4106 76.8994 24.6103 77.0772 24.6103 77.0772C25.6919 78.9737 24.0325 80.3368 24.0325 80.3368C26.3883 80.7813 24.6103 83.6409 24.6103 83.6409C26.9069 83.1964 26.492 88.0711 26.492 88.0711C29.9887 87.1228 29.2627 91.0936 29.2627 91.0936C31.8704 90.0713 31.263 93.3754 31.263 93.3754C33.7077 91.9678 34.6708 97.3314 34.6708 97.3314C38.1675 95.8053 37.1748 99.7465 37.1748 99.7465C40.3159 98.0278 38.8194 102.295 38.8194 102.295C42.079 101.273 41.1604 104.932 41.1604 104.932C44.1534 103.688 44.3608 107.836 44.3608 107.836C47.0574 105.999 47.6501 109.807 47.6501 109.807C49.8133 107.066 50.8208 110.8 50.8208 110.8C54.1101 108.355 54.5249 112.8 54.5249 112.8C57.1327 110.385 57.4586 114.074 57.4586 114.074C60.6442 111.466 61.0146 115.482 61.0146 115.482C63.6223 112.104 64.9706 116.178 64.9706 116.178C66.6301 112.489 68.9266 115.674 68.9266 115.674C69.6378 112.044 72.5567 114.726 72.5567 114.726C72.0085 110.903 75.194 113.2 75.194 113.2C74.1569 110.014 77.6832 110.355 77.6832 110.355C76.8535 107.125 79.9057 108.814 79.9057 108.814C79.7131 105.318 83.4913 107.214 83.4913 107.214C82.4245 104.354 86.0398 105.362 86.0398 105.362C84.6618 102.236 88.04 102.562 88.04 102.562C86.3657 99.5094 90.544 98.6797 90.544 98.6797C88.4549 95.6127 92.722 95.8646 92.722 95.8646C90.6181 92.6197 95.5816 93.2272 95.5816 93.2272C94.4407 89.849 97.8782 91.0195 97.8782 91.0195C97.4189 90.4417 98.2931 88.1896 99.1228 87.3599C99.9525 86.5301 101.034 87.3599 101.034 87.3599C101.034 87.3599 100.278 86.1449 100.649 85.2707C101.034 84.3965 102.753 84.278 102.753 84.278C101.923 83.8631 101.73 82.7815 101.923 81.8925C102.116 81.0036 103.953 80.0849 103.953 80.0849C103.953 80.0849 102.042 79.2107 102.042 78.3514C102.042 77.492 103.375 76.0993 103.375 76.0993C103.375 76.0993 101.019 76.603 100.767 75.714C100.516 74.8251 101.716 72.973 101.716 72.973C99.7451 74.3806 98.0264 73.0619 98.0264 73.0619L95.8335 74.7954C103.301 79.9071 97.8486 86.7672 97.8486 86.7672C97.8486 86.7672 91.107 94.4125 83.2542 103.451C83.2542 103.451 76.572 110.977 65.9337 113.185C65.9337 113.185 48.5539 108.014 42.3309 102.814C42.3309 102.814 30.5666 90.4121 27.2773 84.3669C27.2773 84.3669 23.8399 78.0995 32.1371 73.8916C32.1668 73.9064 32.0334 72.41 31.337 73.3138Z" fill="#808285"/>
<path d="M31.337 73.2086C30.4332 74.3939 29.485 72.5863 29.485 72.5863C29.3961 75.52 27.4106 74.0531 27.4106 74.0531C27.4106 76.7942 24.6103 76.972 24.6103 76.972C25.6919 78.8685 24.0325 80.2316 24.0325 80.2316C26.3883 80.6761 24.6103 83.5357 24.6103 83.5357C26.9069 83.0912 26.492 87.9659 26.492 87.9659C29.9887 87.0176 29.2627 90.9885 29.2627 90.9885C31.8704 89.9661 31.263 93.2702 31.263 93.2702C33.7077 91.8626 34.6708 97.2262 34.6708 97.2262C38.1675 95.7001 37.1748 99.6413 37.1748 99.6413C40.3159 97.9226 38.8194 102.19 38.8194 102.19C42.079 101.167 41.1604 104.827 41.1604 104.827C44.1534 103.583 44.3608 107.731 44.3608 107.731C47.0574 105.894 47.6501 109.702 47.6501 109.702C49.8133 106.961 50.8208 110.694 50.8208 110.694C54.1101 108.25 54.5249 112.695 54.5249 112.695C57.1327 110.28 57.4586 113.969 57.4586 113.969C60.6442 111.361 61.0146 115.377 61.0146 115.377C63.6223 111.998 64.9706 116.073 64.9706 116.073C66.6301 112.384 68.9266 115.569 68.9266 115.569C69.6378 111.939 72.5567 114.621 72.5567 114.621C72.0085 110.798 75.194 113.095 75.194 113.095C74.1569 109.909 77.6832 110.25 77.6832 110.25C76.8535 107.02 79.9057 108.709 79.9057 108.709C79.7131 105.212 83.4913 107.109 83.4913 107.109C82.4245 104.249 86.0398 105.257 86.0398 105.257C84.6618 102.131 88.04 102.456 88.04 102.456C86.3657 99.4043 90.544 98.5745 90.544 98.5745C88.44 95.5223 92.7072 95.7742 92.7072 95.7742C90.6033 92.5294 95.5668 93.1369 95.5668 93.1369C94.4259 89.7587 97.8634 90.9292 97.8634 90.9292C97.4041 90.3514 98.2782 88.0992 99.108 87.2695C99.9377 86.4398 101.019 87.2695 101.019 87.2695C101.019 87.2695 100.264 86.0546 100.634 85.1804C101.019 84.3062 102.738 84.1877 102.738 84.1877C101.908 83.7728 101.716 82.6912 101.908 81.8022C102.101 80.9132 103.938 79.9946 103.938 79.9946C103.938 79.9946 102.027 79.1204 102.027 78.261C102.027 77.4017 103.36 76.0089 103.36 76.0089C103.36 76.0089 101.004 76.5127 100.753 75.6237C100.501 74.7347 101.701 72.8826 101.701 72.8826C99.7303 74.2902 98.0115 72.9715 98.0115 72.9715L95.8187 74.7051C103.286 79.8168 97.8337 86.6768 97.8337 86.6768C97.8337 86.6768 91.0922 94.3222 83.2394 103.36C83.2394 103.36 76.5572 110.887 65.9189 113.095C65.9189 113.095 48.5391 107.924 42.3161 102.723C42.3161 102.723 30.5518 90.3217 27.2625 84.2766C27.2625 84.2766 23.825 78.0092 32.1223 73.8013C32.1668 73.8013 32.0334 72.3048 31.337 73.2086Z" stroke="black" stroke-miterlimit="10" stroke-linecap="round" stroke-linejoin="round"/>
<path d="M114.769 41.2345L116.71 43.9755L116.251 44.8349C116.251 44.8349 116.103 44.257 115.688 44.0348C115.688 44.0348 115.702 43.3829 115.169 43.3088C115.169 43.3088 115.332 42.6569 114.651 42.5828C114.651 42.5828 114.725 41.7382 114.102 41.8271C114.102 41.8271 114.087 41.353 113.747 41.3234L114.769 41.2345Z" fill="#808285"/>
<path d="M114.769 41.2345L116.71 43.9755L116.251 44.8349C116.251 44.8349 116.103 44.257 115.688 44.0348C115.688 44.0348 115.702 43.3829 115.169 43.3088C115.169 43.3088 115.332 42.6569 114.651 42.5828C114.651 42.5828 114.725 41.7382 114.102 41.8271C114.102 41.8271 114.087 41.353 113.747 41.3234L114.769 41.2345Z" stroke="black" stroke-miterlimit="10" stroke-linecap="round" stroke-linejoin="round"/>
<path d="M114.769 27.4847L116.71 30.2258L116.251 31.0851C116.251 31.0851 116.103 30.5073 115.688 30.285C115.688 30.285 115.702 29.6331 115.169 29.559C115.169 29.559 115.332 28.9071 114.651 28.833C114.651 28.833 114.725 27.9885 114.102 28.0774C114.102 28.0774 114.087 27.6032 113.747 27.5736L114.769 27.4847Z" fill="#808285"/>
<path d="M114.769 27.4847L116.71 30.2258L116.251 31.0851C116.251 31.0851 116.103 30.5073 115.688 30.285C115.688 30.285 115.702 29.6331 115.169 29.559C115.169 29.559 115.332 28.9071 114.651 28.833C114.651 28.833 114.725 27.9885 114.102 28.0774C114.102 28.0774 114.087 27.6032 113.747 27.5736L114.769 27.4847Z" stroke="black" stroke-miterlimit="10" stroke-linecap="round" stroke-linejoin="round"/>
<path d="M114.769 53.1618L116.71 55.9029L116.251 56.7622C116.251 56.7622 116.103 56.1844 115.688 55.9621C115.688 55.9621 115.702 55.3102 115.169 55.2361C115.169 55.2361 115.332 54.5842 114.651 54.5101C114.651 54.5101 114.725 53.6656 114.102 53.7545C114.102 53.7545 114.087 53.2803 113.747 53.2507L114.769 53.1618Z" fill="#808285"/>
<path d="M114.769 53.1618L116.71 55.9029L116.251 56.7622C116.251 56.7622 116.103 56.1844 115.688 55.9621C115.688 55.9621 115.702 55.3102 115.169 55.2361C115.169 55.2361 115.332 54.5842 114.651 54.5101C114.651 54.5101 114.725 53.6656 114.102 53.7545C114.102 53.7545 114.087 53.2803 113.747 53.2507L114.769 53.1618Z" stroke="black" stroke-miterlimit="10" stroke-linecap="round" stroke-linejoin="round"/>
<path d="M76.6904 23.2175L80.1723 16.5501C80.1723 16.5501 81.817 14.3721 84.9136 14.8314C88.0103 15.2907 90.1142 15.5426 92.3367 15.913C94.5592 16.2834 100.219 17.5132 99.8635 21.2173C99.5079 24.9214 99.4191 25.4697 98.8857 27.6921C98.3374 29.9146 99.9228 32.952 99.9228 32.952C99.9228 32.952 102.545 39.0416 101.76 42.8198C101.76 42.8198 94.9741 41.3678 95.6556 31.0259C95.6556 31.0259 79.8019 25.6919 77.935 25.9142" fill="#9A602D"/>
<path d="M76.6904 23.2175L80.1723 16.5501C80.1723 16.5501 81.817 14.3721 84.9136 14.8314C88.0103 15.2907 90.1142 15.5426 92.3367 15.913C94.5592 16.2834 100.219 17.5132 99.8635 21.2173C99.5079 24.9214 99.4191 25.4697 98.8857 27.6921C98.3374 29.9146 99.9228 32.952 99.9228 32.952C99.9228 32.952 102.545 39.0416 101.76 42.8198C101.76 42.8198 94.9741 41.3678 95.6556 31.0259C95.6556 31.0259 79.8019 25.6919 77.935 25.9142" stroke="black" stroke-miterlimit="10" stroke-linecap="round" stroke-linejoin="round"/>
<path d="M95.063 30.8333C95.063 30.8333 98.0115 25.5438 95.8631 22.4619C95.8631 22.4619 84.3803 19.3208 82.5134 19.469C80.6465 19.6171 79.7723 21.484 78.6759 25.9586L95.063 30.8333Z" fill="black"/>
<path d="M89.4772 27.2476L87.6992 25.8993L85.5211 26.329L86.336 24.551L85.047 22.8471L87.3139 23.0842L88.7067 21.6025L89.2994 23.5435L91.4329 24.3288L89.5364 25.2919L89.4772 27.2476Z" fill="#FBED22"/>
<path d="M51.2801 21.4247C51.9024 16.5501 52.0802 16.0463 54.5842 13.083C57.0882 10.1197 63.9334 9.89746 63.9334 9.89746C63.9334 9.89746 63.9334 9.89746 69.9786 10.8754C76.0237 11.8532 76.1423 22.5804 76.1423 22.5804C77.9647 24.8474 78.0832 26.3587 78.0832 26.3587C69.8749 22.6249 63.0592 23.7213 63.0592 23.7213C53.7396 23.9436 49.1021 27.1291 49.1021 27.1291C49.1021 27.1291 50.0948 25.5289 50.6874 23.4694" fill="#80A443"/>
<path d="M50.7024 23.471C50.0653 25.5157 49.1171 27.1307 49.1171 27.1307C49.1171 27.1307 53.7398 23.9451 63.0743 23.7229C63.0743 23.7229 69.8899 22.6265 78.0982 26.3602C78.0982 26.3602 77.9797 24.8489 76.1573 22.582C75.9498 22.3301 76.0832 21.1893 76.0387 20.8781C75.8906 19.4557 75.6387 18.0185 75.209 16.6554C73.92 12.5364 71.5641 11.0103 67.2081 10.3139C63.2817 9.67679 57.3551 9.81014 54.5844 13.0846C52.0804 16.0479 51.9026 16.5517 51.2803 21.4263C51.2803 21.4263 50.8802 22.908 50.7024 23.471Z" stroke="black" stroke-miterlimit="10" stroke-linecap="round" stroke-linejoin="round"/>
<path d="M53.1914 17.3946C53.0877 17.9428 53.2951 18.4466 53.6359 18.4911C53.9766 18.5503 54.3322 18.1503 54.436 17.5872C54.5397 17.039 54.3322 16.5353 53.9915 16.4908C53.6359 16.4316 53.2803 16.8464 53.1914 17.3946Z" fill="black"/>
<path d="M73.0011 18.5059C73.3776 18.5059 73.6827 17.9221 73.6827 17.202C73.6827 16.4819 73.3776 15.8982 73.0011 15.8982C72.6247 15.8982 72.3196 16.4819 72.3196 17.202C72.3196 17.9221 72.6247 18.5059 73.0011 18.5059Z" fill="black"/>
<path d="M64.2298 15.9574C64.2298 16.4612 63.8149 16.8613 63.2815 16.8613C62.7629 16.8613 62.3333 16.4612 62.3333 15.9574C62.3333 15.4537 62.7481 15.0536 63.2815 15.0536C63.8149 15.0536 64.2298 15.4537 64.2298 15.9574Z" fill="black"/>
<path d="M50.2873 59.1181C50.2873 59.1181 54.8656 55.1176 52.9246 48.4353H39.812C39.812 48.4353 36.2856 48.5539 36.2856 51.7394C36.2856 54.925 36.9079 65.1484 36.8339 68.0969H42.716L43.3531 64.6595L47.3092 67.0449L55.7546 66.7634L50.2873 59.1181ZM47.6648 52.9988C47.3092 53.6063 46.7906 54.1101 46.2868 54.6138C46.1979 54.7324 46.0942 54.8361 45.946 54.9102C45.2497 55.3102 44.5237 54.3916 45.057 53.7989C45.057 53.7841 45.0719 53.8137 45.0867 53.7248C45.1015 53.5619 45.0867 53.3989 45.0867 53.2359C45.0719 52.9396 45.0274 52.6432 45.0274 52.3469C45.0126 51.7246 45.6645 51.5172 46.0942 51.7394C46.5387 51.6209 47.0425 51.769 47.4129 52.0209C47.724 52.2432 47.8722 52.6432 47.6648 52.9988Z" fill="#F89630"/>
<path d="M74.0976 49.2502H81.98L83.9506 54.7324V48.0501L89.3142 48.4353L89.7587 65.8151L83.0764 66.5856L79.2241 59.3848L79.9946 66.5856L74.3939 66.0078L73.416 57.3253C73.4012 57.3104 74.5865 52.7321 74.0976 49.2502Z" fill="#F89630"/>
<path d="M45.1608 77.1794C45.1608 77.1794 47.887 74.9718 47.6944 73.905C47.5018 72.8382 48.702 68.3488 45.0719 68.4969C41.4418 68.6451 37.6192 68.0228 36.6265 69.3563C36.6265 69.3563 38.7304 80.0687 43.0272 84.3803L48.0945 84.0099C48.0797 84.0099 45.7386 80.1872 45.1608 77.1794ZM43.768 73.5642C43.0865 73.9939 42.4197 73.0901 42.8346 72.5122C42.8346 72.4974 42.8346 72.4974 42.8346 72.4826C42.8346 72.4826 42.8346 72.4678 42.8346 72.453C42.8346 72.3344 42.8346 72.2159 42.8198 72.0826C42.805 71.964 42.7605 71.6973 42.7013 71.5047C42.5531 71.0898 42.805 70.7787 43.1309 70.675C43.3235 70.5268 43.6051 70.4824 43.8866 70.6305C44.9386 71.2084 44.6867 72.9864 43.768 73.5642Z" fill="#F89630"/>
<path d="M54.3323 75.9348C57.3401 73.0308 56.9104 70.7194 56.9548 69.5341C56.9993 68.334 53.4285 68.4673 53.4285 68.4673C48.6576 68.3043 48.3168 69.5934 48.3168 69.5934C48.9391 72.6456 48.3168 83.432 48.3168 83.432C49.265 84.0988 51.5616 83.8617 51.5616 83.8617C51.5171 81.091 52.2728 81.417 52.2728 81.417C52.9395 80.8688 54.1841 83.8617 54.1841 83.8617L57.2363 83.432C56.1399 82.5282 54.3323 75.9348 54.3323 75.9348ZM53.0729 71.964C52.6728 72.1418 52.2876 72.4381 51.8579 72.5122C51.5171 72.5715 51.043 72.4085 50.9838 72.0085C50.9393 71.7714 50.9245 71.5492 50.9245 71.3121C50.9245 70.9417 51.206 70.6602 51.5616 70.6009C51.6949 70.4527 51.8876 70.3638 52.0802 70.3638C52.4506 70.3935 52.7766 70.512 53.0729 70.7194C53.4729 71.0009 53.5915 71.727 53.0729 71.964Z" fill="#F89630"/>
<path d="M62.6444 68.0969H58.4068C58.3328 70.4379 57.2511 82.9431 57.2511 82.9431C57.1474 84.084 59.7848 84.3655 59.7848 84.3655L60.4071 82.1874L61.7406 84.3655L65.3706 83.6691C64.6002 82.6171 62.6444 68.0969 62.6444 68.0969ZM61.2961 78.5426C61.0146 78.6315 60.6886 78.5574 60.4071 78.4685C60.0218 78.3499 59.8144 77.9795 59.9033 77.5943C59.9329 77.4906 59.9774 77.4017 60.0367 77.3276C60.0218 77.135 60.0367 76.9424 60.0663 76.735C60.1107 76.3349 60.3626 76.0386 60.7775 76.0237C61.1775 76.0089 61.4739 76.3645 61.4887 76.735C61.5035 76.7794 61.5183 76.8238 61.5331 76.8683C61.548 76.9127 61.5776 76.9572 61.5924 77.0016C61.6813 77.1794 61.785 77.3572 61.8295 77.5499C61.9628 77.9647 61.7258 78.4092 61.2961 78.5426Z" fill="#F89630"/>
<path d="M73.4752 73.4457C73.4752 73.4457 73.7123 67.0449 70.4674 67.1931C67.2226 67.3413 66.0225 67.4746 65.3557 73.4457C64.689 79.4167 65.741 83.0468 68.5117 83.1801C71.2824 83.3283 73.1937 83.3728 72.8529 79.4019C72.5121 75.4459 72.1417 76.3942 72.1417 76.3942C72.1417 76.3942 69.4747 75.6089 69.4155 76.4238C69.371 77.2387 68.8969 77.9054 69.8451 79.3871C70.7934 80.8688 68.4672 80.5428 68.319 78.7648C68.1709 77.0016 67.1189 74.7051 68.5561 73.1345C69.9933 71.564 71.2527 71.9936 71.6528 73.1345L73.4752 73.4457Z" fill="#F89630"/>
<path d="M83.0616 67.4746C81.9504 66.7634 80.5724 67.8154 80.5724 67.8154C80.5724 69.8156 78.3055 71.2676 78.3055 71.2676C76.7201 71.5491 75.7274 67.4153 75.7274 67.4153L73.5494 67.5042C73.5494 67.6968 73.5346 67.8895 73.5346 68.0821C73.1345 81.3873 77.8314 82.5134 77.8314 82.5134C86.3805 76.2608 83.0616 67.4746 83.0616 67.4746Z" fill="#F89630"/>
<path d="M90.6179 72.69C90.6179 72.69 92.4997 68.2006 90.6179 66.3189C90.6179 66.3189 85.0173 66.6893 84.3505 67.1931C83.6838 67.682 83.8468 70.4675 83.8172 70.7046C83.7727 70.9417 84.3209 76.735 82.1725 79.9798C82.1725 79.9798 80.9872 82.1578 80.9872 82.5282C80.9872 82.9135 86.3952 83.758 87.8621 81.8467L88.8548 79.1056L86.8545 79.6094C86.8545 79.6094 85.5951 76.8831 88.1732 76.4386C88.1732 76.4386 89.5363 76.3053 89.6845 77.2832V74.2754C89.6845 74.2754 88.0547 74.9421 87.2842 73.1049C87.2842 73.1049 87.225 70.838 89.4919 71.6973C89.4919 71.6973 90.3364 72.0233 90.6179 72.69Z" fill="#F89630"/>
<path d="M44.5978 84.8989C44.5978 84.8989 43.8273 85.7286 45.1015 87.8029C46.3758 89.8772 53.5322 98.4856 53.5322 98.4856L58.4513 98.6338L53.4433 93.1369C53.4433 93.1369 55.6065 92.4849 56.3325 92.2923L55.888 90.2921C55.888 90.2921 52.9988 90.8996 52.2728 90.0106C51.5616 89.1216 52.1987 87.4621 53.2358 87.5214C54.2878 87.5807 54.7619 87.4029 54.7619 87.4029L55.0435 84.5284C55.0435 84.5284 46.8203 84.0691 44.5978 84.8989Z" fill="#F89630"/>
<path d="M56.777 85.61L61.9925 85.1655C61.9925 85.1655 62.9852 89.9809 64.9558 89.6698C64.9558 89.6698 67.2079 89.8772 67.4005 85.1655C67.4005 85.1655 70.5268 84.2173 72.9419 85.5804C72.9419 85.5804 73.742 98.3671 65.7855 100.678C65.7855 100.678 56.6141 101.049 56.777 85.61Z" fill="#F89630"/>
<path d="M73.7716 84.8989L76.0237 84.8396C76.0237 84.8396 76.7645 88.277 77.7128 88.3363L78.5425 84.8989L82.78 85.1952L78.0239 96.9744L74.8976 98.1745C74.8976 98.1745 75.0754 94.4407 74.468 94.5593C73.8605 94.6926 72.9863 98.619 72.9863 98.619L71.149 99.671C71.149 99.671 72.2307 95.3445 72.4085 94.7667C72.5863 94.1889 73.1789 91.2107 73.2234 90.5588C73.2382 89.9069 73.7123 86.0101 73.7716 84.8989Z" fill="#F89630"/>
<path d="M74.0976 49.1465H81.98L83.9506 54.7324V47.9464L89.3142 48.3316L89.7587 65.7114L83.0764 66.4819L79.2241 59.3848L79.9946 66.4819L74.3939 65.904L73.416 57.2215C73.4012 57.2215 74.5865 52.6432 74.0976 49.1465Z" stroke="black" stroke-miterlimit="10" stroke-linecap="round" stroke-linejoin="round"/>
<path d="M36.8339 68.008H42.7161L43.3532 64.5705L47.3092 66.956L55.7546 66.6745L50.2725 59.0292C50.2725 59.0292 54.8508 55.0287 52.9099 48.3464H39.7972C39.7972 48.3464 36.2709 48.465 36.2709 51.6505C36.2857 54.8361 36.908 65.0447 36.8339 68.008Z" stroke="black" stroke-miterlimit="10" stroke-linecap="round" stroke-linejoin="round"/>
<path d="M36.6117 69.2526C36.6117 69.2526 38.7156 79.9649 43.0124 84.2766L48.0797 83.9062C48.0797 83.9062 45.7387 80.0835 45.1608 77.0757C45.1608 77.0757 47.8871 74.868 47.6945 73.8013C47.5019 72.7345 48.702 68.245 45.0719 68.3932C41.4419 68.5266 37.6192 67.9191 36.6117 69.2526Z" stroke="black" stroke-miterlimit="10" stroke-linecap="round" stroke-linejoin="round"/>
<path d="M42.6272 70.6009V73.5938C42.6272 73.5938 44.3904 74.2754 44.6274 72.0974C44.8793 69.9193 42.6272 70.6009 42.6272 70.6009Z" stroke="black" stroke-miterlimit="10" stroke-linecap="round" stroke-linejoin="round"/>
<path d="M48.3168 83.3283C48.3168 83.3283 48.9391 72.5419 48.3168 69.4897C48.3168 69.4897 48.6427 68.2006 53.4285 68.3636C53.4285 68.3636 57.0141 68.2451 56.9548 69.4304C56.9104 70.6305 57.3401 72.9271 54.3323 75.8311C54.3323 75.8311 56.1399 82.4097 57.2512 83.3283L54.1989 83.758C54.1989 83.758 52.9544 80.7651 52.2876 81.3133C52.2876 81.3133 51.5171 80.9873 51.5764 83.758C51.5616 83.758 49.265 84.0099 48.3168 83.3283Z" stroke="black" stroke-miterlimit="10" stroke-linecap="round" stroke-linejoin="round"/>
<path d="M45.0719 51.7098V55.2806C45.0719 55.2806 47.9315 54.1693 48.0797 52.1691C48.0797 52.1543 47.0721 51.4579 45.0719 51.7098Z" stroke="black" stroke-miterlimit="10" stroke-linecap="round" stroke-linejoin="round"/>
<path d="M51.0874 70.4972C51.0874 70.4972 50.8652 72.3937 51.28 72.8234C51.28 72.8234 53.5618 72.3937 53.621 71.3417C53.6655 70.3046 51.5171 70.1268 51.0874 70.4972Z" stroke="black" stroke-miterlimit="10" stroke-linecap="round" stroke-linejoin="round"/>
<path d="M57.2363 82.8542C57.2363 82.8542 58.318 70.349 58.392 68.008H62.6296C62.6296 68.008 64.5854 82.5282 65.3558 83.5654L61.7258 84.2618L60.3923 82.0837L59.77 84.2618C59.77 84.2766 57.1474 83.9951 57.2363 82.8542Z" stroke="black" stroke-miterlimit="10" stroke-linecap="round" stroke-linejoin="round"/>
<path d="M61.9183 78.3499C61.9183 78.3499 61.5775 75.3422 60.6737 75.7126C59.7699 76.083 59.8292 78.3499 59.8292 78.3499C59.8292 78.3499 61.2516 79.15 61.9183 78.3499Z" stroke="black" stroke-miterlimit="10" stroke-linecap="round" stroke-linejoin="round"/>
<path d="M73.4752 73.3568C73.4752 73.3568 73.7123 66.956 70.4674 67.1042C67.2226 67.2523 66.0225 67.3857 65.3557 73.3568C64.689 79.3278 65.741 82.9579 68.5117 83.0913C71.2824 83.2394 73.1937 83.2839 72.8529 79.313C72.5121 75.357 72.1417 76.3053 72.1417 76.3053C72.1417 76.3053 69.4747 75.52 69.4155 76.3349C69.371 77.1498 69.3266 77.861 70.2748 79.3427C71.2231 80.8243 68.4524 80.4539 68.319 78.6759C68.1709 76.9127 67.1189 74.6162 68.5561 73.0456C69.9933 71.4751 71.2527 71.9047 71.6528 73.0456L73.4752 73.3568Z" stroke="black" stroke-miterlimit="10" stroke-linecap="round" stroke-linejoin="round"/>
<path d="M83.2987 67.4746C82.1874 66.7634 80.5724 67.8154 80.5724 67.8154C80.5724 69.8156 78.3944 71.4454 78.3944 71.4454C76.809 71.7269 75.7274 67.4301 75.7274 67.4301H73.5494C73.5494 67.6228 73.5346 67.8154 73.5346 68.008C73.1345 81.3132 77.8314 82.5282 77.8314 82.5282C86.3805 76.2608 83.2987 67.4746 83.2987 67.4746Z" stroke="black" stroke-miterlimit="10" stroke-linecap="round" stroke-linejoin="round"/>
<path d="M90.6179 72.5863C90.6179 72.5863 92.4997 68.0969 90.6179 66.2152C90.6179 66.2152 85.0173 66.5856 84.3505 67.0894C83.6838 67.5783 83.8468 70.3638 83.8172 70.6009C83.7727 70.8379 84.3209 76.6312 82.1725 79.8761C82.1725 79.8761 80.9872 82.143 80.9872 82.5282C80.9872 82.9135 86.3952 83.6691 87.8621 81.7578L88.8548 79.0167L86.8545 79.5205C86.8545 79.5205 85.5951 76.7942 88.1732 76.3497C88.1732 76.3497 89.5363 76.2164 89.6845 77.1943V74.1865C89.6845 74.1865 88.0547 74.8532 87.2842 73.016C87.2842 73.016 87.225 70.749 89.4919 71.6084C89.4919 71.6084 90.3364 71.9196 90.6179 72.5863Z" stroke="black" stroke-miterlimit="10" stroke-linecap="round" stroke-linejoin="round"/>
<path d="M44.5978 84.81C44.5978 84.81 43.8273 85.6397 45.1015 87.714C46.3758 89.7883 53.5322 98.3967 53.5322 98.3967L58.4513 98.5449L53.4433 93.1369C53.4433 93.1369 55.5028 92.5887 56.2436 92.4109L55.8584 90.2921C55.8584 90.2921 52.9988 90.8255 52.2876 89.9217C51.5764 89.0327 52.2135 87.3732 53.2507 87.4325C53.5914 87.4473 54.5101 87.7881 54.7768 87.4177C55.3102 86.6472 55.0138 84.8248 55.0138 84.8248C55.0138 84.8248 46.8203 83.9654 44.5978 84.81Z" stroke="black" stroke-miterlimit="10" stroke-linecap="round" stroke-linejoin="round"/>
<path d="M56.777 85.5212L61.9925 85.0767C61.9925 85.0767 62.9852 89.892 64.9558 89.5809C64.9558 89.5809 67.2079 89.7883 67.4005 85.0767C67.4005 85.0767 70.5268 84.1284 72.9419 85.4915C72.9419 85.4915 73.742 98.2782 65.7855 100.59C65.7855 100.575 56.6141 100.945 56.777 85.5212Z" stroke="black" stroke-miterlimit="10" stroke-linecap="round" stroke-linejoin="round"/>
<path d="M73.7716 84.81L76.0237 84.7507C76.0237 84.7507 76.7645 88.2919 77.7128 88.3511L78.5425 84.81L82.78 85.1063L78.0239 96.8855L74.8976 98.0856C74.8976 98.0856 75.0754 94.4407 74.468 94.5741C73.8605 94.7074 72.9863 98.5449 72.9863 98.5449L71.149 99.5969C71.149 99.5969 72.2307 95.2705 72.4085 94.6926C72.5863 94.1148 73.1789 91.1366 73.2234 90.4847C73.2382 89.818 73.7123 85.9064 73.7716 84.81Z" stroke="black" stroke-miterlimit="10" stroke-linecap="round" stroke-linejoin="round"/>
<path d="M73.9049 48.4353C73.1344 48.4353 67.5041 48.0501 67.5041 48.0501C64.1556 57.8883 59.9625 48.4353 59.9625 48.4353C59.2958 47.576 52.9247 48.4353 52.9247 48.4353C52.3764 50.4356 52.9691 54.6583 52.9691 54.6583C56.125 64.1557 62.4813 66.6597 64.9557 67.282C65.1335 67.0449 65.415 66.8819 65.8002 66.8819C66.1114 66.8819 66.3485 66.9857 66.5263 67.1486C75.9792 61.2813 73.9049 48.4353 73.9049 48.4353Z" fill="#F89630"/>
<path d="M73.9049 48.3316C74.2605 48.3316 73.9938 53.6952 73.9642 54.0212C73.6827 56.7474 72.927 59.4588 71.5491 61.8443C70.349 63.9186 69.0451 66.2745 66.5411 66.9264C64.9854 67.3264 63.3259 66.9116 61.9183 66.1411C59.1477 64.615 56.6437 61.9777 55.0583 59.2662C54.3619 58.0809 52.9543 55.9621 52.9543 54.5546C52.9543 54.5546 52.3617 50.3318 52.9099 48.3316C52.9099 48.3316 59.281 47.4723 59.9477 48.3316C59.9477 48.3316 64.1556 57.7846 67.4894 47.9464C67.5042 47.9612 73.1345 48.3316 73.9049 48.3316Z" stroke="black" stroke-miterlimit="10" stroke-linecap="round" stroke-linejoin="round"/>
<path d="M62.7926 27.3662C63 26.2549 65.0447 26.0475 65.0595 27.3662" stroke="black" stroke-miterlimit="10"/>
<path d="M68.1858 25.6919L59.9478 25.7067" stroke="black" stroke-miterlimit="10"/>
<path d="M62.7925 27.1291C63.1185 27.7218 62.8814 28.5219 62.5555 29.0553C61.7702 30.3443 59.9626 31.4407 58.4216 31.6334C57.4586 31.7519 56.377 31.5 55.6806 30.8184C54.8657 30.0332 54.7768 28.8923 54.8657 27.8255C55.0138 26.1957 56.6585 25.7512 58.1105 25.6919C59.607 25.6326 61.7109 25.5734 62.6444 26.9217C62.7036 26.9958 62.7481 27.055 62.7925 27.1291Z" fill="#474F45"/>
<path d="M65.0447 27.1291C64.7187 27.7218 64.9558 28.5219 65.2817 29.0553C66.067 30.3443 67.8746 31.4407 69.4155 31.6334C70.3786 31.7519 71.4602 31.5 72.1566 30.8184C72.9715 30.0332 73.0604 28.8923 72.9715 27.8255C72.8234 26.1957 71.1787 25.7512 69.7267 25.6919C68.2302 25.6326 66.1263 25.5734 65.1928 26.9217C65.1336 26.9958 65.0891 27.055 65.0447 27.1291Z" fill="#474F45"/>
<path d="M62.7925 27.1291C63.1185 27.7218 62.8814 28.5219 62.5555 29.0553C61.7702 30.3443 59.9626 31.4407 58.4216 31.6334C57.4586 31.7519 56.377 31.5 55.6806 30.8184C54.8657 30.0332 54.7768 28.8923 54.8657 27.8255C55.0138 26.1957 56.6585 25.7512 58.1105 25.6919C59.607 25.6326 61.7109 25.5734 62.6444 26.9217C62.7036 26.9958 62.7481 27.055 62.7925 27.1291Z" stroke="black" stroke-miterlimit="10"/>
<path d="M65.0447 27.1291C64.7187 27.7218 64.9558 28.5219 65.2817 29.0553C66.067 30.3443 67.8746 31.4407 69.4155 31.6334C70.3786 31.7519 71.4602 31.5 72.1566 30.8184C72.9715 30.0332 73.0604 28.8923 72.9715 27.8255C72.8234 26.1957 71.1787 25.7512 69.7267 25.6919C68.2302 25.6326 66.1263 25.5734 65.1928 26.9217C65.1336 26.9958 65.0891 27.055 65.0447 27.1291Z" stroke="black" stroke-miterlimit="10"/>
<path d="M29.5738 50.643C29.3516 44.2719 30.0332 41.2493 30.0332 41.2493L30.6258 37.8711" stroke="black" stroke-miterlimit="10" stroke-linecap="round" stroke-linejoin="round"/>
<path d="M32.9668 40.8789C32.9668 40.8789 33.6928 46.2425 32.5668 48.4353" stroke="#020202" stroke-miterlimit="10" stroke-linecap="round" stroke-linejoin="round"/>
</g>
<defs>
<clipPath id="clip0">
<rect width="126" height="126" fill="white"/>
</clipPath>
</defs>
</svg>
