<svg xmlns="http://www.w3.org/2000/svg" width="89" height="89" viewBox="0 0 89 89">
    <g fill="none" fill-rule="evenodd" transform="translate(-4 -4)">
        <g fill-rule="nonzero">
            <path fill="#F7AB05" d="M88.768 30.756l-10.272 4.463c-4.778-10.996-15.17-18.63-27.329-19.694l.977-11.157c16.29 1.425 30.226 11.661 36.624 26.388z"/>
            <path fill="#DF402A" d="M77.5 81.348l-7.415-8.394c6.287-5.553 10.244-13.267 10.992-21.817.302-3.487.055-6.94-.718-10.273l10.911-2.528a44.074 44.074 0 0 1 .965 13.772c-1 11.444-6.316 21.803-14.735 29.24z"/>
            <path fill="#0090B6" d="M25.885 86.29l5.698-9.643a32.746 32.746 0 0 0 13.85 4.428 32.722 32.722 0 0 0 19.805-4.567l5.774 9.597a43.92 43.92 0 0 1-26.556 6.127 43.946 43.946 0 0 1-18.57-5.943z"/>
            <path fill="#563FD8" d="M5.24 38.757l10.938 2.411a33.263 33.263 0 0 0-.653 4.265c-.93 10.634 3.309 20.853 11.22 27.726l-7.346 8.455C8.81 72.414 3.121 58.702 4.368 44.456c.168-1.927.46-3.83.873-5.7z"/>
            <path fill="#A21B6B" d="M44.024 4.4L45.1 15.55c-11.99 1.155-22.434 8.87-27.108 19.927L7.675 31.115c6.27-14.832 20.254-25.163 36.35-26.714z"/>
        </g>
        <circle cx="30.1" cy="23.8" r="7.35" fill="#A21B6B" stroke="#FFF" stroke-width="2.1"/>
        <circle cx="65.1" cy="23.8" r="7.35" fill="#F7AB05" stroke="#FFF" stroke-width="2.1"/>
        <circle cx="76.65" cy="57.75" r="7.35" fill="#DF402A" stroke="#FFF" stroke-width="2.1"/>
        <circle cx="48.3" cy="79.8" r="7.35" fill="#0090B6" stroke="#FFF" stroke-width="2.1"/>
        <circle cx="20.3" cy="57.75" r="7.35" fill="#563FD8" stroke="#FFF" stroke-width="2.1"/>
    </g>
</svg>
