<svg xmlns="http://www.w3.org/2000/svg" width="21" height="14" viewBox="0 0 21 14">
    <path fill="#F7AB05" fill-rule="nonzero" d="M17.016.188c.875.093 1.53.374 1.968.843.125.125.235.274.328.446a3.757 3.757 0 0 1 .339.849l.037.158c.03.157.062.282.093.375V3c.157 1.094.235 2.172.235 3.234v1.5l-.235 3.235c-.125.906-.39 1.562-.797 1.969-.437.437-1.093.718-1.968.843-.739.055-1.603.098-2.592.128l-1.182.031c-.719.017-1.344.026-1.875.028H9.984l-2.29-.027c-2.197-.035-3.699-.088-4.506-.16l-.376-.047a8.774 8.774 0 0 1-.609-.093 2.256 2.256 0 0 1-.586-.235 2.264 2.264 0 0 1-.61-.469c-.171-.187-.327-.445-.468-.773a3.295 3.295 0 0 1-.258-.867l-.094-.328A28.471 28.471 0 0 1 0 7.734v-1.5L.188 3c.125-.906.39-1.563.796-1.969C1.422.563 2.094.281 3 .188A61.586 61.586 0 0 1 5.574.058L6.74.03C7.45.011 8.07.002 8.6 0L9.985 0c2.813 0 5.157.063 7.032.188zM7.969 3.983V9.61l4.734-2.484.656-.328-5.39-2.813z"/>
</svg>
